<svg width="200" height="76" viewBox="0 0 200 76" fill="none" xmlns="http://www.w3.org/2000/svg">
  <g fill="black">
    <path d="M29.0619 27.5598H22.1956L20.1198 22.5272H8.62276L6.70659 27.5598H0L10.2994 1.9971H17.6447L29.0619 27.5598ZM14.0519 8.06825L10.2994 17.9738H18.2036L14.0519 8.06825Z"/>
    <path d="M53.8922 1.9971H59.4012V27.5598H53.014V11.5831L46.1477 19.5715H45.1896L38.3234 11.5831V27.5598H31.9362V1.9971H37.525L45.7485 11.5032L53.8922 1.9971Z"/>
    <path d="M75.6088 1.99709C84.9501 1.99709 89.7405 7.82859 89.7405 14.7785C89.7405 22.1277 85.1098 27.4799 74.8902 27.4799H64.3513V1.91721H75.6088V1.99709ZM70.6587 22.8467H74.8104C81.1976 22.8467 83.1138 18.533 83.1138 14.7785C83.1138 10.3849 80.7186 6.71022 74.7306 6.71022H70.6587V22.8467Z"/>
    <path d="M115.529 8.06823H102.355L94.3712 0H123.593V29.2374L115.529 21.249V8.06823Z"/>
    <path d="M102.355 21.249V9.66589L94.1317 17.8939V29.477H105.709L113.932 21.249H102.355Z"/>
    <path d="M81.1178 49.2881H104.192L81.1178 69.1791V75.8893H114.331V69.259H91.1777L114.331 49.368V42.6578H81.1178V49.2881Z"/>
    <path d="M56.6068 55.8386L47.1058 42.6578H38.8823L53.2535 62.6287V75.8893H59.8803V62.6287L74.3314 42.6578H66.1078L56.6068 55.8386Z"/>
    <path d="M156.806 42.6578H123.593V49.2881H156.806V42.6578Z"/>
    <path d="M123.593 55.9983V75.8893H156.806V69.259H130.22V62.6287H156.806V55.9983H123.593Z"/>
    <path d="M6.62675 62.6287H18.9222L26.5868 75.8893H34.2515L26.5868 62.5488C30.2595 62.5488 33.2136 59.5931 33.2136 55.9184V49.2881C33.2136 45.6135 30.2595 42.6578 26.5868 42.6578H0V49.2881H26.1078C26.3473 49.2881 26.5868 49.5278 26.5868 49.7674V55.4391C26.5868 55.6788 26.3473 55.9184 26.1078 55.9184H0V62.5488V75.8893H6.62675V62.6287Z"/>
    <path d="M193.453 42.6578V65.824L173.573 42.6578H166.866V75.8893H173.493V52.803L193.453 75.8893H200.08V42.6578H193.453Z"/>
  </g>
</svg>
