<svg width="1920" height="684" viewBox="0 0 1920 684" fill="none" xmlns="http://www.w3.org/2000/svg">
    <g clip-path="url(#clip0)">
        <path d="M-414.767 959.132C-395.076 927.656 -371.489 908.667 -349.562 891.891C-330.268 877.059 -312.508 863.99 -300.024 845.338C-297.131 840.551 -288.027 826.551 -284.239 803.315C-272.813 733.381 -321.83 652.602 -305.4 593.032C-288.782 532.786 -208.916 505.524 -113.832 472.505C17.5455 427.644 80.3083 449.083 130.001 407.671C200.708 348.99 95.41 287.895 147.448 230.377C211.886 158.311 409.142 222.431 651.428 172.71C864.283 128.955 853.151 68.5813 1007.91 30.17C1128.9 0.168158 1340.95 -8.35875 1744.06 86.8033C1744.55 86.9377 1744.55 86.9377 1745.04 87.0721C1797.76 105.012 1851.15 122.41 1904.79 138.906C1936.21 148.543 1967.69 157.954 1999.23 167.14C1971.7 227.047 1944.1 287.179 1916.57 347.086C1797.73 462.422 1642.14 496.234 1517.13 504.729C1264.41 521.949 1087 440.967 913.354 487.037C737.38 533.923 832.126 650.382 664.503 665.093C488.826 680.496 329.22 557.802 139.539 568.857C-42.6991 579.537 -84.4349 704.241 -106.205 769.865C-143.046 880.623 -75.8422 937.281 -134.366 1031.62C-174.982 1097.14 -249.179 1136.17 -301.325 1157.96L-358.66 1158.66C-432.952 1093.49 -446.953 1011.2 -414.767 959.132Z" fill="url(#paint0_linear)"/>
    </g>
    <defs>
        <linearGradient id="paint0_linear" x1="278.126" y1="215.718" x2="325.397" y2="477.511" gradientUnits="userSpaceOnUse">
            <stop stop-color="#3C3551"/>
            <stop offset="1" stop-color="#18141D"/>
        </linearGradient>
        <clipPath id="clip0">
            <rect width="1920" height="684" fill="white"/>
        </clipPath>
    </defs>
</svg>