<svg xmlns="http://www.w3.org/2000/svg" viewBox="0 0 41.3 30.29"><g data-name="Слой 2"><path d="M41.13 18.86l-1.59-1.59a.58.58 0 00-.82 0l-2.51 2.51-2.11 2.11-.41.41-2.25 2.25-2 2-1.29 3.14a.42.42 0 00.55.55L31.84 29l3.9-3.9.36-.35 5-5a.58.58 0 000-.82M32.7 21l-6.1-7.77a1.47 1.47 0 00-2.32 0l-4.63 5.9-6.46-9a1.47 1.47 0 00-2.39 0L2.11 22.27V2.11h32v17.54l2.11-2.11v-16A1.55 1.55 0 0034.66 0H1.55A1.55 1.55 0 000 1.55v22.58a1.55 1.55 0 001.55 1.55h26.53l.23-.22z" fill="#9c9ea0" data-name="Слой 1"/></g></svg>