<svg xmlns="http://www.w3.org/2000/svg" viewBox="0 0 39.13 28.5"><defs><style>.cls-1{fill:#9c9ea0}</style></defs><g id="Слой_2" data-name="Слой 2"><g id="Слой_1-2" data-name="Слой 1"><path class="cls-1" d="M37.93 2.61V25a2.34 2.34 0 01-2.33 2.3h-33a1.56 1.56 0 001.52 1.2h32.57a2.44 2.44 0 002.44-2.44V4.13a1.56 1.56 0 00-1.2-1.52"/><path class="cls-1" d="M2.13 6.34h32.3V23.8H2.13zm26.52-3.17a.89.89 0 11-.89-.89.89.89 0 01.89.89m2.77 0a.89.89 0 11-.9-.89.89.89 0 01.9.89m2.77 0a.89.89 0 11-.89-.89.89.89 0 01.89.89m2.38 21.2V1.56A1.56 1.56 0 0035 0H1.56A1.56 1.56 0 000 1.56v22.81a1.56 1.56 0 001.56 1.56H35a1.56 1.56 0 001.56-1.56"/><path class="cls-1" d="M10.61 8.88a6.33 6.33 0 106.33 6.33h-6.33zm9.89 5.07h3.34v7.6H20.5zm4.32-2.57h3.34v10.17h-3.34zm4.13-2.79h3.34v12.96h-3.34z"/></g></g></svg>