<svg xmlns="http://www.w3.org/2000/svg" viewBox="0 0 41.3 29.06"><defs><style>.cls-1{fill:#9c9ea0}</style></defs><g id="Слой_2" data-name="Слой 2"><g id="Слой_1-2" data-name="Слой 1"><path class="cls-1" d="M38.22 25.54L36.77 23l1.34-2.43h1.26L38 23l1.5 2.53zm-1.59 0h-1.11v-5h1.12zm-1.83-1h-.6v1h-1.05v-1H31v-.93l1.84-2.86h1.36v2.92h.6zm1-7.44H35a6 6 0 00-4.45 2.34l-.13.17-.12.17a6 6 0 00-.42.77v.07l-.07.16v.09l-.05.15v3.39l.05.21v.1l.07.23v.07a5.9 5.9 0 00.25.6 6 6 0 105.91-8.6"/><path class="cls-1" d="M25.66 19.41H10.55V6.27h15.11zm-1.15 3.93a.4.4 0 01-.4.4h-2.53a.4.4 0 01-.4-.4v-1.59a.4.4 0 01.4-.4h2.54a.4.4 0 01.4.4zm-4.78 0a.4.4 0 01-.4.4h-2.54a.4.4 0 01-.4-.4v-1.59a.4.4 0 01.4-.4h2.54a.4.4 0 01.4.4zm-4.78 0a.4.4 0 01-.4.4H12a.4.4 0 01-.4-.4v-1.59a.4.4 0 01.4-.4h2.54a.4.4 0 01.4.4zM10.16 3.93a.4.4 0 01-.4.4H7.23a.4.4 0 01-.4-.4V2.34a.4.4 0 01.4-.4h2.53a.4.4 0 01.4.4zm0 19.41a.4.4 0 01-.4.4H7.23a.4.4 0 01-.4-.4v-1.59a.4.4 0 01.4-.4h2.53a.4.4 0 01.4.4zm-4.78 0a.4.4 0 01-.4.4H2.44a.4.4 0 01-.4-.4v-1.59a.4.4 0 01.4-.4H5a.4.4 0 01.4.4zm3.05-3.93H2.11V6.27h6.32zM2 2.34a.4.4 0 01.4-.4H5a.4.4 0 01.4.4v1.59a.4.4 0 01-.4.4H2.44a.4.4 0 01-.4-.4zm9.57 0a.4.4 0 01.4-.4h2.54a.4.4 0 01.4.4v1.59a.4.4 0 01-.4.4H12a.4.4 0 01-.4-.4zm4.78 0a.4.4 0 01.4-.4h2.54a.4.4 0 01.4.4v1.59a.4.4 0 01-.4.4h-2.5a.4.4 0 01-.4-.4zm4.78 0a.4.4 0 01.4-.4h2.54a.4.4 0 01.4.4v1.59a.4.4 0 01-.4.4h-2.49a.4.4 0 01-.4-.4zm4.78 0a.4.4 0 01.4-.4h2.59a.4.4 0 01.4.4v1.59a.4.4 0 01-.4.4h-2.54a.4.4 0 01-.4-.4zm4.78 0a.4.4 0 01.4-.4h2.54a.4.4 0 01.4.4v1.59a.4.4 0 01-.4.4h-2.49a.4.4 0 01-.4-.4zm-4.39 19h1.6a7.54 7.54 0 01.74-1.95h-.87V6.27h6.32v9.29a7.46 7.46 0 012.11 0v-14A1.55 1.55 0 0034.66 0H1.55A1.55 1.55 0 000 1.55v22.58a1.55 1.55 0 001.55 1.55h26.62a7.53 7.53 0 01-.43-1.95h-1.38a.4.4 0 01-.4-.4v-1.58a.4.4 0 01.4-.4"/></g></g></svg>