<svg xmlns="http://www.w3.org/2000/svg" viewBox="0 0 36.52 25.17"><g data-name="Слой 2"><path d="M28.47 8.71h-1.22v1.22a1.19 1.19 0 01-2.37 0V8.71h-1.23a1.19 1.19 0 010-2.37h1.22V5.11a1.19 1.19 0 012.37 0v1.22h1.22a1.19 1.19 0 010 2.37m-7.15 4.19h-2a.44.44 0 110-.88h2a.44.44 0 010 .88m-4.14 0h-2a.44.44 0 010-.88h2a.44.44 0 010 .88m-4.31-4.18A1.19 1.19 0 1114 7.52a1.19 1.19 0 01-1.19 1.19M10.46 6.3a1.19 1.19 0 111.19-1.19 1.19 1.19 0 01-1.19 1.19m0 4.81a1.19 1.19 0 111.19-1.19 1.19 1.19 0 01-1.19 1.19M8 8.71a1.19 1.19 0 111.24-1.19A1.19 1.19 0 018 8.71m28.49 12.15A46.08 46.08 0 0032.37 4.3l-1-2.09A3.79 3.79 0 0027.11.1l-3.2.75a24.9 24.9 0 01-11.31 0L9.4.1a3.79 3.79 0 00-4.3 2.11l-1 2.09A46.12 46.12 0 000 20.86V21a3.9 3.9 0 002.33 3.88 3.79 3.79 0 004.75-1.67l3-5.35A3.79 3.79 0 0112.72 16l1.36-.24a24.19 24.19 0 018.35 0l1.36.24a3.79 3.79 0 012.66 1.9l2.91 5.25a3.89 3.89 0 003 2 3.79 3.79 0 004.13-4z" fill="#9c9ea0" data-name="Слой 1"/></g></svg>