<svg xmlns="http://www.w3.org/2000/svg" viewBox="0 0 39.13 28.5"><defs><style>.cls-1{fill:#9c9ea0}</style></defs><g id="Слой_2" data-name="Слой 2"><g id="Слой_1-2" data-name="Слой 1"><path class="cls-1" d="M37.93 2.61V25a2.34 2.34 0 01-2.33 2.3h-33a1.56 1.56 0 001.52 1.2h32.57a2.44 2.44 0 002.44-2.44V4.13a1.56 1.56 0 00-1.2-1.52"/><path class="cls-1" d="M2.13 6.34h32.3V23.8H2.13zm26.52-3.17a.89.89 0 11-.9-.89.89.89 0 01.9.89m2.77 0a.89.89 0 11-.89-.89.89.89 0 01.89.89m2.77 0a.89.89 0 11-.89-.89.89.89 0 01.89.89m2.38 21.2V1.56A1.56 1.56 0 0035 0H1.56A1.56 1.56 0 000 1.56v22.81a1.56 1.56 0 001.56 1.56H35a1.56 1.56 0 001.56-1.56"/><path class="cls-1" d="M11.48 15.88a2.06 2.06 0 112.05-2.05 2.06 2.06 0 01-2.05 2.05m0-5.87a3.81 3.81 0 00-3.18 5.92l-2.8 2.8A.88.88 0 106.74 20l2.84-2.84a3.82 3.82 0 101.9-7.16m18.66 4.24H17.63a.95.95 0 100 1.9h12.51a.95.95 0 000-1.9"/></g></g></svg>