<svg width="60" height="45" viewBox="0 0 60 45" fill="none" xmlns="http://www.w3.org/2000/svg">
    <g clip-path="url(#clip0)">
        <path d="M59.7555 27.6779L57.4395 25.3387C57.3618 25.2583 57.2689 25.1944 57.1664 25.1508C57.0639 25.1072 56.9537 25.0847 56.8425 25.0847C56.7312 25.0847 56.6211 25.1072 56.5186 25.1508C56.4161 25.1944 56.3232 25.2583 56.2455 25.3387L52.6061 29.0581L49.5133 32.1819L42.7667 38.996L40.8823 43.5872C40.8367 43.701 40.8252 43.8258 40.8494 43.9461C40.8735 44.0664 40.9323 44.1768 41.0182 44.2636C41.1041 44.3504 41.2135 44.4097 41.3326 44.4341C41.4516 44.4585 41.5752 44.4469 41.6878 44.4009L46.2623 42.5121L51.93 36.7876L52.4479 36.2646L59.7698 28.8693C59.8494 28.7908 59.9127 28.697 59.9559 28.5934C59.9991 28.4899 60.0213 28.3787 60.0213 28.2663C60.0213 28.154 59.9991 28.0427 59.9559 27.9392C59.9127 27.8356 59.8494 27.7419 59.7698 27.6634L59.7555 27.6779ZM38.293 34.8698C38.1404 34.8698 37.994 34.8085 37.8861 34.6996C37.7782 34.5906 37.7176 34.4427 37.7176 34.2886V31.964C37.7176 31.8098 37.7782 31.662 37.8861 31.553C37.994 31.444 38.1404 31.3828 38.293 31.3828H41.9756C42.1282 31.3828 42.2745 31.444 42.3824 31.553C42.4903 31.662 42.551 31.8098 42.551 31.964V34.2886C42.551 34.4427 42.4903 34.5906 42.3824 34.6996C42.2745 34.8085 42.1282 34.8698 41.9756 34.8698H38.293ZM37.2716 28.5206H15.3201V9.1969H37.286L37.2716 28.5206ZM35.603 34.3322C35.603 34.4863 35.5424 34.6342 35.4344 34.7431C35.3265 34.8521 35.1802 34.9134 35.0276 34.9134H31.345C31.1924 34.9134 31.046 34.8521 30.9381 34.7431C30.8302 34.6342 30.7696 34.4863 30.7696 34.3322V31.964C30.7696 31.8098 30.8302 31.662 30.9381 31.553C31.046 31.444 31.1924 31.3828 31.345 31.3828H35.0276C35.1802 31.3828 35.3265 31.444 35.4344 31.553C35.5424 31.662 35.603 31.8098 35.603 31.964V34.3322ZM28.655 34.3322C28.655 34.4863 28.5944 34.6342 28.4865 34.7431C28.3786 34.8521 28.2322 34.9134 28.0796 34.9134H24.4546C24.302 34.9134 24.1556 34.8521 24.0477 34.7431C23.9398 34.6342 23.8792 34.4863 23.8792 34.3322V31.964C23.8792 31.8098 23.9398 31.662 24.0477 31.553C24.1556 31.444 24.302 31.3828 24.4546 31.3828H28.1371C28.2897 31.3828 28.4361 31.444 28.544 31.553C28.6519 31.662 28.7125 31.8098 28.7125 31.964L28.655 34.3322ZM21.707 34.3322C21.707 34.4863 21.6464 34.6342 21.5385 34.7431C21.4306 34.8521 21.2842 34.9134 21.1316 34.9134H17.4491C17.2964 34.9134 17.1501 34.8521 17.0422 34.7431C16.9343 34.6342 16.8737 34.4863 16.8737 34.3322V31.964C16.8737 31.8098 16.9343 31.662 17.0422 31.553C17.1501 31.444 17.2964 31.3828 17.4491 31.3828H21.1316C21.2842 31.3828 21.4306 31.444 21.5385 31.553C21.6464 31.662 21.707 31.8098 21.707 31.964V34.3322ZM14.7591 5.81163C14.7591 5.96576 14.6984 6.11358 14.5905 6.22257C14.4826 6.33156 14.3363 6.39279 14.1837 6.39279H10.5011C10.3485 6.39279 10.2021 6.33156 10.0942 6.22257C9.9863 6.11358 9.92568 5.96576 9.92568 5.81163V3.44339C9.93658 3.29693 10.002 3.16008 10.1087 3.06034C10.2155 2.96061 10.3557 2.9054 10.5011 2.90581H14.1837C14.3363 2.90581 14.4826 2.96704 14.5905 3.07603C14.6984 3.18502 14.7591 3.33284 14.7591 3.48698V5.81163ZM14.7591 34.2886C14.7591 34.4427 14.6984 34.5906 14.5905 34.6996C14.4826 34.8085 14.3363 34.8698 14.1837 34.8698H10.5011C10.3485 34.8698 10.2021 34.8085 10.0942 34.6996C9.9863 34.5906 9.92568 34.4427 9.92568 34.2886V31.964C9.92568 31.8098 9.9863 31.662 10.0942 31.553C10.2021 31.444 10.3485 31.3828 10.5011 31.3828H14.1837C14.3363 31.3828 14.4826 31.444 14.5905 31.553C14.6984 31.662 14.7591 31.8098 14.7591 31.964V34.2886ZM7.81108 34.2886C7.8113 34.3687 7.79512 34.4481 7.76354 34.5216C7.73196 34.5951 7.68567 34.6612 7.62759 34.7158C7.5695 34.7703 7.50086 34.8122 7.42599 34.8387C7.35112 34.8652 7.27163 34.8758 7.19252 34.8698H3.55311C3.4005 34.8698 3.25414 34.8085 3.14623 34.6996C3.03833 34.5906 2.9777 34.4427 2.9777 34.2886V31.964C2.9777 31.8098 3.03833 31.662 3.14623 31.553C3.25414 31.444 3.4005 31.3828 3.55311 31.3828H7.19252C7.34513 31.3828 7.49148 31.444 7.59939 31.553C7.7073 31.662 7.76792 31.8098 7.76792 31.964L7.81108 34.2886ZM12.2417 28.477H3.06401V9.1969H12.2561L12.2417 28.477ZM2.9777 3.44339C2.9777 3.28926 3.03833 3.14144 3.14623 3.03245C3.25414 2.92346 3.4005 2.86223 3.55311 2.86223H7.19252C7.34513 2.86223 7.49148 2.92346 7.59939 3.03245C7.7073 3.14144 7.76792 3.28926 7.76792 3.44339V5.81163C7.76792 5.96576 7.7073 6.11358 7.59939 6.22257C7.49148 6.33156 7.34513 6.39279 7.19252 6.39279H3.55311C3.4005 6.39279 3.25414 6.33156 3.14623 6.22257C3.03833 6.11358 2.9777 5.96576 2.9777 5.81163V3.44339ZM16.8737 3.44339C16.8737 3.28926 16.9343 3.14144 17.0422 3.03245C17.1501 2.92346 17.2964 2.86223 17.4491 2.86223H21.1316C21.2842 2.86223 21.4306 2.92346 21.5385 3.03245C21.6464 3.14144 21.707 3.28926 21.707 3.44339V5.81163C21.707 5.96576 21.6464 6.11358 21.5385 6.22257C21.4306 6.33156 21.2842 6.39279 21.1316 6.39279H17.4491C17.2964 6.39279 17.1501 6.33156 17.0422 6.22257C16.9343 6.11358 16.8737 5.96576 16.8737 5.81163V3.44339ZM23.8216 3.44339C23.827 3.36566 23.8478 3.28981 23.8828 3.22036C23.9178 3.15091 23.9662 3.08927 24.0253 3.03912C24.0843 2.98897 24.1528 2.95132 24.2265 2.92842C24.3003 2.90552 24.3778 2.89783 24.4546 2.90581H28.1371C28.2897 2.90581 28.4361 2.96704 28.544 3.07603C28.6519 3.18502 28.7125 3.33284 28.7125 3.48698V5.81163C28.7125 5.96576 28.6519 6.11358 28.544 6.22257C28.4361 6.33156 28.2897 6.39279 28.1371 6.39279H24.4546C24.302 6.39279 24.1556 6.33156 24.0477 6.22257C23.9398 6.11358 23.8792 5.96576 23.8792 5.81163L23.8216 3.44339ZM30.7696 3.44339C30.7696 3.28926 30.8302 3.14144 30.9381 3.03245C31.046 2.92346 31.1924 2.86223 31.345 2.86223H35.0276C35.1802 2.86223 35.3265 2.92346 35.4344 3.03245C35.5424 3.14144 35.603 3.28926 35.603 3.44339V5.81163C35.603 5.96576 35.5424 6.11358 35.4344 6.22257C35.3265 6.33156 35.1802 6.39279 35.0276 6.39279H31.345C31.1924 6.39279 31.046 6.33156 30.9381 6.22257C30.8302 6.11358 30.7696 5.96576 30.7696 5.81163V3.44339ZM37.7176 3.44339C37.7176 3.28926 37.7782 3.14144 37.8861 3.03245C37.994 2.92346 38.1404 2.86223 38.293 2.86223H41.9756C42.1282 2.86223 42.2745 2.92346 42.3824 3.03245C42.4903 3.14144 42.551 3.28926 42.551 3.44339V5.81163C42.551 5.96576 42.4903 6.11358 42.3824 6.22257C42.2745 6.33156 42.1282 6.39279 41.9756 6.39279H38.293C38.1404 6.39279 37.994 6.33156 37.8861 6.22257C37.7782 6.11358 37.7176 5.96576 37.7176 5.81163V3.44339ZM44.6656 3.44339C44.6656 3.28926 44.7262 3.14144 44.8341 3.03245C44.942 2.92346 45.0883 2.86223 45.241 2.86223H48.9091C49.0617 2.86223 49.2081 2.92346 49.316 3.03245C49.4239 3.14144 49.4845 3.28926 49.4845 3.44339V5.81163C49.4845 5.96576 49.4239 6.11358 49.316 6.22257C49.2081 6.33156 49.0617 6.39279 48.9091 6.39279H45.241C45.0883 6.39279 44.942 6.33156 44.8341 6.22257C44.7262 6.11358 44.6656 5.96576 44.6656 5.81163V3.44339ZM49.5277 28.477H40.2781V9.1969H49.4558L49.5277 28.477ZM44.6656 33.751V31.964C44.6656 31.8098 44.7262 31.662 44.8341 31.553C44.942 31.444 45.0883 31.3828 45.241 31.3828H47.0535L52.5917 25.7891V2.26654C52.5917 1.66541 52.3553 1.08891 51.9344 0.663853C51.5136 0.238795 50.9428 0 50.3476 0H2.24407C1.6489 0 1.07812 0.238795 0.657272 0.663853C0.236428 1.08891 0 1.66541 0 2.26654L0 35.4074C0 36.0085 0.236428 36.585 0.657272 37.01C1.07812 37.4351 1.6489 37.6739 2.24407 37.6739H40.796L41.1268 37.3397L44.6656 33.751Z" fill="#9C9EA0"/>
    </g>
    <defs>
        <clipPath id="clip0">
            <rect width="60" height="44.4444" fill="white"/>
        </clipPath>
    </defs>
</svg>