<svg xmlns="http://www.w3.org/2000/svg" viewBox="0 0 42.64 30.05"><defs><style>.cls-1{fill:#9c9ea0}</style></defs><g id="Слой_2" data-name="Слой 2"><g id="Слой_1-2" data-name="Слой 1"><path class="cls-1" d="M23.93 12.15l-8.24-5.59a1.34 1.34 0 00-2.09 1.11v11.18A1.34 1.34 0 0015.69 20l8.24-5.59a1.34 1.34 0 000-2.21"/><path class="cls-1" d="M28.63 24.33H2.18V2.18h33v13.94a7.8 7.8 0 011.24-.1 7.71 7.71 0 01.94.06V1.6A1.6 1.6 0 0035.79 0H1.6A1.6 1.6 0 000 1.6v23.32a1.6 1.6 0 001.6 1.6h27.48a7.78 7.78 0 01-.45-2.18"/><path class="cls-1" d="M39.47 26.42L38 23.8l1.39-2.51h1.3l-1.47 2.51 1.55 2.61zm-1.64 0h-1.15v-5.13h1.15zm-1.89-1.05h-.62v1.05h-1.09v-1.06H32v-1l1.9-3h1.45v3h.62zm1-7.68h-.84a6.19 6.19 0 00-4.6 2.42l-.13.18-.12.18a6.15 6.15 0 00-.43.8v.07l-.07.16v.1l-.06.15v3.51l.06.22v.1l.08.24v.07a6 6 0 00.26.61A6.2 6.2 0 1037 17.68"/></g></g></svg>