<svg xmlns="http://www.w3.org/2000/svg" viewBox="0 0 39.13 28.5"><defs><style>.cls-1{fill:#9c9ea0}</style></defs><g id="Слой_2" data-name="Слой 2"><g id="Слой_1-2" data-name="Слой 1"><path class="cls-1" d="M37.93 2.61V25a2.34 2.34 0 01-2.33 2.3h-33a1.56 1.56 0 001.52 1.2h32.57a2.44 2.44 0 002.44-2.44V4.13a1.56 1.56 0 00-1.2-1.52"/><path class="cls-1" d="M2.13 6.33h32.3V23.8H2.13zm26.52-3.16a.89.89 0 11-.89-.89.89.89 0 01.89.89m2.77 0a.89.89 0 11-.9-.89.89.89 0 01.9.89m2.77 0a.89.89 0 11-.89-.89.89.89 0 01.89.89m2.38 21.2V1.56A1.56 1.56 0 0035 0H1.56A1.56 1.56 0 000 1.56v22.81a1.56 1.56 0 001.56 1.56H35a1.56 1.56 0 001.56-1.56"/><path class="cls-1" d="M15 15.17a3.63 3.63 0 00-1.38-.86.12.12 0 010-.22 2.13 2.13 0 001-1.85 2.14 2.14 0 00-4.28.05 2.14 2.14 0 001 1.8.12.12 0 010 .22 3.65 3.65 0 00-2.46 3.45c0 2 1.63.8 3.65.8a6 6 0 01.73 0A5.12 5.12 0 0115 15.17"/><path class="cls-1" d="M19.73 14.51a2.69 2.69 0 10-2.9 0 .15.15 0 010 .27 4.58 4.58 0 00-3.09 4.33c0 2.53 2 1 4.58 1s4.58 1.53 4.58-1a4.58 4.58 0 00-3.09-4.33.15.15 0 010-.27"/><path class="cls-1" d="M25.29 14.31a.12.12 0 010-.22 2.14 2.14 0 10-2.31 0 .12.12 0 010 .22 3.65 3.65 0 00-1.38.86 5.13 5.13 0 011.83 3.44 6 6 0 01.73 0c2 0 3.65 1.22 3.65-.8a3.65 3.65 0 00-2.46-3.45"/></g></g></svg>