<svg xmlns="http://www.w3.org/2000/svg" viewBox="0 0 39.13 28.5"><defs><style>.cls-1{fill:#9c9ea0}</style></defs><g id="Слой_2" data-name="Слой 2"><g id="Слой_1-2" data-name="Слой 1"><path class="cls-1" d="M39.13 4.13v21.93a2.44 2.44 0 01-2.44 2.44H4.13a1.56 1.56 0 01-1.52-1.2h33a2.34 2.34 0 002.32-2.3V2.61a1.56 1.56 0 011.2 1.52"/><path class="cls-1" d="M34.43 6.33H2.13V23.8h32.3zm-6.67-4.06a.89.89 0 10.89.89.89.89 0 00-.89-.89m2.77 0a.89.89 0 10.89.89.89.89 0 00-.89-.89m2.77 0a.89.89 0 10.89.89.89.89 0 00-.89-.89M35 25.93H1.56A1.56 1.56 0 010 24.37V1.56A1.56 1.56 0 011.56 0H35a1.56 1.56 0 011.56 1.56v22.81A1.56 1.56 0 0135 25.93"/><path class="cls-1" d="M21.03 7.77h10.56v6.99H21.03zm0 7.72h10.56v6.99H21.03zM17 12.1L11.8 15v6l5.2-2.85zm-11.23 6l5.17 2.92V15l-5.19-2.9zm.47-6.8l5.14 2.91 5.14-2.91-5.16-2.74zm11.64 0v7.06a.44.44 0 01-.23.39l-6.06 3.43h-.43l-6.07-3.39a.44.44 0 01-.23-.39v-7.06a.44.44 0 01.22-.34l6.06-3.28a.44.44 0 01.42 0L17.63 11a.44.44 0 01.22.38"/></g></g></svg>