<svg width="1920" height="1100" viewBox="0 0 1920 1100" fill="none" xmlns="http://www.w3.org/2000/svg">
    <g clip-path="url(#clip0)">
        <g clip-path="url(#clip1)">
            <path d="M1941.33 465.591C1791.68 484.825 1676.07 557.904 1526.03 526.759C1253.17 469.994 1028.12 157.56 753.345 135.488C595.401 122.818 430.039 220.341 274.506 181.153C102.733 137.641 -33.2381 28.9385 -154.594 -121.034C-193.65 -169.362 -247.908 -214.771 -308.5 -254C-290.749 -199.097 -274.879 -144.66 -263.884 -87.6319C-218.019 152.111 -177.683 392.917 -139.151 633.655C-114.925 785.33 -91.3122 937.536 -67.7765 1089.34C-52.19 1088.42 -37.3335 1085.56 -23.6293 1080.45C123.97 1026.45 213.628 941.405 370.222 930.347C635.346 911.675 882.697 1049.85 1147.47 1027.52C1247.6 1019.04 1376.81 964.444 1470.85 928.18C1564.9 891.916 1612.96 847.532 1713.2 867.563C1786.22 882.072 1878.93 848.134 1921.56 916.868C1951.5 897.468 1985.09 876.542 2035.99 858.079C2120.02 827.462 2237 833.939 2314.26 892.713L2360.71 745.244C2247.5 630.101 2086.4 446.82 1941.33 465.591Z" fill="url(#paint0_linear)"/>
            <path opacity="0.5" d="M1179.54 499.758C1179.79 497.82 1178.41 496.047 1176.47 495.797C1174.53 495.547 1172.76 496.916 1172.5 498.854C1172.25 500.791 1173.63 502.564 1175.57 502.814C1177.51 503.064 1179.29 501.695 1179.54 499.758Z" fill="white"/>
            <path opacity="0.5" d="M1123.71 991.878C1123.96 989.941 1122.59 988.168 1120.65 987.918C1118.71 987.668 1116.93 989.037 1116.68 990.974C1116.43 992.912 1117.8 994.685 1119.74 994.935C1121.68 995.184 1123.46 993.816 1123.71 991.878Z" fill="white"/>
            <path d="M576.668 684.098L574.437 688.291C574.305 688.422 574.305 688.553 574.174 688.553L569.974 690.78C569.448 691.042 569.448 691.828 569.974 692.09L574.174 694.317C574.305 694.448 574.437 694.448 574.437 694.579L576.668 698.772C576.931 699.296 577.718 699.296 577.981 698.772L580.212 694.579C580.344 694.448 580.344 694.317 580.475 694.317L584.676 692.09C585.201 691.828 585.201 691.042 584.676 690.78L580.475 688.553C580.344 688.422 580.212 688.422 580.212 688.291L577.981 684.098C577.718 683.705 576.931 683.574 576.668 684.098Z" fill="white"/>
            <path d="M182.923 449.225L181.586 451.746C181.507 451.825 181.507 451.903 181.429 451.903L178.911 453.242C178.597 453.4 178.597 453.872 178.911 454.03L181.429 455.369C181.507 455.448 181.586 455.448 181.586 455.526L182.923 458.047C183.081 458.362 183.553 458.362 183.71 458.047L185.047 455.526C185.126 455.448 185.126 455.369 185.205 455.369L187.722 454.03C188.037 453.872 188.037 453.4 187.722 453.242L185.205 451.903C185.126 451.825 185.047 451.825 185.047 451.746L183.71 449.225C183.553 448.989 183.081 448.91 182.923 449.225Z" fill="white" fill-opacity="0.4"/>
            <path d="M1279.06 709.836L1276.83 714.029C1276.7 714.16 1276.7 714.291 1276.56 714.291L1272.36 716.518C1271.84 716.78 1271.84 717.566 1272.36 717.828L1276.56 720.056C1276.7 720.187 1276.83 720.187 1276.83 720.318L1279.06 724.51C1279.32 725.035 1280.11 725.035 1280.37 724.51L1282.6 720.318C1282.73 720.187 1282.73 720.056 1282.87 720.056L1287.07 717.828C1287.59 717.566 1287.59 716.78 1287.07 716.518L1282.87 714.291C1282.73 714.16 1282.6 714.16 1282.6 714.029L1280.37 709.836C1280.11 709.443 1279.32 709.312 1279.06 709.836Z" fill="white" fill-opacity="0.7"/>
        </g>
    </g>
    <defs>
        <linearGradient id="paint0_linear" x1="1043.57" y1="343.28" x2="817.794" y2="866.513" gradientUnits="userSpaceOnUse">
            <stop stop-color="#322544"/>
            <stop offset="1" stop-color="#18141D"/>
        </linearGradient>
        <clipPath id="clip0">
            <rect width="1920" height="1100" fill="white"/>
        </clipPath>
        <clipPath id="clip1">
            <rect width="2027.62" height="1590.77" fill="white" transform="matrix(0.982044 -0.188652 0.189314 0.981917 -243.171 -189.77)"/>
        </clipPath>
    </defs>
</svg>