<svg width="485" height="154" viewBox="0 0 485 154" fill="none" xmlns="http://www.w3.org/2000/svg">
<g clip-path="url(#clip0)">
<path d="M4.49485e-07 133.441L3.81539e-07 113.27L26.4159 113.27C46.4459 113.27 52.9439 113.157 53.2959 112.804C53.7849 112.313 53.9833 101.504 53.5252 100.306C53.3143 99.755 50.5854 99.6927 26.6452 99.6927L3.35807e-07 99.6927L3.13594e-07 93.0982L2.91381e-07 86.5038L28.0258 86.5038C55.349 86.5038 56.1047 86.5238 58.1745 87.3004C60.7966 88.2844 63.9445 91.0616 65.1562 93.46C66.5106 96.1405 66.9099 99.1057 66.9099 106.481C66.9099 113.643 66.5053 116.842 65.3002 119.211C63.3997 122.948 59.3061 125.862 55.2876 126.339C54.2347 126.464 53.3732 126.619 53.3732 126.684C53.3732 126.749 54.9155 129.474 56.8005 132.74C58.6856 136.005 62.1604 142.038 64.5223 146.145L68.8167 153.612L61.1917 153.607L53.5666 153.601L45.8276 140.127L38.0886 126.652L25.6193 126.55L13.1499 126.448L13.1499 140.03L13.1499 153.612L6.57496 153.612L5.1743e-07 153.612L4.49485e-07 133.441ZM79.0991 151.39C79.6261 150.159 86.1251 135.099 93.5412 117.924L107.025 86.6977L113.764 86.5921L120.503 86.4866L134.69 119.37C142.493 137.457 148.989 152.56 149.125 152.933C149.356 153.564 148.87 153.612 142.248 153.612L135.124 153.612L132.226 146.921L129.328 140.229L113.832 140.128L98.3353 140.027L95.4635 146.722L92.5916 153.418L85.3662 153.524L78.1407 153.629L79.0991 151.39ZM123.377 126.634C123.377 126.311 114.171 105.07 113.924 104.822C113.805 104.703 113.653 104.679 113.586 104.768C113.479 104.91 109.258 114.686 105.391 123.748L104.068 126.846L113.723 126.846C119.033 126.846 123.377 126.751 123.377 126.634ZM162.44 133.455L162.44 113.27L169.015 113.27L175.59 113.27L175.59 126.846L175.59 140.423L195.461 140.423C211.769 140.423 215.41 140.328 215.77 139.894C216.086 139.512 216.179 133.88 216.107 119.626L216.007 99.8866L189.223 99.787L162.44 99.6874L162.44 93.086L162.44 86.4846L191.157 86.5912L219.874 86.6977L221.644 87.5724C224.52 88.9938 226.499 90.9641 227.883 93.7852L229.157 96.3791L229.157 120.05L229.157 143.72L228.023 145.967C226.641 148.703 224.224 151.009 221.296 152.386L219.101 153.418L190.771 153.529L162.44 153.641L162.44 133.455ZM247.528 133.441L247.528 113.27L280.983 113.27L314.438 113.27L314.438 119.861L314.438 126.453L287.654 126.553L260.871 126.652L260.871 133.441L260.871 140.229L287.654 140.329L314.438 140.428L314.438 147.02L314.438 153.612L280.983 153.612L247.528 153.612L247.528 133.441ZM343.434 153.094C339.397 152.205 335.755 149.272 334.022 145.513C333.206 143.743 333.196 143.413 333.196 119.864L333.196 96.0075L334.15 94.068C335.374 91.5818 338.081 88.8652 340.544 87.6509L342.478 86.6977L366.457 86.6977L390.437 86.6977L392.177 87.6235C395.932 89.621 398.301 92.5043 399.315 96.3109C399.886 98.4534 399.945 101.216 399.838 121.028L399.719 143.332L398.673 145.571C397.301 148.507 394.355 151.362 391.505 152.516L389.276 153.418L367.424 153.492C351.477 153.545 344.994 153.438 343.434 153.094ZM386.332 139.894C386.648 139.512 386.742 133.88 386.669 119.626L386.569 99.8866L366.457 99.8866L346.346 99.8866L346.245 119.839C346.167 135.544 346.249 139.857 346.632 140.101C346.9 140.272 355.844 140.414 366.507 140.417C382.412 140.422 385.973 140.328 386.332 139.894ZM418.09 120.058L418.09 86.5038L424.955 86.5312L431.82 86.5587L451.738 109.827L471.657 133.095L471.756 109.799L471.856 86.5038L478.428 86.5038L485 86.5038L485 120.058L485 153.612L478.439 153.612L471.878 153.612L451.656 130.065L431.433 106.519L431.334 130.065L431.234 153.612L424.662 153.612L418.09 153.612L418.09 120.058ZM247.528 93.0982L247.528 86.5038L280.983 86.5038L314.438 86.5038L314.438 93.0982L314.438 99.6927L280.983 99.6927L247.528 99.6927L247.528 93.0982ZM190.287 47.6124L190.287 35.8747L198.409 27.7355L206.531 19.5963L206.531 31.1332L206.531 42.67L218.227 42.67L229.923 42.67L221.615 51.0101L213.306 59.3501L201.797 59.3501L190.287 59.3501L190.287 47.6124ZM241.433 50.3278L233.604 42.4691L233.604 29.1867L233.604 15.9043L220.354 15.9043L207.104 15.9043L199.183 7.95214L191.261 -6.44248e-07L220.361 -7.4227e-07L249.462 -8.40292e-07L249.462 29.0932C249.462 45.0945 249.417 58.1864 249.361 58.1864C249.306 58.1864 245.738 54.65 241.433 50.3278ZM0.169308 54.8015C0.311881 54.423 4.96759 42.8106 10.5153 28.9962L20.6021 3.87909L28.008 3.87909L35.4139 3.87909L46.7142 29.3841C52.9294 43.4119 58.0144 55.0201 58.0144 55.1801C58.0144 55.3401 55.0121 55.4686 51.3427 55.4656L44.6711 55.4602L42.5382 50.3258L40.4054 45.1914L28.7751 45.0889L17.1447 44.9863L15.2367 50.1317L13.3286 55.2771L6.61933 55.3834C0.331292 55.4831 -0.0736416 55.4465 0.169308 54.8015ZM36.2405 35.2028C32.0982 25.01 28.3946 16.2922 28.2068 16.2922C28.0298 16.2922 23.494 28.0193 20.5924 35.9786C20.4545 36.3568 22.2129 36.4635 28.5842 36.4635L36.7528 36.4635L36.2405 35.2028ZM64.5893 29.6751L64.5893 3.87909L70.1138 3.87909L75.6384 3.87909L83.294 12.7683C87.5046 17.6574 91.2671 21.9457 91.655 22.2979C92.3249 22.9059 92.775 22.4573 100.575 13.4086L108.79 3.87909L114.343 3.87909L119.896 3.87909L119.896 29.6751L119.896 55.471L113.519 55.471L107.142 55.471L107.041 39.3285L106.94 23.1859L100.058 31.1824C94.1889 38.0025 93.0225 39.1751 92.1295 39.1536C91.2575 39.1326 89.9537 37.8038 84.327 31.2015C80.6114 26.8417 77.4351 23.2746 77.2686 23.2746C77.102 23.2746 76.9657 30.5188 76.9657 39.3728L76.9657 55.471L70.7775 55.471L64.5893 55.471L64.5893 29.6751ZM129.952 29.6751L129.952 3.87909L143.392 3.88419C155.191 3.88866 157.281 3.98167 160.506 4.64579C172.736 7.16376 180.366 15.9491 180.913 28.1435C181.51 41.417 175.083 50.5657 162.827 53.8898C158.234 55.1354 153.779 55.4644 141.458 55.4678L129.952 55.471L129.952 29.6751ZM156.218 45.5633C162.982 43.9644 166.725 39.6723 167.883 32.1877C168.625 27.3898 167.245 21.856 164.418 18.2954C163.798 17.5137 162.359 16.3141 161.221 15.6298C158.008 13.6969 155.387 13.1889 148.629 13.1889L142.715 13.1889L142.715 29.6751L142.715 46.1612L148.227 46.1555C151.774 46.1516 154.622 45.9407 156.218 45.5633V45.5633Z" fill="white"/>
</g>
<defs>
<clipPath id="clip0">
<rect width="485" height="154" fill="white"/>
</clipPath>
</defs>
</svg>
