<svg width="397" height="254" viewBox="0 0 397 254" fill="none" xmlns="http://www.w3.org/2000/svg">
<g clip-path="url(#clip0)">
<path fill-rule="evenodd" clip-rule="evenodd" d="M164.413 48.1531C167.632 46.8196 168.92 45.2284 172.793 45.1262C174.195 43.5661 178.755 42.9979 179.393 41.3272C179.863 40.0952 179.596 39.9686 180.846 39.2449C182.331 38.3847 184.768 38.0893 186.653 38.1771C189.709 38.3197 192.021 37.3762 192.64 38.8389C191.683 39.2711 191.045 39.094 190.285 39.7968C189.434 40.5844 190.009 40.1446 188.965 40.5765C188.1 40.9338 188.766 40.7665 188.132 41.1356C187.841 40.3172 186.954 39.4129 185.832 39.4121C185.65 39.4121 182.394 40.0143 182.284 40.0504C182.87 43.251 185.406 38.8427 187.053 43.6999C187.091 43.654 187.123 43.5084 187.137 43.5418C187.151 43.5753 187.201 43.4213 187.22 43.3867C187.67 42.5615 187.3 42.9017 187.688 42.6542C188.187 43.3632 188.575 44.8578 189.158 42.6021C190.219 43.6616 192.278 42.5885 194.447 41.9346C195.78 41.5321 198.582 40.3199 200.035 40.6C199.844 41.7674 198.309 42.0156 198.107 43.1663C199.1 43.0522 200.462 41.9297 201.7 41.5264C205.001 40.4514 208.662 40.746 211.892 40.8C213.743 40.8308 215.54 40.6407 217.392 40.8311C218.249 40.9102 219.054 41.0866 219.865 41.1987C221.484 41.4226 225.603 41.4036 226.537 43.0952C226.568 43.1503 226.645 43.3377 226.668 43.3894L226.787 43.695C228.153 43.3191 228.229 43.4734 229.594 43.7847C235.504 45.1319 230.517 45.5458 233.655 46.8105C238.16 48.6271 241.92 51.5602 242.719 51.927C244.168 52.5911 243.982 50.4384 247.607 53.032L254.103 57.1701C257.314 59.0297 259.645 63.7755 261.137 64.2952C260.261 62.948 256.717 59.5679 256.805 57.6194C259.633 56.69 261.973 61.3287 264.012 64.1366L269.539 73.0628C270.34 74.0385 269.828 72.921 270.206 74.0416C270.649 75.3561 271.373 76.2117 272.434 77.2711C272.945 77.7809 273.851 78.177 274.153 79.0931C275.344 82.697 276.662 81.3518 277.821 86.1372C278.341 88.2864 279.307 89.7073 279.648 91.8269C283.066 103.44 286.866 118.308 287.462 132.731C287.527 132.667 287.62 132.582 287.802 132.458C287.919 133.733 287.751 134.505 288.025 135.811C288.312 137.18 288.306 137.643 288.101 139.086C287.643 142.331 288.812 139.952 287.135 145.369L287.034 145.49C286.463 150.28 285.38 154.884 283.631 159.148C280.713 168.371 279.875 172.398 274.854 180.354C273.316 182.791 274.6 181.511 272.052 184.881L268.731 189.081C267.155 191.31 268.09 190.748 265.478 193.354C264.35 194.48 262.916 195.801 262.085 197.543L258.716 201.01C258.015 201.608 257.815 201.497 257.794 202.573C256.699 202.19 257.495 202.192 256.517 203.185C255.225 204.496 252.809 205.502 251.76 207.197C250.693 207.043 250.746 206.76 249.709 207.832C249.667 207.875 249.556 208.009 249.513 208.052L249.297 208.259C249.237 208.312 248.931 208.539 248.817 208.635C248.44 208.952 248.248 209.196 247.955 209.514C249.161 209.425 249.132 208.937 250.154 209.579L250.98 210.002C250.112 210.761 250.239 211.294 248.864 211.315C249.376 210.513 249.366 211.017 249.783 210.132C248.729 210.273 248.148 210.816 247.257 211.256C246.778 211.494 247.42 211.305 246.871 211.368C246.264 211.438 247.228 211.301 246.418 211.348C245.637 211.394 245.638 211.57 245.131 212.243L244.546 212.912C243.368 213.901 242.126 214.595 240.895 215.311C239.624 216.05 238.986 216.205 237.787 217.181C237.77 218.091 238.109 218.035 237.658 218.554L238.659 218.75C236.993 219.862 237.722 218.075 235.667 219.889C235.12 220.372 235.143 220.296 235.014 221.188L238.307 220.016C237.884 220.223 237.511 220.548 236.994 220.809C235.831 221.396 236.147 220.854 235.673 221.99C234.758 221.032 234.218 222.14 233.682 223.065C234.424 222.908 234.458 222.605 235.078 222.851C234.663 223.049 233.778 223.264 233.42 223.717C232.838 224.454 233.383 224.895 232.39 225.319L232.921 223.984C231.223 223.91 232.466 224.542 231.3 225.142C230.201 225.706 230.444 224.989 229.386 226.139C228.704 226.879 228.892 226.044 228.833 227.097C228.775 228.137 229.073 227.839 229.65 228.4L230.06 228.772C230.426 229.085 230.197 228.856 230.511 229.315C231.7 229.389 231.906 229.251 232.305 228.703C232.9 227.889 231.875 228.694 232.731 228.098C233.889 227.936 234.082 228.341 234.9 228.568C235.639 227.385 234.888 228.184 236.075 227.668C236.572 227.452 236.908 227.177 237.621 227.025C237.581 227.067 237.528 227.08 237.51 227.161C237.407 227.617 236.673 227.921 236.356 228.191C236.322 228.219 236.277 228.262 236.245 228.292C235.088 229.374 235.931 228.996 234.097 229.104C234.071 229.105 234.006 229.105 233.963 229.118L233.966 229.362C234.033 229.933 234.335 229.534 233.889 230.285C233.047 231.703 233.285 230.307 232.821 231.293C233.053 232.27 233.486 232.161 234.441 232.198L234.791 232.979C234.857 232.954 235.135 232.565 235.175 232.544C235.759 232.249 235.908 232.725 237.185 231.788C238.16 231.072 238.329 230.595 239.694 230.123C240.868 229.718 242.766 229.659 243.193 228.407C243.532 227.412 242.998 228.138 243.16 227.124C243.193 226.919 243.288 226.582 243.323 226.253L245.074 225.899C244.92 225.823 244.643 225.617 244.438 225.391C244.554 225.272 244.652 225.194 244.738 225.106L245.115 224.707C243.96 224.857 244.467 224.86 243.775 225.578L243.195 224.541L242.761 225.478C242.537 225.89 242.695 225.769 242.152 225.939C242.165 225.899 242.206 225.802 242.213 225.829L242.448 225.059C240.943 225.02 241.885 225.595 241.125 226.299C239.934 227.403 240.105 225.724 239.992 228.126C238.498 228.124 239.61 228.654 238.578 229.097C238.031 228.029 238.996 229.245 238.486 228.416C238.174 227.907 238.798 228.501 238.192 228.156C238.152 228.133 238.08 228.111 238.04 228.092C237.989 228.068 237.756 228.011 237.694 227.98C237.73 227.934 237.784 227.806 237.802 227.841L238.273 227.146C238.402 226.905 238.595 226.567 238.438 226.135C237.069 225.733 235.642 227.543 234.373 227.596C235.068 227.217 237.709 225.403 238.662 225.32C240.132 225.192 238.567 226.258 242.09 224.543C243.83 223.696 243.638 223.813 242.871 222.229C243.575 221.69 244.463 221.518 245.351 221.064C245.939 220.764 246.048 220.491 246.874 220.328C246.243 223.374 244.961 220.692 243.615 223.282C244.471 223.838 243.437 223.393 244.607 223.474C245.1 223.508 245.06 223.542 245.571 223.661C245.508 222.971 245.522 223.14 245.212 222.7L246.018 222.441C246.307 223.139 245.45 222.873 246.418 223.218C246.517 223.043 247.351 221.153 247.43 220.91C247.47 220.953 247.512 220.973 247.529 221.056C247.546 221.139 247.603 221.168 247.628 221.201C248.122 221.856 248.297 221.934 249.185 221.804C249.248 221.795 249.417 221.764 249.472 221.756C249.507 221.75 249.574 221.74 249.604 221.735C249.634 221.731 249.71 221.722 249.734 221.718C249.758 221.715 249.821 221.714 249.863 221.704C249.939 221.306 249.841 220.509 249.562 220.051C248.807 218.814 249.268 220.558 248.856 219.381C249.084 219.168 250.052 218.597 250.578 218.527L250.992 219.469L252.612 218.546C252.342 219.79 251.906 219.186 251.046 220.12C251.256 220.767 250.746 220.287 251.767 220.664C250.911 221.248 251.576 221.144 250.991 222.106L250.578 221.233L249.881 222.344C249.496 223.079 249.193 223.33 248.095 223.492C247.769 222.908 247.853 222.633 247.233 222.417C246.735 223.968 247.801 224.608 245.213 224.236L245.67 226.594C247.206 226.304 247.063 225.294 248.682 225.359C248.829 223.152 248.797 223.967 250.578 223.841C251.312 222.965 250.966 222.489 252.8 222.564C252.599 223.469 252.57 223.286 251.942 223.623L252.425 223.926C252.841 224.235 252.639 223.884 252.901 224.352L251.399 224.801L251.636 225.331C251.652 226.642 251.159 224.512 251.612 225.627C252.97 225.233 252.958 225.019 254.256 225.567L254.646 224.393C256.234 224.51 256.422 223.923 257.051 224.684C255.689 225.103 253.6 225.997 252.013 226.621C250.479 227.225 248.435 228.225 246.811 228.588C246.93 229.746 247.252 228.783 246.809 229.532C245.247 229.662 246.81 229.464 246.069 229.139C245.59 228.928 245.534 229.105 245.216 229.387C244.176 230.309 244.953 229.898 243.364 230.236C242.082 230.509 240.99 231.4 239.634 231.907C236.899 232.93 240.221 232.46 236.098 233.369C233.007 234.051 234.272 234.422 232.688 235.26C232.651 235.28 232.577 235.303 232.527 235.335C233.434 235.228 233.601 234.831 234.014 235.088C233.121 236.281 230.206 236.35 229.595 236.458C228.595 236.636 225.696 237.193 225.338 238.039C226.115 238.405 226.872 237.81 227.981 237.834C227.426 238.644 227.252 238.149 226.171 239.088L225.491 239.77C228.925 239.233 228.696 238.37 229.377 237.721C229.882 237.239 230.139 237.33 230.661 236.985L230.958 237.169C231.826 237.764 232.025 237.942 234.124 237.342C236.419 236.686 235.484 236.846 236.215 236.258C236.527 236.007 236.59 235.987 237.089 235.983L236.394 236.673L237.903 236.73L237.594 237.655C237.497 238.273 237.997 238.276 237.065 238.596C235.803 239.029 235.209 238.5 234.162 238.308C232.902 238.077 232.617 238.529 231.716 238.855C230.707 239.219 226.851 239.556 224.193 241.087C223.68 241.383 222.742 241.937 222.198 242.222C220.73 242.991 220.021 242.902 219.848 243.729L219.963 244.973C220.441 245.851 219.994 245.074 220.374 245.458C220.833 245.022 220.91 245.306 220.677 244.753C220.269 243.787 220.81 245.473 220.163 244.343C220.954 244.053 221.166 243.731 221.822 243.29C222.009 243.607 222.108 243.179 221.916 244.032C221.536 243.477 221.825 243.688 221.103 243.806L221.069 245.377C222.173 245.105 222.727 244.466 223.393 243.857C224.62 242.733 224.358 243.109 225.874 243.037C225.896 242.441 225.786 242.372 225.52 242.005L227.156 242.106C227.034 243.04 226.576 242.901 226.633 244.079C228.384 243.952 231.121 243.169 232.771 242.677C233.901 242.341 234.741 242.057 235.74 241.676C237.085 241.164 237.816 241.261 237.384 239.705L236.51 240.612C235.812 240.551 235.843 240.596 235.377 240.147C235.66 239.668 237.293 239.192 237.95 238.877C239.579 238.096 239.673 238.388 240.441 239.518C241.19 239.402 241.356 239.23 242.033 239.031C243.182 238.693 243.245 239.062 243.866 238.938C246.619 238.388 245.767 237.425 247.483 237.265C249.799 237.049 248.689 236.393 250.15 236.136C250.768 236.028 250.876 235.943 251.376 235.681C252.145 235.278 252.781 234.955 253.541 234.528C255.478 233.443 255.294 234.01 255.439 233.122C258.016 232.615 257.779 233.272 260.72 231.311L273.748 222.473C273.985 222.763 274.131 223.015 274.585 223.037C275.065 223.06 275.029 222.876 275.539 222.668C275.204 223.761 274.942 223.185 274.68 224.014C275.184 223.915 280.235 219.055 280.696 218.556C282.17 216.962 283.799 216.343 286.934 212.897C288.189 211.518 289.119 211.99 290.505 210.634C291.432 209.728 292.467 208.692 293.304 207.586C294.581 205.9 294.113 205.424 296.266 204.667C297.265 204.315 298.277 202.222 298.814 201.219C298.834 201.169 298.84 201.028 298.844 201.059C298.848 201.089 298.866 200.934 298.872 200.905C299.063 199.954 298.878 200.588 300.133 199.364C300.877 198.638 301.264 198.384 301.824 197.294C302.908 195.184 303.616 194.136 305.987 194.384C307.552 190.021 309.234 188.937 310.601 185.184C311.441 182.877 311.552 184.192 312.383 182.367C313.355 182.561 312.694 182.396 313.421 183.063L315.368 176.712C315.597 176.144 316.116 175.463 316.438 174.863C316.97 173.87 316.593 171.423 316.673 169.944C316.729 168.88 317.076 168.856 317.425 168.081C317.819 167.205 317.747 166.498 318.001 165.708C318.232 164.993 318.594 164.757 318.945 163.937C319.183 163.381 319.372 162.533 319.725 161.989C320.872 160.226 322.083 160.197 321.62 158.453C321.088 156.453 320.223 158.555 321.344 154.566C322.81 149.349 322.621 152.684 323.656 151.138C323.818 149.38 324.023 147.738 324.288 145.988L324.817 137.477C324.778 135.999 325.188 136.056 325.355 134.899C325.677 132.661 324.874 133.683 325.864 132.419C326.474 131.642 326.534 130.994 326.145 129.868C325.909 129.184 325.313 128.512 325.129 127.914L324.608 122.53C324.816 121.401 325.432 121.508 325.6 120.37C325.733 119.466 325.602 118.474 325.947 117.726C326.615 116.28 326.533 117.167 326.399 115.318C326.325 114.309 326.572 113.314 326.523 112.613C326.405 110.93 325.988 112.963 326.326 110.084C325.978 109.656 325.346 109.362 325.184 108.716C324.963 107.831 325.374 107.578 324.988 106.366L323.868 99.9179C323.79 98.5004 323.933 98.906 323.372 97.8857C322.663 96.5963 322.748 94.955 322.244 93.9617C321.752 92.6848 321.752 93.222 321.654 91.5734C321.596 90.6151 321.354 89.8263 321.069 89.0474C320.091 86.3672 320.427 86.1554 319.172 84.5768C319.464 83.6618 319.76 83.9336 319.46 83.1197C319.31 82.713 318.896 82.1926 318.717 81.5475C318.33 80.1502 318.937 80.739 317.904 77.7474C317.666 77.0605 317.429 76.7207 317.218 76.1315C316.99 75.4986 316.984 74.8512 316.721 74.2959C316.457 73.7382 316.093 73.5033 315.762 72.9575C315.432 72.4143 315.259 71.9862 315.037 71.3727L314.092 71.3822C314.394 70.3795 314.97 70.1909 314.573 69.1399C314.247 68.2774 313.673 68.1283 313.286 67.4852C311.908 65.1926 313.239 64.9228 310.428 61.5366C308.987 59.7998 310.761 60.8189 306.994 55.9708C303.254 51.158 305.706 52.6949 303.978 50.191C303.532 49.5459 303.311 48.9597 302.851 48.3854C302.262 47.6495 301.943 47.7985 301.283 47.0257C299.866 45.3672 300.622 46.3745 299.766 45.6249C299.053 45.0011 299.288 44.5073 298.685 43.7794C298.209 43.2058 297.596 43.129 296.786 42.6272C296.384 41.0216 297.703 40.3704 295.88 39.4627C294.528 38.7899 294.473 38.4584 293.662 37.3013C292.603 35.7922 291.339 33.2195 289.263 32.9823L289.118 32.6508C288.8 31.9438 289.092 32.1312 288.557 31.7477C288.152 31.4569 287.62 31.5139 287.006 31.4743C286.428 29.5243 285.728 29.3932 284.56 28.2372C283.346 27.0349 279.667 24.3162 278.129 23.4119C277.127 22.8223 277.259 22.5357 276.534 22.0621C275.827 21.5998 275.367 21.477 274.678 21.0209C273.382 20.1622 272.48 19.6357 271.251 18.8219C270.568 18.3703 270.111 18.035 269.366 17.7682C268.628 17.5036 267.641 17.5671 267.06 17.2059C265.806 16.4244 267.725 16.1906 260.057 12.7452C258.827 12.1925 249.336 7.99627 248.613 7.10031C247.928 6.25035 248.433 6.16444 246.992 5.8132C246.131 5.60337 245.454 5.50948 244.617 5.27418C243.25 4.89064 241.622 4.44893 240.143 4.16346C237.774 3.70617 237.441 4.26153 235.492 2.97747C234.23 2.14575 232.573 2.17958 230.92 1.96443C227.59 1.53071 226.571 2.00206 225.507 1.84469C224.391 1.2764 221.48 1.14412 220.029 1.40223C217.447 1.86142 215.22 0.533638 211.738 1.13044C210.197 1.39424 210.461 1.16693 209.289 0.824054C208.062 0.465215 192.248 0.201788 191.011 0.29948C187.829 0.550744 185.636 -0.456209 182.611 0.371324C181.443 0.69101 181.7 1.2726 180.861 1.95341C179.007 1.87168 180.985 1.36383 179.004 1.38588C177.814 1.39918 178.175 1.858 177.134 1.96101C170.131 2.65322 173.507 2.88852 171.545 3.26484C170.14 3.53435 168.887 3.30437 166.623 5.04687C166.27 5.12632 163.318 5.9147 163.148 6.00479C162.519 6.33854 162.652 6.66963 161.616 6.76998C160.705 6.85817 158.737 6.21614 156.078 7.45421C154.826 8.0377 154.687 9.08266 153.329 9.24194C151.871 9.41261 151.088 9.85014 149.751 10.0775L145.911 10.8244C145.524 11.0167 145.2 11.4702 144.754 11.7462C143.427 12.5677 142.395 11.9541 140.933 14.7598C139.438 14.7963 138.689 14.4037 137.336 15.1384C135.935 15.8987 136.116 16.367 135.874 18.0913C133.826 18.7652 131.62 19.3548 130.637 20.808C129.658 20.8605 128.255 21.7469 127.512 22.6227C125.314 25.2141 126.151 24.2751 124.428 24.7085C122.69 25.1449 122.726 26.7399 121.887 27.1968C120.462 27.9741 120.536 26.787 119.112 28.837C118.559 29.6334 118.7 28.9191 118.047 29.8516C116.244 32.4273 116.216 30.5814 112.814 33.5799L108.096 37.6122C107.568 38.1045 107.705 37.8977 107.398 38.5112C106.969 38.6279 107.288 38.4443 106.805 38.8355L105.314 40.4822C103.85 42.1194 104.438 40.9342 103.274 42.8257C102.339 44.3458 100.683 44.8677 98.8057 47.1294C97.4773 48.7302 96.1899 50.045 94.9804 51.8765C94.4779 52.6375 94.6477 52.4094 93.9945 52.9507C93.4547 53.3981 91.5043 55.7351 91.8136 57.083C89.8417 57.1321 90.6131 58.2128 88.9038 60.4376C87.2367 62.6078 85.1558 66.084 83.5961 68.0991C82.5332 69.4721 81.8416 70.2137 81.0701 72.1425C79.776 73.4026 77.6709 76.8857 77.1438 78.7962C76.7465 80.2354 76.4253 81.5989 76.0765 82.9627C75.8956 83.6709 75.6329 84.2757 75.3427 84.9919C74.8548 86.1953 75.0681 86.0117 74.8965 87.2928C74.7283 88.5487 74.425 87.8683 74.2385 89.212C74.0766 90.3794 74.156 90.303 73.7136 91.3358C72.6884 93.7279 73.692 94.6467 73.3282 95.5936C73.2141 95.8908 72.609 96.5511 72.3307 97.1019C71.8066 98.1389 72.0781 98.2328 71.8569 99.3116C71.6663 100.239 69.9805 102.425 71.3041 103.02C70.4177 103.634 70.5016 103.618 70.3573 104.922C70.1868 106.461 69.9297 111.001 71.0899 112.096L71.62 112.462C69.5642 115.37 70.0599 115.69 70.2207 118.937C70.2849 120.228 69.8868 120.435 69.8801 121.67C69.8697 123.486 70.3144 125.226 70.2521 127.158C70.1883 129.143 69.8342 130.776 70.0741 132.717C70.3856 135.239 72.1666 138.703 72.9962 141.375C74.0426 144.743 74.7533 146.858 75.2692 150.599C75.471 152.062 76.3212 154.203 76.1724 155.35C75.8594 157.762 74.3317 157.132 76.0463 159.552C77.5609 161.689 76.7711 166.385 78.439 169.988C79.0113 171.224 78.1454 170.182 79.0407 171.883L80.4083 174.917C81.0269 176.016 80.6713 176.324 81.0795 177.17C81.6021 178.252 83.3901 180.123 84.3836 182.451C84.9211 183.71 84.9607 183.149 85.9231 183.864C85.7351 184 86.0586 183.834 85.5076 184.104C85.2834 184.213 85.383 184.132 85.0901 184.286C85.1282 186.442 85.6628 185.926 85.9743 186.687C86.2242 187.299 85.5751 186.973 86.2399 187.738C86.6219 188.178 86.626 187.755 87.149 188.502C86.8177 188.787 86.4831 188.696 86.0373 188.639C86.116 190.001 89.3425 194.4 90.4266 195.05C91.6189 195.765 90.7131 195.618 91.7009 196.511C92.3721 197.117 92.5646 197.16 93.2036 197.927C93.8728 198.73 95.161 200.315 95.5796 201.205L96.4708 200.285C96.6976 201.677 96.7431 201.678 97.544 202.361C98.4782 203.157 98.3129 203.716 98.8676 204.17C99.7764 204.912 100.211 204.097 100.862 205.313C101.203 205.949 101.351 206.969 101.743 207.581C102.318 208.479 104.158 209.618 104.972 210.602C105.88 211.701 106.974 213.422 107.825 214.229C108.479 214.849 108.336 214.411 108.839 214.861L109.12 215.208C109.328 215.441 109.31 215.413 109.551 215.622C110.13 216.126 111.045 217.615 112.499 218.952L115.64 222.059C116.25 222.656 116.428 223.336 116.993 223.858L121.188 227.592C121.886 228.246 121.421 227.816 122.231 228.224C123.307 228.766 122.857 229.25 123.586 229.999C123.971 230.395 124.863 230.841 125.366 231.347C126.465 232.453 127.066 233.823 128.343 234.642C129.732 235.533 131.522 237.586 133.499 239.084C135.798 240.827 136.451 243.346 140.733 244.357L148.226 246.231C149.768 246.672 149.903 246.308 151.277 246.45C151.928 246.921 151.805 247.155 152.419 247.62C152.807 247.914 153.49 248.144 153.933 248.414C155.266 249.224 156.502 248.807 157.529 249.378C158.057 249.671 158.229 250.16 158.674 250.53C159.34 251.084 159.507 250.885 160.266 251.234C161.431 251.769 160.597 252.413 163.139 253.148C166.317 254.068 168.025 253.834 171.402 253.693C174.213 253.575 175.662 254.047 176.41 252.715C176.669 252.253 175.784 252.799 176.625 252.442C177.602 252.028 177.158 253.334 177.096 253.828C178.419 254.076 182.308 254.032 183.581 253.688C186.515 252.896 189.725 253.149 192.521 251.84C194.747 250.799 194.514 251.991 197.805 249.829C199.049 249.012 199.427 249.226 200.99 249.202C201.269 248.103 202.466 247.044 203.824 247.093C204.152 247.639 203.953 248.015 204.238 248.512C205.601 246.716 204.754 247.247 204.896 245.451C206.22 244.783 207.475 243.959 208.708 243.232C209.664 242.667 209.95 243.107 210.545 242.153C210.926 241.545 211.332 240.686 211.65 240.116C212.715 238.211 213.741 238.223 214.577 236.979C215.082 236.228 215.057 235.739 215.718 234.981C217.177 233.309 215.713 231.992 217.742 227.763C219.895 223.279 216.136 224.241 215.485 221.933C215.066 220.447 216.839 218.899 214.966 217.394C213.913 216.548 213.919 217.344 212.513 217.214C211.449 216.652 210.918 215.246 210.301 214.424C209.323 214.272 208.821 214.439 208.006 214.351L206.801 213.489C206.781 213.458 206.753 213.389 206.72 213.344C202.768 213.724 203.976 211.948 202.849 211.436C201.173 211.317 199.934 211.27 198.444 210.858C196.506 210.322 196.297 209.653 194.721 210.873C193.071 210.035 191.937 210.686 190.206 210.403C188.159 210.067 187.769 210.277 185.89 210.921C185.463 214 184.001 213.26 183.705 211.928C183.689 211.858 183.65 211.634 183.637 211.573L183.55 211.24C181.446 211.261 179.297 211.718 178.814 209.582C179.282 208.954 179.502 208.91 180.288 208.577L181.665 208.115C182.097 207.957 181.942 208.052 182.145 207.896C181.342 207.276 181.401 207.61 180.439 207.715C179.572 207.809 179.079 207.631 178.189 207.729C177.727 208.385 177.405 209.298 176.93 209.987C174.896 210.255 174.831 209.029 174.16 207.785C173.715 206.96 172.116 206.265 170.959 206.004C170.694 207.657 171.102 207.904 169.537 208.35C166.674 209.168 166.148 207.802 164.428 206.089C163.461 205.126 162.678 205.56 161.562 205.015L159.167 203.65C158.416 203.225 157.594 202.542 156.858 201.999C153.919 199.832 151.129 197.297 148.685 194.728C147.65 193.64 146.126 191.196 145.143 190.534C143.301 189.293 143.844 188.728 142.685 187.349C142.134 186.694 141.914 186.82 141.492 186.452C140.885 185.923 141.258 185.975 140.879 185.198C140.519 184.46 140.367 184.626 139.819 184.154C139.153 183.58 138.802 182.661 138.038 181.919C136.275 181.974 136.376 181.993 135.083 180.551C134.289 179.665 133.671 178.852 132.966 177.86L130.832 175.19C130.074 174.033 130.431 172.62 128.925 172.01C128.835 173.306 128.991 173.995 128.96 175.063C127.566 176.071 127.131 174.919 125.735 173.423C124.702 172.316 123.963 171.407 122.829 170.276C119.208 166.663 119.419 166.281 119.158 161.772C118.722 162.215 119.02 162.001 118.811 162.369C118.301 163.272 119.053 162.723 118.177 163.062C117.512 162.607 117.95 162.993 117.633 162.074C117.269 161.023 116.448 160.258 116.399 159.073C111.092 149.27 105.688 131.705 108.283 112.777C108.499 110.258 108.393 111.292 109.889 110.718C110.615 108.44 110.893 100.146 111.149 98.9447C111.737 96.1949 114.525 90.1597 114.558 89.3736C116.026 87.9435 115.189 86.7956 118.979 83.7074C120.192 82.7187 120.549 82.567 121.474 81.1917C122.224 80.0761 122.817 79.3071 123.529 78.2306C124.277 77.0997 125.106 76.5424 125.952 75.6381C128.358 73.0681 127.23 73.5748 129.702 71.8642C130.288 71.4594 130.922 71.2336 131.299 70.9763L133.633 68.1884L138.268 64.153L150.864 55.2767C151.793 54.7152 152.871 54.2906 153.657 53.717L153.754 53.3494C153.769 53.3012 153.829 53.0693 153.852 53.0096C154.108 52.336 154.282 52.2935 155.617 51.667C156.587 51.212 157.413 50.8338 158.459 50.37C160.108 49.6398 163.325 49.0548 164.413 48.1531H164.413V48.1531ZM211.153 39.6528C212.167 39.4718 211.821 39.2502 212.859 38.9719C213.404 38.8256 214.184 38.7568 214.886 38.6705L215.025 37.992C212.304 35.3163 211.678 37.5545 210.028 36.7475C207.899 35.707 206.198 36.5414 204.326 35.9659C203.579 35.7367 202.275 34.3952 199.26 35.4508C197.475 36.0758 195.298 35.363 193.077 35.3866L193.654 37.4503C194.405 37.3644 197.188 36.8185 197.808 37.1477C197.321 38.022 196.191 37.6864 194.699 37.7232C193.348 37.7571 193.809 37.7837 193.687 37.9327C192.684 39.8052 196.849 39.2213 198.008 39.0301C202.257 38.3295 201.764 37.6826 202.604 39.4182C203.715 39.522 204.129 39.4209 205.114 39.2928C206.34 39.1331 207.937 40.0538 210.087 39.8147C211.37 39.6721 210.381 39.2152 211.153 39.6524V39.6528V39.6528ZM131.912 190.05C131.421 189.776 131.668 189.293 131.111 188.604C129.269 186.329 130.414 188.749 129.43 185.062C129.168 184.08 128.8 183.943 128.711 183.021L129.976 182.186C129.775 181.083 129.75 182.29 129.157 179.881C128.937 178.984 128.37 178.634 127.337 178.669C126.256 180.218 126.623 181.173 125.378 181.568C125.206 181.19 124.97 180.615 124.813 180.016C124.485 178.771 124.798 179.728 125.222 178.654C121.921 178.216 122.835 179.792 123.978 181.327C124.836 182.479 125.544 183.699 126.349 184.602C127.224 185.583 130.882 190.027 131.912 190.05H131.912V190.05ZM252.151 229.819C252.177 228.782 252.19 229.353 252.459 229.021L253.021 228.554C252.229 228.087 250.496 230.236 249.967 230.672C249.176 231.323 247.248 232.558 245.873 231.926C246.271 231.519 247.769 231.141 248.354 230.922C248.037 230.689 248.377 230.81 247.853 230.715C247.545 230.659 247.428 230.673 247.11 230.703C241.888 231.2 244.137 233.175 240.031 235.085C241.147 235.788 243.738 234.073 244.496 233.532C245.925 232.512 247.997 232.654 249.862 233.136C249.017 233.949 248.998 233.398 248.218 233.824C249.692 235.097 250.895 234.36 251.835 233.191C251.355 232.873 251.003 233.38 250.022 232.505C250.374 231.771 257.869 228.119 258.803 227.361C255.605 227.142 256.65 228.145 255.25 228.476C253.359 228.922 253.37 230.507 252.151 229.819L252.151 229.819V229.819ZM244.414 214.677L244.208 215.787C244.908 215.95 244.716 215.817 244.932 215.826C245.641 215.853 245.251 215.702 245.571 215.906C245.085 216.858 245.306 215.263 244.239 216.597C243.25 217.833 243.757 216.935 242.785 217.668C242.527 217.861 242.379 218.055 242.322 218.464L242.376 219.193C242.554 219.985 242.672 220.199 243.752 220.735C244.229 220.171 244.34 220.062 243.899 219.489C243.951 219.461 244.038 219.377 244.062 219.423C244.063 219.423 244.549 219.364 244.774 218.857L243.771 218.716C245.753 218.135 245.874 218.568 247.925 217.422C249.148 216.738 250.225 215.885 251.372 215.229C250.441 214.749 250.791 215.594 250.317 214.641C250.554 214.163 250.476 214.413 250.75 214.15C250.901 214.005 250.804 214.262 251.173 213.788L248.937 214.826C248.616 214.199 248.02 213.437 249.275 213.411C250.433 213.387 250.748 213.84 251.04 212.419L247.214 213.705C246.365 214.083 247.129 213.511 246.442 214.208C244.928 215.743 245.429 215.226 244.415 214.677H244.414V214.677Z" fill="url(#paint0_linear)"/>
<path fill-rule="evenodd" clip-rule="evenodd" d="M0 105.45H26.2732C29.5113 105.45 51.2698 104.987 52.3371 105.729C52.9183 106.365 52.7008 107.733 52.6997 108.899C52.6982 110.864 53.0254 118.011 52.3393 118.606C51.2489 119.166 5.49503 118.84 0 118.84V159.186L13.2034 159.176L13.2041 132.324L37.48 132.29L52.7236 159.176L67.9179 159.19C67.0681 156.779 53.376 134.007 52.9437 132.304C57.7538 132.156 60.7747 129.965 62.8948 127.454C65.8012 124.01 65.9515 120.831 65.9515 115.434C65.9515 106.714 67.556 97.576 58.2585 93.1681C54.5907 91.429 49.2023 91.9388 44.6854 91.9388H0.00037305V105.45L0 105.45V105.45ZM160.866 105.369L206.377 105.452C205.826 106.349 201.013 110.339 199.827 111.413C198.801 112.341 197.708 113.324 196.604 114.236L180.146 128.671C174.808 133.085 169.086 138.637 163.805 143.006C163.206 143.501 162.736 143.987 162.128 144.459C161.458 144.978 160.936 145.196 160.867 146.404C160.643 150.32 160.883 155.104 160.881 159.12L226.782 159.139L226.784 145.743L181.258 145.7C181.721 144.898 186.569 140.866 187.631 139.882C188.688 138.901 189.727 138.055 190.863 137.064C191.956 136.112 193.059 135.058 194.2 134.138L199.108 129.865C204.805 124.762 212.149 118.727 217.325 113.853L223.877 108.094C225.37 106.853 226.735 106.026 226.8 104.701C226.977 101.061 226.936 95.6716 226.756 92.0163C221.48 91.7776 215.721 91.9889 210.392 91.9889C203.015 91.9889 162.297 91.6613 160.874 92.1444L160.866 105.369V105.369ZM396.994 159.139V91.9612L383.899 91.9631L383.791 138.289C382.677 137.685 362.551 113.365 360.902 111.529C356.479 106.601 351.038 99.4212 346.743 94.7585C346.249 94.2233 345.803 93.6987 345.292 93.0734C344.721 92.3763 344.721 91.9551 343.43 91.9449C339.527 91.9152 334.994 91.7787 331.148 91.9821L331.042 159.043L344.292 159.141L344.295 112.764C345.181 113.351 374.418 148.23 378.698 153.261L383.754 159.101L396.994 159.139V159.139V159.139ZM245.175 159.136L311.076 159.193L311.068 145.709L287.065 145.719L258.476 145.698L258.395 132.337L286.833 132.315L311.1 132.225L311.081 118.846L285.606 118.873L245.174 118.838L245.175 159.135L245.175 159.136V159.136ZM116.554 159.151L118.906 159.109C118.95 146.418 118.978 148.668 118.9 134.405C118.884 131.445 119.598 131.202 122.228 127.622C123.791 125.493 147.091 92.8921 147.384 91.9939L131.103 91.9905L112.333 118.411C111.711 117.738 108.726 113.628 108.438 112.854C107.458 111.977 105.541 108.877 104.65 107.665C103.349 105.897 102.182 104.297 100.984 102.547C100.046 101.177 93.9527 92.8621 93.7721 92.0634L77.3367 91.9893C77.6053 92.8689 94.9573 117.257 96.9423 119.948C98.6714 122.292 100.248 124.639 101.893 126.916C102.784 128.149 103.462 129.153 104.317 130.349C105.766 132.378 105.721 131.845 105.713 135.037C105.694 142.803 105.377 151.401 105.718 159.07L116.554 159.15L116.554 159.151V159.151ZM245.19 91.9817L245.148 105.455L283.415 105.474L311.093 105.393L310.995 91.8912L245.19 91.981V91.9817Z" fill="white"/>
</g>
<defs>
<linearGradient id="paint0_linear" x1="124.641" y1="213.722" x2="264.569" y2="71.9196" gradientUnits="userSpaceOnUse">
<stop stop-color="#9D141C"/>
<stop offset="0.6" stop-color="#C04215"/>
<stop offset="1" stop-color="#E4700D"/>
</linearGradient>
<clipPath id="clip0">
<rect width="397" height="254" fill="white"/>
</clipPath>
</defs>
</svg>
