<svg width="300" height="230" viewBox="0 0 300 230" fill="none" xmlns="http://www.w3.org/2000/svg">
<g clip-path="url(#clip0)">
<path d="M297.014 178.458C300.316 155.247 302.037 130.86 295.995 107.995C291.569 91.9793 284.227 76.1017 274.496 61.7115C273.162 68.1456 247.939 191.119 247.939 191.119H210.738V213.361H212.564V229.896C249.731 229.343 290.164 220.211 297.014 178.458Z" fill="#F7E9E1"/>
<path d="M51.5691 68.2494L51.7096 68.4915C51.8501 67.5921 52.0258 66.6927 52.2365 65.7934C51.6393 66.0009 51.0773 65.9317 50.6206 65.6896C50.9016 66.589 51.1475 67.4883 51.3583 68.3877L51.5691 68.2494Z" fill="#F7E9E1"/>
<path d="M51.5691 69.3563C51.6043 69.1488 51.6394 68.9412 51.6745 68.7336L51.4637 68.872C51.4989 69.045 51.534 69.2179 51.5691 69.3563Z" fill="#F7E9E1"/>
<path d="M146.03 112.665C145.047 112.838 144.134 112.907 143.255 112.873C143.22 112.907 143.22 112.907 143.185 112.942H151.792C150.422 112.665 148.595 112.458 146.03 112.665Z" fill="#F7E9E1"/>
<path d="M163.665 167.285C164.262 164.656 166.335 162.373 170.129 161.681C170.129 161.405 170.129 161.128 170.129 160.851C172.272 160.644 174.485 160.402 176.768 160.056C176.557 155.559 176.347 152.134 176.206 150.854C175.995 148.779 175.96 146.911 176.066 145.216C175.855 144.282 175.714 143.279 175.679 142.172C175.363 132.417 173.817 120.448 172.201 110.347C171.393 109.621 170.656 108.825 169.953 107.926C169.707 114.291 171.183 120.414 172.482 128.681C173.15 132.901 158.466 131.241 155.972 125.81C155.691 125.187 155.34 124.115 154.988 122.731H141.92L148.349 216.648C153.443 198.729 158.571 180.119 160.152 173.754C160.328 173.062 160.539 172.439 160.749 171.851C161.066 170.156 162.014 168.496 163.665 167.285Z" fill="#F7E9E1"/>
<path d="M196.019 154.21C217.763 142.621 207.295 126.017 194.192 118.131C194.508 128.577 194.473 138.574 194.087 143.071C194.016 143.763 193.946 144.42 193.806 145.043C193.841 148.294 193.665 152.203 193.384 156.389C193.841 156.251 194.297 156.112 194.754 155.974C194.895 155.213 195.281 154.59 196.019 154.21Z" fill="#F7E9E1"/>
<path d="M50.1288 86.583C50.1639 84.4037 50.2693 82.2244 50.4098 80.0797C49.6019 81.2558 48.5129 82.2244 47.0375 82.9508C47.2482 84.1615 47.459 85.3722 47.6347 86.6175H50.1288V86.583Z" fill="#F7E9E1"/>
<path d="M168.337 200.424C165.422 210.075 160.995 220.038 156.85 228.582C162.401 228.686 167.986 228.824 173.536 228.962C171.956 219.553 170.164 209.176 168.513 199.836C168.443 200.078 168.372 200.251 168.337 200.424Z" fill="#F7E9E1"/>
<path d="M206.628 213.396V191.154H189.696C189.028 196.377 188.536 199.871 188.536 200.182L186.991 199.94C186.674 201.739 186.288 203.434 186.288 204.644C185.726 207.792 184.005 209.107 183.794 211.701C183.829 212.22 183.829 212.739 183.864 213.223C184.005 214.157 184.286 215.264 184.848 216.613C185.796 219.761 185.234 221.56 184.04 222.251C184.04 224.673 184.04 226.991 184.005 229.239C186.85 229.308 189.66 229.412 192.506 229.516C196.511 229.723 200.621 229.862 204.836 229.931V213.396H206.628Z" fill="#F7E9E1"/>
<path d="M134.227 122.766H53.0094L49.5316 156.735C49.6721 157.046 49.8478 157.357 49.9883 157.669C49.9883 157.669 49.9883 157.703 50.0234 157.703C50.3044 158.326 50.6206 158.983 50.9016 159.606C50.9719 159.744 51.0422 159.883 51.0773 160.021C51.3232 160.54 51.5691 161.093 51.7799 161.612C51.8501 161.751 51.9204 161.889 51.9555 162.027C52.2014 162.581 52.4473 163.134 52.6932 163.688C52.7283 163.792 52.7986 163.895 52.8337 163.999C53.1148 164.656 53.3958 165.348 53.6768 166.005C61.3349 184.547 66.6393 204.817 72.1546 224.396C74.2623 224.811 76.4754 225.192 78.7588 225.503C76.4754 214.572 73.8407 202.154 71.8384 192.849C71.3466 190.358 70.8548 187.867 70.4333 185.342C69.6604 181.537 68.9227 177.248 68.9227 173.996C68.6768 172.405 68.993 170.779 69.8712 169.776C70.0468 169.534 70.2576 169.326 70.4684 169.188C70.5035 169.188 70.5738 169.153 70.6089 169.153C71.3466 168.738 72.2951 168.634 73.4895 168.98C73.5246 168.98 73.5597 169.015 73.5948 169.015C75.7026 169.326 77.5293 170.433 79.1101 172.024C80.726 173.581 81.9906 175.587 82.9391 177.697C83.5363 178.943 83.993 180.188 84.3443 181.364C84.555 181.987 84.7658 182.609 84.9414 183.267C85.0117 183.44 85.0468 183.647 85.1171 183.82C85.2576 184.27 85.3981 184.719 85.5386 185.169C85.6089 185.411 85.6792 185.653 85.7494 185.861C85.8548 186.242 85.9953 186.657 86.1007 187.037C86.171 187.314 86.2412 187.556 86.3115 187.833C86.4169 188.213 86.5222 188.559 86.6276 188.94C86.6979 189.216 86.7681 189.493 86.8735 189.77C86.9789 190.116 87.0492 190.462 87.1546 190.808C87.2248 191.119 87.2951 191.396 87.4005 191.707C87.4707 192.053 87.5761 192.364 87.6464 192.71C87.7166 193.021 87.822 193.333 87.8923 193.644C87.9625 193.955 88.0679 194.301 88.1382 194.613C88.2084 194.924 88.2787 195.235 88.3841 195.581C88.4543 195.893 88.5597 196.239 88.63 196.55C88.7002 196.792 88.7354 197.034 88.8056 197.276C89.8244 201.635 90.7728 206.028 91.651 210.421C92.3185 213.707 93.6534 220.66 94.8126 226.887C94.9532 226.887 95.0585 226.887 95.1991 226.887C111.815 227.579 128.466 227.959 145.117 228.34C145.117 228.305 145.152 228.236 145.152 228.201L134.227 122.766Z" fill="#F7E9E1"/>
<path d="M40.2588 196.273L41.1019 183.855C37.7998 175.76 34.3571 167.977 30.9145 160.955C30.493 159.987 30.0363 159.018 29.6147 158.015C28.6663 156.009 27.226 152.376 26.1019 148.433C26.0316 148.122 25.9262 147.845 25.856 147.534C25.856 147.499 25.856 147.499 25.8208 147.464C25.7154 147.084 25.6101 146.738 25.5398 146.358C25.4695 146.046 25.3993 145.769 25.329 145.458C25.329 145.424 25.329 145.389 25.2939 145.354C24.8723 143.486 24.5211 141.618 24.3805 139.889C23.959 137.883 24.0995 136.049 24.6967 134.562C25.2588 132.659 26.3829 131.379 28.3852 131.103C30.0012 130.687 31.9684 130.999 34.1464 132.348C35.7623 133.42 37.0269 134.942 38.1159 136.533C39.8021 138.747 41.2424 141.203 42.5773 143.694C42.9637 144.317 43.315 144.974 43.7014 145.597L45.2822 122.766H18.1979V115.294H104.334V112.907L89.685 75.6176H112.308L126.957 112.907H137.987C133.526 109.587 129.486 99.2437 131.278 92.5675C132.612 85.8221 141.886 80.2528 148.385 79.2843C148.491 79.1805 148.631 79.0767 148.737 79.0075C153.655 76.0327 159.697 76.2402 164.474 78.9038C165.879 78.6962 167.425 78.4541 169.076 78.2465C169.463 78.1773 169.849 78.1427 170.2 78.1427C173.292 74.9257 177.858 73.0232 184.111 73.5075C238.35 77.7622 246.746 139.162 242.811 161.82C241.898 167.147 240.388 171.194 238.491 174.135C238.174 174.861 237.648 175.553 236.98 176.176C235.048 178.459 232.765 179.842 230.306 180.569H243.69C244.498 175.276 262.765 54.1015 262.765 54.1015C263.186 52.2682 264.17 50.7807 265.434 49.7776C260.411 43.6894 254.896 37.9472 248.994 32.7239C244.427 36.5981 237.929 37.7397 230.165 34.5918C226.687 32.966 224.193 30.4062 222.367 27.3968C219.626 30.3371 216.922 33.3119 214.252 36.2522C219.872 34.1421 225.879 46.526 220.224 50.0543C212.987 53.2713 208.631 45.7995 210.985 39.9189C208.42 42.7901 205.961 45.592 203.713 48.1864C203.819 48.3247 203.924 48.4285 203.994 48.6015C207.788 55.5198 195.669 66.5199 191.699 56.8689C189.767 52.2336 194.088 47.7021 198.69 47.1832C200.165 46.8719 202.167 46.7681 203.362 47.8404C205.364 45.4536 207.507 42.963 209.72 40.4724C205.926 42.2712 200.587 42.2366 198.971 38.6736C196.477 30.1295 207.367 27.1546 212.636 32.7931C213.549 33.9 213.865 34.9723 213.76 36.0101C216.5 33.0352 219.275 30.0257 222.121 27.0854C221.137 25.425 220.399 23.5917 219.802 21.6891C218.678 21.2049 217.765 20.4438 217.238 19.3023C216.465 16.7079 216.957 14.6324 218.151 13.145C218.116 12.8337 218.081 12.5223 218.081 12.2456C212.811 9.75501 207.367 7.67951 201.746 5.98452C202.694 6.64176 203.502 7.85247 204.029 9.7896C205.821 15.428 200.622 23.9376 194.509 18.7143C190.434 15.6702 192.261 10.2047 195.423 7.299C190.399 9.72042 185.2 12.2802 180.247 14.7362C185.657 16.1891 184.814 29.1263 178.315 29.576C171.57 29.0572 170.481 22.4847 173.573 18.0916C170.692 19.5099 168.022 20.8589 165.563 22.0351C168.374 27.881 154.779 33.5541 151.441 27.6043C148.21 19.3023 158.819 15.428 164.544 20.6168C164.896 20.9627 165.177 21.3086 165.388 21.6891C168.233 20.1671 171.324 18.5759 174.521 16.9501C174.802 16.6733 175.118 16.3966 175.434 16.1545C170.938 16.5696 165.001 13.9406 165.317 9.54746C167.249 0.86495 178.28 3.35555 180.177 10.7928C180.493 12.4878 180.071 13.7331 179.228 14.5978C179.263 14.5978 179.263 14.5978 179.299 14.5978C185.165 11.7267 191.313 8.82103 197.214 6.08829C197.53 5.91533 197.847 5.77697 198.163 5.6386C198.479 5.50023 198.795 5.32728 199.111 5.18891C197.987 4.84299 196.863 4.53167 195.739 4.22034C145.926 -9.09745 82.7646 10.0317 41.945 48.6706C44.4391 52.2682 47.3899 57.3532 49.4625 62.5419C49.8489 62.4035 50.4461 62.5073 51.3595 62.957C51.9567 63.4067 52.308 63.9602 52.5187 64.5136C52.9403 62.5765 53.4672 60.6394 54.0293 58.7022C50.8325 59.5324 49.3923 52.7179 53.3969 55.7619C53.9941 56.3846 54.2752 57.111 54.3454 57.7683C54.9777 55.7965 55.6803 53.7902 56.4883 51.7493C53.3969 51.5072 53.3969 44.7618 56.6288 48.7398C56.9098 49.2241 57.0855 49.743 57.1206 50.2273C57.6827 48.8782 58.315 47.4945 58.9824 46.1109C55.7506 45.592 56.5234 38.5353 59.2986 43.1014C59.5445 43.724 59.6499 44.3121 59.6147 44.831C60.0363 44.0008 60.4578 43.2052 60.9145 42.375C59.8958 38.985 65.5164 36.356 63.4087 41.3718C62.7763 42.375 61.8981 42.7901 61.2307 42.7209C60.5632 43.9662 59.9309 45.1769 59.3688 46.3876C61.5468 44.2429 65.6218 47.9442 61.1604 48.5669C60.0714 48.5323 59.3337 47.9442 58.9473 47.2524C58.2447 48.7398 57.6124 50.1927 57.0503 51.6109C58.9824 49.3279 63.3033 52.2682 59.0176 53.5827C57.9286 53.721 57.0855 53.2367 56.6639 52.6141C55.856 54.6896 55.1534 56.7651 54.5211 58.806C56.5585 56.2808 61.055 59.9129 56.5234 60.7777C55.4695 60.7777 54.6967 60.2589 54.3103 59.6016C53.7482 61.5733 53.2564 63.5105 52.8349 65.4476C54.3805 62.957 59.0176 64.825 55.048 67.0734C54.0293 67.4193 53.151 67.1772 52.589 66.6583C52.3079 68.0074 52.0972 69.3219 51.8864 70.6709C51.9918 71.4666 52.0972 72.2276 52.1323 72.9886L52.3079 72.8848L52.5187 73.2999L52.1323 73.5421C52.1674 75.6867 51.8161 77.6585 50.9379 79.3189C50.7623 81.7403 50.6569 84.1963 50.6218 86.6177H54.0293C54.6967 85.0611 55.4344 83.5045 56.2424 81.9478C52.9403 82.4667 52.0972 75.41 55.8208 78.9729C56.418 79.7686 56.6288 80.6679 56.5585 81.3598C57.4016 79.7686 58.315 78.2119 59.2635 76.7245C55.8911 76.6899 56.0667 69.4602 59.2283 73.6804C59.7201 74.5798 59.7904 75.5138 59.5796 76.2056C60.2822 75.1333 61.0199 74.0955 61.7225 73.127C58.6663 72.02 60.3173 65.3438 62.4602 70.2213C62.6358 70.8785 62.6709 71.5011 62.5304 72.0546C63.4087 70.9477 64.2869 69.9445 65.1651 69.0797C62.1791 67.5577 64.6382 61.0545 66.219 66.3124C66.3243 67.108 66.219 67.7652 66.0082 68.3187C66.7459 67.6615 67.4836 67.108 68.1862 66.6929C68.0457 63.0954 74.0527 62.4035 70.8208 66.5199C69.9426 67.281 69.0293 67.4193 68.3618 67.1426C67.4133 67.6961 66.4297 68.5263 65.411 69.5294C68.0457 68.042 71.137 72.9886 66.6756 72.1584C65.6218 71.7779 64.9895 70.9131 64.8489 70.1175C64.041 70.9823 63.233 71.9508 62.425 72.9886C64.8138 71.8125 67.87 75.7213 63.5843 75.6521C62.5656 75.4446 61.8981 74.7874 61.582 74.0955C60.9496 74.9603 60.3173 75.8943 59.685 76.8629C62.2494 75.3754 65.411 80.0799 60.9496 79.4918C59.966 79.1805 59.3688 78.4887 59.1229 77.7622C58.3852 78.9729 57.6475 80.2182 56.9801 81.4981C59.1581 80.2874 62.3548 83.2623 58.2798 84.0579C57.3314 84.0579 56.5937 83.6428 56.1721 83.0894C55.5749 84.2655 55.0129 85.4762 54.5211 86.6523H57.507C57.3665 88.2089 57.0855 91.4951 56.7693 95.3348C56.3478 100.489 55.8208 106.646 55.5047 110.417C55.329 112.665 55.1534 114.429 55.0831 115.398H45.8442L43.4204 86.6523H47.0386H47.2845C47.1089 85.4762 46.9332 84.3347 46.7576 83.1931C46.3361 83.3661 45.9145 83.539 45.4578 83.6774C36.4649 83.3315 35.0597 70.1867 32.2143 60.7431L32.144 60.5702C32.0386 60.1897 31.8981 59.8092 31.7927 59.4287C14.404 79.1805 2.84658 103.049 0.703726 129.615C-0.385267 137.191 -0.174494 144.732 1.23066 152.065C18.9356 160.229 31.2658 176.971 40.2588 196.273Z" fill="#F7E9E1"/>
<path d="M44.4379 205.993C45.5972 208.899 46.6862 211.839 47.7049 214.78C49.8126 216.129 51.9204 217.305 54.0983 218.377C51.4286 210.802 48.548 202.915 45.562 195.097L44.4379 205.993Z" fill="#F7E9E1"/>
<path d="M56.8735 81.4288C57.541 80.1489 58.2787 78.9036 59.0164 77.6929C58.9812 77.5891 58.9461 77.4508 58.911 77.347C59.1218 77.1048 59.3325 76.9319 59.5784 76.7935C60.2108 75.825 60.8431 74.891 61.4754 74.0262C61.4403 73.9224 61.4051 73.8186 61.37 73.7149C61.651 73.3344 61.9672 73.0576 62.3185 72.8847C63.1264 71.8123 63.9344 70.8437 64.7424 70.0135C64.7424 69.979 64.7072 69.9444 64.7072 69.8752C64.918 69.6676 65.0937 69.5293 65.3044 69.3909C66.3232 68.3532 67.3419 67.5575 68.2553 67.0041C68.2201 66.9695 68.1499 66.9695 68.1147 66.9349C68.0796 66.7965 68.0796 66.6927 68.0796 66.5544C67.377 66.9695 66.6745 67.523 65.9016 68.1802C65.7611 68.5607 65.5503 68.872 65.3044 69.045C65.2342 69.0104 65.1639 68.9758 65.0937 68.9412C64.2154 69.806 63.3372 70.8092 62.459 71.9161C62.3536 72.4004 62.178 72.8155 61.9321 73.0922C61.8267 73.0576 61.7213 73.023 61.651 73.023C60.9133 73.9916 60.2108 75.0293 59.5082 76.1017C59.473 76.2746 59.4028 76.4476 59.3325 76.6206C59.2974 76.6206 59.2623 76.6206 59.192 76.6206C58.2435 78.108 57.3302 79.6646 56.4871 81.2558C56.452 81.4634 56.4168 81.6364 56.3817 81.8093C56.4871 81.7055 56.6979 81.5326 56.8735 81.4288Z" fill="#4A6144"/>
<path d="M56.0656 83.02C55.9602 82.8816 55.89 82.7779 55.8197 82.6395C55.9602 82.3282 56.1359 82.086 56.3466 81.8785C56.2764 81.8785 56.2061 81.9131 56.171 81.9131C55.363 83.4697 54.6253 85.0263 53.9579 86.583H54.4146C54.9064 85.4068 55.4684 84.1961 56.0656 83.02Z" fill="#4A6144"/>
<path d="M68.1499 67.0041C68.185 67.0387 68.2553 67.0387 68.2904 67.0733C68.9578 67.35 69.8712 67.2462 70.7494 66.4506C73.9813 62.3342 67.9742 63.026 68.1147 66.6236C68.1147 66.7619 68.1147 66.8657 68.1499 67.0041Z" fill="#4A6144"/>
<path d="M65.9368 68.2493C66.1476 67.7305 66.253 67.0386 66.1476 66.243C64.5668 60.9851 62.1429 67.5229 65.0937 69.0104C65.164 69.045 65.2342 69.0795 65.3045 69.1141C65.5855 68.9412 65.7963 68.6299 65.9368 68.2493Z" fill="#4A6144"/>
<path d="M64.7424 70.0482C64.8829 70.8438 65.5152 71.7085 66.5691 72.0891C71.0305 72.9192 67.9391 67.9727 65.3045 69.4601C65.0937 69.5639 64.8829 69.7368 64.7073 69.9444C64.7073 69.979 64.7424 70.0136 64.7424 70.0482Z" fill="#4A6144"/>
<path d="M62.4942 71.9852C62.5995 71.4663 62.5996 70.8437 62.4239 70.1519C60.2459 65.2745 58.5949 71.9506 61.6862 73.0576C61.7916 73.0921 61.8618 73.1267 61.9672 73.1267C62.178 72.8846 62.3888 72.4695 62.4942 71.9852Z" fill="#4A6144"/>
<path d="M59.4731 76.1709C59.6487 75.4791 59.5785 74.5451 59.1218 73.6457C55.9602 69.3909 55.7846 76.6552 59.1569 76.6898C59.1921 76.6898 59.2272 76.6898 59.2974 76.6898C59.3677 76.5168 59.438 76.3438 59.4731 76.1709Z" fill="#4A6144"/>
<path d="M56.3466 81.8785C56.4169 81.7055 56.452 81.5325 56.452 81.325C56.5223 80.5986 56.3466 79.7338 55.7143 78.9381C51.9907 75.3752 52.8338 82.4665 56.1359 81.913C56.2061 81.8785 56.2764 81.8785 56.3466 81.8785C56.3115 81.8785 56.3115 81.8785 56.3466 81.8785Z" fill="#4A6144"/>
<path d="M61.3701 73.7494C61.4052 73.8532 61.4403 73.957 61.4754 74.0608C61.7565 74.7526 62.459 75.4098 63.4778 75.6174C67.7635 75.7212 64.7073 71.7777 62.3185 72.9538C61.9672 73.0922 61.6511 73.3689 61.3701 73.7494Z" fill="#4A6144"/>
<path d="M58.9462 77.347C58.9813 77.4507 58.9813 77.5891 59.0516 77.6929C59.2975 78.4193 59.9298 79.1111 60.8783 79.4225C65.3396 80.0451 62.1429 75.3407 59.6136 76.7935C59.3677 76.9319 59.1218 77.1048 58.9462 77.347Z" fill="#4A6144"/>
<path d="M56.3466 81.8785C56.3115 81.8785 56.3115 81.8785 56.3466 81.8785C56.171 82.086 55.9953 82.3282 55.8197 82.6395C55.89 82.7779 55.9602 82.9163 56.0656 83.02C56.4872 83.5735 57.2249 84.0232 58.1733 83.9886C62.2483 83.193 59.0516 80.2181 56.8736 81.4288C56.6979 81.5326 56.4871 81.7055 56.3466 81.8785Z" fill="#4A6144"/>
<path d="M52.6581 65.5858C52.5175 65.655 52.377 65.7242 52.2365 65.7934C52.0609 66.6927 51.8852 67.5921 51.7096 68.4915L51.7798 68.6299L51.6393 68.7337C51.6042 68.9412 51.5691 69.1488 51.5339 69.3563C51.6042 69.7714 51.7096 70.2211 51.7447 70.6362C51.9555 69.3217 52.1663 67.9726 52.4473 66.6236C52.4122 66.589 52.3419 66.5198 52.3068 66.4852C52.4122 66.1393 52.5175 65.8625 52.6581 65.5858Z" fill="#4A6144"/>
<path d="M50.1288 86.583H50.5503C50.6206 84.127 50.6908 81.7055 50.8665 79.2841C50.726 79.5609 50.5503 79.803 50.4098 80.0797C50.2342 82.2244 50.1639 84.4037 50.1288 86.583Z" fill="#4A6144"/>
<path d="M52.6581 65.5858C52.6932 65.5512 52.6932 65.482 52.7284 65.4474C53.1499 63.5103 53.6417 61.5732 54.2038 59.6014C54.1686 59.5323 54.0984 59.4631 54.0984 59.3593C54.2038 59.1518 54.3091 58.9442 54.4497 58.8058C55.082 56.7649 55.7846 54.6894 56.5925 52.6139C56.5574 52.5793 56.5223 52.5102 56.4871 52.4756C56.6277 52.1296 56.8033 51.8529 56.9789 51.6108C57.5761 50.1579 58.2084 48.7051 58.8759 47.2522C58.8408 47.183 58.8056 47.1139 58.7705 47.0447C58.911 46.7679 59.0867 46.5258 59.2974 46.3528C59.8946 45.1421 60.4918 43.9314 61.1593 42.6861C61.089 42.6861 61.0539 42.6861 60.9836 42.6861C60.9485 42.5824 60.8782 42.444 60.8782 42.3402C60.4216 43.1704 60 44.0006 59.5785 44.7962C59.5433 45.3151 59.4028 45.7648 59.1569 46.1107C59.0867 46.1107 59.0164 46.1107 58.9462 46.0761C58.2787 47.4598 57.6464 48.8434 57.0843 50.1925C57.1546 50.7806 57.0492 51.334 56.8735 51.7491C56.733 51.7491 56.5925 51.7491 56.452 51.7491C55.644 53.7901 54.9415 55.7964 54.3091 57.7681C54.3443 58.0794 54.3091 58.3907 54.274 58.6329C54.2038 58.6675 54.0984 58.6675 54.0281 58.7021C53.4309 60.6738 52.9391 62.6109 52.5176 64.5135C52.6581 64.8594 52.6932 65.2399 52.6581 65.5858Z" fill="#4A6144"/>
<path d="M61.1944 42.6516C61.897 42.6861 62.7401 42.3056 63.3724 41.3025C65.4801 36.2867 59.8595 38.9157 60.8782 42.3056C60.9134 42.4094 60.9485 42.5132 60.9836 42.6516C61.089 42.6516 61.1593 42.6516 61.1944 42.6516Z" fill="#4A6144"/>
<path d="M59.6136 44.7616C59.6487 44.2427 59.5434 43.6547 59.2975 43.032C56.5223 38.466 55.7494 45.5226 58.9813 46.0415C59.0515 46.0415 59.1218 46.0761 59.1921 46.0761C59.438 45.7302 59.5785 45.2805 59.6136 44.7616Z" fill="#4A6144"/>
<path d="M58.9111 47.2176C59.2623 47.9095 60.0352 48.4975 61.1242 48.5321C65.6207 47.9095 61.5106 44.2082 59.3326 46.3528C59.157 46.5258 58.9813 46.768 58.8057 47.0447C58.8408 47.0793 58.8759 47.1485 58.9111 47.2176Z" fill="#4A6144"/>
<path d="M56.9087 51.7145C57.1195 51.2994 57.1897 50.7806 57.1195 50.1579C57.0492 49.6736 56.9087 49.1893 56.6277 48.6705C53.3958 44.6924 53.3958 51.4378 56.4872 51.6799C56.6277 51.7145 56.7682 51.7145 56.9087 51.7145Z" fill="#4A6144"/>
<path d="M54.3443 57.7335C54.2741 57.0763 53.993 56.3499 53.3958 55.7272C49.3912 52.6831 50.8314 59.4977 54.0282 58.6675C54.0984 58.6329 54.1687 58.6329 54.2741 58.5983C54.3443 58.3216 54.3794 58.0448 54.3443 57.7335Z" fill="#4A6144"/>
<path d="M50.1639 64.2022L50.1288 64.2368C50.3045 64.721 50.4801 65.2053 50.6206 65.7242C51.1124 65.9663 51.6745 66.0355 52.2365 65.828C52.3771 65.7934 52.5176 65.7242 52.6581 65.6204C52.6581 65.6204 52.6581 65.6204 52.6581 65.5858C52.6932 65.2399 52.623 64.8594 52.5176 64.5135C52.3419 63.96 51.9555 63.4066 51.3583 62.9569C50.445 62.4726 49.8478 62.4034 49.4614 62.5418C49.637 63.0261 49.8478 63.5103 50.0234 63.96L50.1639 64.2022Z" fill="#4A6144"/>
<path d="M56.5925 52.5794C57.0141 53.202 57.8571 53.6863 58.9461 53.5479C63.2319 52.2335 58.911 49.2586 56.9789 51.5762C56.7682 51.8184 56.6276 52.0951 56.4871 52.441C56.5223 52.5102 56.5574 52.5448 56.5925 52.5794Z" fill="#4A6144"/>
<path d="M54.2038 59.6015C54.5902 60.2587 55.363 60.7776 56.4169 60.7776C60.9836 59.9128 56.452 56.2807 54.4145 58.8058C54.274 58.9788 54.1686 59.1518 54.0632 59.3593C54.1335 59.4285 54.1686 59.4977 54.2038 59.6015Z" fill="#4A6144"/>
<path d="M52.6581 65.5858C52.5176 65.8279 52.4122 66.1393 52.3419 66.4506C52.377 66.5198 52.4473 66.5544 52.4824 66.589C53.0094 67.1078 53.8876 67.35 54.9415 67.0041C58.9461 64.7556 54.274 62.8877 52.7283 65.3783C52.7283 65.482 52.6932 65.5166 52.6581 65.5858Z" fill="#4A6144"/>
<path d="M38.6417 57.2146C38.0445 56.0039 37.4122 54.8624 36.815 53.79C36.7447 53.8246 36.7096 53.8938 36.6394 53.9284C34.918 55.6926 33.267 57.5259 31.6511 59.3593C31.7916 59.7398 31.897 60.1203 32.0024 60.5008C35.7963 58.8404 37.3771 58.1832 38.6417 57.2146Z" fill="#4A6144"/>
<path d="M51.4638 68.9066L45.0703 73.6803C45.3513 74.7526 45.5972 75.8595 45.8431 77.0011L52.0258 72.9192C51.9907 72.1582 51.9204 71.3972 51.7799 70.6016C51.7097 70.1865 51.6394 69.7714 51.5691 69.3217C51.534 69.2179 51.4989 69.045 51.4638 68.9066Z" fill="#4A6144"/>
<path d="M43.8408 69.3217C44.2272 70.567 44.5785 71.8469 44.9298 73.196L51.3583 68.3877C51.1476 67.4884 50.9017 66.589 50.6206 65.6896C50.4801 65.2053 50.3045 64.721 50.1288 64.2021C46.9672 67.0387 45.4216 68.3877 43.8408 69.3217Z" fill="#4A6144"/>
<path d="M46.5808 82.9162C46.2647 81.0483 45.9134 79.2841 45.5621 77.5891L38.4661 79.5262L38.3607 79.0419L45.4216 77.1048C45.1757 75.9633 44.8946 74.8564 44.6487 73.8186L36.8853 76.5513L36.7799 76.1017L44.5785 73.3689C44.2272 72.0544 43.8759 70.7745 43.5246 69.5292C41.7682 70.4978 39.8361 71.0513 35.4801 72.5733L35.3396 72.1236C39.6956 70.6016 41.6277 70.0481 43.3841 69.0795C43.1382 68.2493 42.8572 67.4191 42.6113 66.6235C42.4356 66.1393 42.2951 65.6896 42.1195 65.2399C40.5738 66.2776 38.7471 66.9003 34.356 68.7336L34.2155 68.2839C38.6066 66.4506 40.3982 65.8279 41.9438 64.7902C41.5223 63.6141 41.0656 62.5071 40.6441 61.4348C39.2389 62.4034 37.5176 62.9914 33.3021 64.6518L33.1616 64.2021C37.3771 62.5071 39.0633 61.9537 40.4684 60.9851C39.9766 59.809 39.4497 58.6675 38.9227 57.6297C37.623 58.5983 36.0071 59.2555 32.2483 60.9505L32.1429 60.6738C34.9532 70.0827 36.3935 83.2275 45.3864 83.608C45.8431 83.4697 46.2998 83.2967 46.6862 83.1238C46.6159 83.0546 46.616 82.9854 46.5808 82.9162Z" fill="#4A6144"/>
<path d="M37.1663 53.4788C37.3068 53.7209 37.4474 53.963 37.5879 54.2398C38.0797 55.1046 38.5363 55.9694 39.0281 56.9379C40.2225 55.9348 41.2764 54.5511 43.8057 51.6108L44.0867 51.9567C41.4872 54.9662 40.4333 56.3845 39.2038 57.3876C39.7307 58.46 40.2225 59.5669 40.7495 60.7776C41.979 59.809 43.1382 58.3908 45.8783 55.3121L46.1593 55.658C43.349 58.8059 42.1897 60.2587 40.9251 61.2273C41.3818 62.2996 41.8033 63.4066 42.2249 64.5827C43.5598 63.5795 44.8595 62.0921 47.7401 58.9442L48.0211 59.2902C45.0703 62.5072 43.8057 63.9946 42.4005 65.0324C42.8572 66.2777 43.2787 67.5576 43.7003 68.9066C45.2459 67.9727 46.7916 66.6236 49.9181 63.8563L50.0235 64.0292C49.8478 63.5449 49.6722 63.0607 49.4614 62.611C47.3888 57.4222 44.438 52.3718 41.9438 48.7397C40.5738 50.0196 39.2389 51.3687 37.904 52.6831C37.6581 52.9599 37.4122 53.2366 37.1663 53.4788Z" fill="#4A6144"/>
<path d="M45.9836 77.4854C46.0539 78.0042 46.1593 78.4885 46.2647 79.0074C46.5457 80.3219 46.7916 81.6364 47.0375 82.9508C48.5129 82.2244 49.6019 81.2558 50.4099 80.0797C50.5855 79.8376 50.726 79.5609 50.8665 79.2841C51.7448 77.6237 52.096 75.652 52.0609 73.5073L45.9836 77.4854Z" fill="#4A6144"/>
<path d="M47.0375 82.9162C46.7916 81.6017 46.5457 80.2873 46.2646 78.9728C46.5105 80.2181 46.7565 81.498 47.0024 82.8125L46.6159 82.9162C46.6159 82.9854 46.6511 83.0546 46.6511 83.1238C46.8267 84.2307 47.0375 85.4068 47.178 86.583H47.6347C47.4239 85.3722 47.2483 84.1615 47.0375 82.9162Z" fill="#4A6144"/>
<path d="M37.1663 53.4788C37.3068 53.7209 37.4473 53.963 37.5879 54.2398C37.4473 53.9976 37.3068 53.7555 37.1663 53.4788Z" fill="#4A6144"/>
<path d="M42.0492 65.2745C42.2248 65.7242 42.3654 66.1739 42.541 66.6582C42.4005 66.1739 42.2248 65.7242 42.0492 65.2745C42.0492 65.2745 42.0492 65.2399 42.0492 65.2745Z" fill="#4A6144"/>
<path d="M40.6089 61.4348C40.6089 61.4348 40.5738 61.4694 40.6089 61.4348C41.0305 62.5072 41.4872 63.6141 41.9087 64.7902C41.4872 63.6141 41.0305 62.5072 40.6089 61.4348Z" fill="#4A6144"/>
<path d="M38.8876 57.6297C38.8525 57.6297 38.8525 57.6297 38.8876 57.6297C39.3794 58.702 39.9064 59.809 40.3982 61.0197C39.9064 59.809 39.3794 58.702 38.8876 57.6297Z" fill="#4A6144"/>
<path d="M36.815 53.79C37.4122 54.8624 38.0094 56.0039 38.6417 57.2146C38.6417 57.2146 38.6417 57.2146 38.6768 57.2146C38.0445 56.0039 37.4473 54.8624 36.815 53.79Z" fill="#4A6144"/>
<path d="M46.5808 82.9162L46.9672 82.8125C46.7565 81.498 46.5106 80.2181 46.2295 78.9728C46.1241 78.4539 46.0188 77.9696 45.9134 77.4854L45.4918 77.5891C45.9134 79.2841 46.2647 81.0829 46.5808 82.9162Z" fill="white"/>
<path d="M44.6487 73.8532C44.9298 74.9256 45.1757 76.0325 45.4216 77.1394L45.808 77.0356H45.8431C45.5972 75.8941 45.3162 74.7872 45.0703 73.7148L44.6487 73.8532Z" fill="white"/>
<path d="M40.6089 61.4348C41.0656 62.5072 41.4871 63.6141 41.9087 64.7902C42.014 64.7211 42.1546 64.6173 42.2599 64.5481C41.8384 63.372 41.3817 62.265 40.9602 61.1927C40.8197 61.2965 40.7143 61.3657 40.6089 61.4348Z" fill="white"/>
<path d="M38.8876 57.6297C39.4145 58.7021 39.9063 59.809 40.4332 60.9851C40.5386 60.916 40.6791 60.8122 40.7845 60.7084C40.2927 59.5323 39.7658 58.3908 39.2389 57.3184C39.0983 57.4568 38.993 57.5606 38.8876 57.6297Z" fill="white"/>
<path d="M38.993 56.9379C38.5363 56.004 38.0445 55.1046 37.5527 54.2398C37.4122 53.9976 37.2717 53.7209 37.1312 53.4788C37.0258 53.5825 36.9204 53.6863 36.815 53.7901C37.4473 54.8624 38.0445 55.9694 38.6417 57.2147C38.7822 57.1109 38.8876 57.0417 38.993 56.9379Z" fill="white"/>
<path d="M42.0492 65.2399C42.2248 65.6896 42.3654 66.1393 42.541 66.6236C42.822 67.4192 43.0679 68.2148 43.3138 69.0796C43.4543 69.0104 43.5597 68.9412 43.7002 68.872C43.2787 67.5229 42.8572 66.243 42.4005 64.9977C42.2951 65.1015 42.1897 65.1707 42.0492 65.2399Z" fill="white"/>
<path d="M44.8595 73.2652L44.9298 73.2306C44.5785 71.8815 44.2272 70.6016 43.8408 69.3563C43.7002 69.4255 43.5949 69.4947 43.4543 69.5639C43.8408 70.7746 44.1921 72.0545 44.5082 73.4036L44.8595 73.2652Z" fill="white"/>
<path d="M36.815 53.7901C36.9204 53.6863 37.0258 53.5825 37.1312 53.4787C37.4122 53.2366 37.6581 52.9253 37.904 52.614C37.4825 53.0636 37.0258 53.5133 36.6042 53.9284C36.7096 53.8938 36.7448 53.8593 36.815 53.7901Z" fill="white"/>
<path d="M38.8525 57.6643C38.8525 57.6297 38.8525 57.6297 38.8525 57.6643C38.993 57.5606 39.0984 57.4568 39.2038 57.3876C40.4333 56.3844 41.452 54.9662 44.0867 51.9567L43.8056 51.6108C41.2412 54.5857 40.2225 55.9693 39.0281 56.9379C38.9227 57.0417 38.8173 57.1109 38.6768 57.2146C38.6768 57.2146 38.6768 57.2146 38.6417 57.2146C37.3771 58.1832 35.7611 58.8404 32.0375 60.5008L32.1077 60.6738L32.2131 60.9505C35.9368 59.2901 37.5878 58.5983 38.8525 57.6643Z" fill="white"/>
<path d="M40.3981 61.0197C38.9929 61.9883 37.3068 62.5763 33.0913 64.2367L33.2318 64.6864C37.4473 62.9914 39.1686 62.438 40.5737 61.4694C40.6791 61.4002 40.8196 61.2964 40.925 61.2272C42.1897 60.2587 43.3489 58.8058 46.1592 55.658L45.8782 55.3121C43.1381 58.3907 41.9789 59.809 40.7494 60.7776C40.644 60.8467 40.5386 60.9159 40.3981 61.0197Z" fill="white"/>
<path d="M41.9087 64.7902C40.363 65.8626 38.5715 66.4506 34.1804 68.284L34.3209 68.7337C38.712 66.9003 40.5387 66.2777 42.0843 65.2399C42.1897 65.1708 42.3302 65.067 42.4356 64.9978C43.8056 63.96 45.1054 62.4726 48.0562 59.2556L47.7752 58.9097C44.8946 62.0575 43.63 63.5449 42.26 64.5481C42.1546 64.6173 42.0141 64.7211 41.9087 64.7902Z" fill="white"/>
<path d="M43.3489 69.0796C41.5925 70.0481 39.6604 70.6016 35.3044 72.1236L35.445 72.5733C39.8009 71.0513 41.7681 70.4978 43.4895 69.5293C43.63 69.4601 43.7354 69.3909 43.8759 69.3217C45.4567 68.3877 46.9672 67.0387 50.1288 64.2367L50.1639 64.2022L50.0234 63.96L49.918 63.787C46.7916 66.5544 45.2459 67.9035 43.7002 68.8374C43.5948 68.9412 43.4543 69.0104 43.3489 69.0796Z" fill="white"/>
<path d="M51.3583 68.3878L44.9298 73.196L44.8595 73.2652L44.5434 73.369L36.7448 76.1017L36.8853 76.5514L44.6487 73.8532L45.0352 73.7149L45.0703 73.6803L51.4637 68.9066L51.6745 68.7337L51.815 68.6299L51.7096 68.4915L51.5691 68.2494L51.3583 68.3878Z" fill="white"/>
<path d="M45.8431 77.0011L45.808 77.0357L45.4567 77.1395L38.3607 79.0766L38.466 79.5263L45.5269 77.5891L45.9485 77.4854H45.9836L52.0609 73.4727L52.4473 73.2306L52.2365 72.8155L52.0609 72.9539L45.8431 77.0011Z" fill="white"/>
<path d="M57.4005 86.5829C57.2951 87.7245 57.0141 91.1836 56.6628 95.2655C56.9789 91.3912 57.26 88.105 57.4005 86.5829Z" fill="#71A6B3"/>
<path d="M49.2155 113.634L46.9321 86.5829H43.3138L45.7377 115.329H54.9766C55.0469 114.36 55.2225 112.596 55.3982 110.347C55.2576 111.939 55.1523 113.115 55.1171 113.634H49.2155Z" fill="#777777"/>
<path d="M47.5995 86.5829H47.1429H46.897L49.1803 113.634H55.082C55.1171 113.149 55.2225 111.939 55.363 110.347C55.6792 106.577 56.2061 100.42 56.6277 95.2655C56.9789 91.1836 57.26 87.7245 57.3654 86.5829H54.3794H53.9227H50.5152H50.0937H47.5995V86.5829Z" fill="#888888"/>
<path d="M210.738 191.154H206.628V213.396H210.738V191.154Z" fill="#888888"/>
<path d="M163.665 167.285L163.7 167.251C164.719 163.861 167.424 162.166 170.164 162.823C170.164 162.408 170.129 162.027 170.129 161.647C166.3 162.339 164.262 164.656 163.665 167.285Z" fill="#CC8166"/>
<path d="M183.864 213.258C183.864 212.739 183.829 212.22 183.794 211.736C183.759 212.185 183.759 212.67 183.864 213.258Z" fill="#CC8166"/>
<path d="M184.005 222.286C180.281 224.465 170.164 216.405 177.822 207.204C179.543 205.717 179.93 202.223 180.316 198.868L178.384 198.556C178.384 198.556 178.279 195.616 178.103 191.188C175.644 191.084 173.642 188.767 173.642 185.896C173.642 184.443 174.169 183.128 174.977 182.16C174.696 181.675 174.415 181.191 174.169 180.707C173.396 180.707 172.693 180.741 172.061 180.741C171.499 184.339 170.867 191.88 168.513 199.905C170.164 209.245 171.956 219.623 173.536 229.031C173.536 229.031 173.536 229.031 173.536 229.066C177.014 229.135 180.492 229.239 183.97 229.343C183.97 229.343 183.97 229.343 183.97 229.308C184.005 227.025 184.005 224.707 184.005 222.286Z" fill="#CC8166"/>
<path d="M163.7 167.251C164.614 166.594 165.773 166.075 167.143 165.729C168.197 165.487 169.215 165.244 170.269 165.002C170.199 164.241 170.164 163.515 170.164 162.823C167.389 162.166 164.719 163.861 163.7 167.251Z" fill="#CC8166"/>
<path d="M170.234 78.1426C169.883 78.1772 169.496 78.2118 169.11 78.2464C167.424 78.4885 165.913 78.696 164.508 78.9036C165.703 79.5608 166.827 80.391 167.845 81.3942C168.513 80.2181 169.321 79.1111 170.234 78.1426Z" fill="#E09980"/>
<path d="M159.555 87.6553C159.485 84.5075 157.377 82.7087 154.918 82.5012C154.953 82.7087 154.953 82.9163 154.988 83.1238C156.675 84.2307 158.22 85.822 159.555 87.6553Z" fill="#E09980"/>
<path d="M157.096 94.8504C158.888 91.9792 159.59 89.5578 159.52 87.6553C158.185 85.8219 156.639 84.2307 154.953 83.1238C155.585 89.8346 152.881 92.3252 150.703 93.2937C144.906 95.7843 145.679 101.734 149.016 100.35C152.354 98.9668 154.251 99.451 152.319 100.8C150.386 102.149 147.365 103.014 145.468 108.652C144.836 110.624 144.063 112.008 143.22 112.838C144.098 112.873 145.012 112.838 145.995 112.63C148.56 112.423 150.386 112.63 151.756 112.873H153.548C153.302 106.819 154.005 99.8661 157.096 94.8504Z" fill="#E09980"/>
<path d="M172.237 179.565C172.166 179.877 172.096 180.257 172.026 180.707C172.658 180.707 173.361 180.672 174.133 180.672C173.536 179.531 173.045 178.32 172.588 177.075C172.553 177.87 172.412 178.701 172.237 179.565Z" fill="#E09980"/>
<path d="M167.143 165.729C165.738 166.04 164.614 166.593 163.7 167.251L163.665 167.285C162.014 168.496 161.101 170.156 160.785 171.921C163.033 166.248 167.881 165.452 170.656 168.738C170.48 167.458 170.34 166.178 170.269 165.002C169.215 165.244 168.197 165.487 167.143 165.729Z" fill="#E09980"/>
<path d="M168.478 199.871C170.831 191.845 171.464 184.304 172.026 180.707C172.096 180.257 172.166 179.877 172.237 179.565C172.412 178.701 172.553 177.87 172.623 177.075C171.674 174.342 171.042 171.436 170.656 168.704C167.881 165.417 163.033 166.213 160.785 171.886C160.539 172.474 160.363 173.097 160.187 173.789C158.571 180.153 153.478 198.764 148.384 216.682L149.192 228.443C151.756 228.513 154.286 228.547 156.85 228.616C156.85 228.616 156.85 228.616 156.85 228.582C161.03 220.003 165.422 210.075 168.337 200.424C168.372 200.251 168.443 200.078 168.478 199.871Z" fill="#E09980"/>
<path d="M145.047 228.201C145.047 228.236 145.012 228.305 145.012 228.34C145.012 228.34 145.012 228.34 145.012 228.374C145.047 228.374 145.047 228.374 145.082 228.374L145.047 228.201Z" fill="#E09980"/>
<path d="M143.255 112.873C144.098 112.008 144.871 110.659 145.504 108.687C147.4 103.049 150.422 102.184 152.354 100.835C154.286 99.4856 152.389 98.9668 149.052 100.385C145.714 101.769 144.906 95.8189 150.738 93.3283C152.951 92.3943 155.621 89.8691 154.988 83.1584C154.953 82.9508 154.953 82.7433 154.918 82.5357C153.724 82.4319 152.459 82.6741 151.3 83.3313C146.487 85.9603 146.663 80.9791 148.419 79.3533C141.885 80.2872 132.646 85.8565 131.311 92.6365C129.52 99.3127 133.56 109.656 138.021 112.976H143.22C143.22 112.907 143.22 112.873 143.255 112.873Z" fill="#6E4632"/>
<path d="M243.759 180.568H230.375C228.583 181.087 226.721 181.226 224.789 181.053C214.707 183.025 201.148 183.336 190.679 183.336C190.328 186.207 189.977 188.871 189.696 191.188H206.628H210.738H247.904L243.337 183.336C243.337 183.336 243.759 180.672 243.759 180.568Z" fill="#A53D35"/>
<path d="M175.714 183.267C175.433 182.886 175.187 182.506 174.941 182.125C174.133 183.094 173.607 184.408 173.607 185.861C173.607 188.732 175.574 191.05 178.068 191.154C177.963 188.836 177.857 186.138 177.752 183.232C176.944 183.232 176.241 183.267 175.714 183.267Z" fill="#87423A"/>
<path d="M262.834 54.1014C262.834 54.1014 244.567 175.276 243.759 180.569C243.759 180.672 243.337 183.336 243.337 183.336L247.869 191.188C247.869 191.188 273.126 68.2148 274.426 61.7807L274.461 61.6769C271.686 57.5951 268.7 53.6171 265.574 49.7774L265.539 49.812C264.239 50.7806 263.255 52.268 262.834 54.1014Z" fill="#A53D35"/>
<path d="M44.438 205.993L45.5621 195.097C44.1218 191.327 42.6113 187.556 41.1007 183.855L40.2576 196.273C41.733 199.456 43.1382 202.707 44.438 205.993Z" fill="#87423A"/>
<path d="M43.7354 145.631C44.4731 146.911 45.1756 148.225 45.8782 149.54C45.8782 149.54 45.8782 149.54 45.8782 149.574C45.9836 149.817 46.1241 150.024 46.2295 150.266C46.4051 150.612 46.6159 150.958 46.7916 151.339C46.9672 151.65 47.1077 151.961 47.2834 152.273C47.4239 152.584 47.5995 152.895 47.74 153.207C47.8805 153.518 48.0562 153.829 48.1967 154.106C48.3724 154.452 48.548 154.798 48.7236 155.144C48.8642 155.42 48.9695 155.663 49.1101 155.939C49.2506 156.251 49.3911 156.527 49.5316 156.839L53.0094 122.87H45.281L43.7354 145.631Z" fill="#87423A"/>
<path d="M148.349 216.682L141.92 122.766H134.192L145.012 228.201L145.047 228.374C146.417 228.409 147.787 228.443 149.157 228.443L148.349 216.682Z" fill="#87423A"/>
<path d="M238.56 174.169C238.103 174.895 237.576 175.587 237.049 176.21C237.717 175.553 238.208 174.895 238.56 174.169Z" fill="#D2DCDC"/>
<path d="M177.752 183.232C177.436 175.622 177.049 166.697 176.733 160.021C174.415 160.367 172.201 160.644 170.094 160.817C170.094 161.093 170.094 161.37 170.094 161.647C170.094 162.027 170.094 162.408 170.129 162.823C170.164 163.515 170.199 164.241 170.234 165.002C170.34 166.178 170.445 167.424 170.621 168.738C171.007 171.471 171.639 174.377 172.588 177.109C173.009 178.355 173.536 179.565 174.134 180.707C174.379 181.191 174.66 181.675 174.941 182.16C175.187 182.54 175.433 182.921 175.714 183.301C176.241 183.267 176.944 183.232 177.752 183.232Z" fill="#D2DCDC"/>
<path d="M194.754 156.008C194.297 156.147 193.841 156.285 193.384 156.424C192.787 165.106 191.698 175.103 190.679 183.336C201.148 183.336 214.707 183.025 224.789 181.053C210.597 179.877 193.841 162.339 194.754 156.008Z" fill="#D2DCDC"/>
<path d="M169.918 107.961C170.586 108.86 171.323 109.656 172.166 110.382C171.675 107.338 171.183 104.467 170.726 101.872C170.234 103.983 169.988 105.989 169.918 107.961Z" fill="#283C50"/>
<path d="M170.656 85.2339C175.293 75.1332 189.66 73.8187 192.471 94.124C193.349 100.454 193.911 109.448 194.192 118.131C207.295 126.017 217.763 142.621 196.019 154.21C195.281 154.59 194.895 155.213 194.789 156.008C193.876 162.339 210.632 179.842 224.824 181.053C226.756 181.226 228.618 181.087 230.41 180.569C232.869 179.877 235.117 178.458 237.084 176.175C237.611 175.553 238.103 174.896 238.595 174.134C240.492 171.16 242.002 167.147 242.916 161.82C246.85 139.162 238.454 77.7621 184.215 73.5074C177.963 73.0231 173.396 74.9256 170.304 78.1426C169.356 79.1112 168.548 80.2181 167.881 81.3943C168.934 82.5012 169.918 83.7811 170.656 85.2339Z" fill="#FCBD58"/>
<path d="M180.316 198.833C179.895 202.188 179.543 205.682 177.822 207.17C170.164 216.371 180.281 224.465 184.005 222.251C185.199 221.56 185.761 219.761 184.813 216.613C184.251 215.264 183.97 214.157 183.829 213.223C183.759 212.67 183.724 212.151 183.759 211.701C183.97 209.072 185.691 207.792 186.253 204.644C186.288 203.434 186.639 201.739 186.956 199.94L180.316 198.833Z" fill="#E09980"/>
<path d="M194.192 118.165C193.911 109.483 193.349 100.489 192.471 94.1585C189.66 73.8532 175.293 75.1677 170.656 85.2685C172.553 88.9006 173.115 93.6397 171.429 99.1397C171.148 100.074 170.902 101.008 170.691 101.907C171.148 104.501 171.639 107.373 172.131 110.417C173.747 120.517 175.293 132.486 175.609 142.241C175.644 143.313 175.785 144.351 175.995 145.285C177.014 128.128 192.998 130.757 193.63 141.203C193.735 142.345 193.77 143.659 193.77 145.112C193.911 144.489 193.981 143.832 194.052 143.14C194.438 138.609 194.508 128.577 194.192 118.165Z" fill="#E29F3D"/>
<path d="M193.384 156.424C193.665 152.203 193.841 148.329 193.806 145.077C193.806 143.625 193.735 142.31 193.665 141.169C193.033 130.687 177.084 128.058 176.03 145.25C175.925 146.945 175.96 148.813 176.171 150.889C176.311 152.169 176.487 155.593 176.733 160.09C177.049 166.732 177.436 175.691 177.752 183.301C177.857 186.207 177.998 188.905 178.068 191.223C178.244 195.65 178.349 198.591 178.349 198.591L180.281 198.902L186.956 200.009L188.501 200.251C188.501 199.94 188.993 196.412 189.66 191.223C189.977 188.905 190.293 186.242 190.644 183.37C191.698 175.103 192.787 165.106 193.384 156.424Z" fill="#E29F3D"/>
<path d="M153.759 115.329H104.333H18.1967V122.8H45.281H53.0094H134.227H141.955H154.988C154.461 120.829 154.005 118.234 153.759 115.329Z" fill="#4F2622"/>
<path d="M153.583 112.907H151.792H143.185H137.986H126.956H104.333V115.294H153.724C153.689 114.533 153.618 113.737 153.583 112.907Z" fill="#283346"/>
<path d="M112.307 75.652H89.6838L104.333 112.907H126.956L112.307 75.652ZM90.9836 77.0702H112.166L125.656 111.454H104.473L90.9836 77.0702Z" fill="#3C4D50"/>
<path d="M112.166 77.0703H90.9836L104.473 111.454H125.656L112.166 77.0703ZM115.609 91.7371H104.368L104.052 91.0107H115.293L115.609 91.7371ZM93.8993 79.9068H111.042L111.358 80.6332H94.2155L93.8993 79.9068ZM98.2202 83.6081H112.447L112.764 84.3345H98.5363L98.2202 83.6081ZM98.5363 87.3094H113.853L114.169 88.0358H98.8525L98.5363 87.3094ZM100.012 95.4384L99.6956 94.712H116.698L117.014 95.4384H100.012ZM108.97 98.4133H118.103L118.419 99.1397H109.286L108.97 98.4133Z" fill="#E3CCBF"/>
<path d="M151.3 83.2968C152.459 82.6741 153.724 82.3974 154.918 82.5012C157.377 82.7087 159.485 84.5075 159.555 87.6553C159.59 89.5579 158.923 91.9793 157.131 94.8504C154.005 99.8316 153.302 106.785 153.618 112.907C153.653 113.737 153.724 114.533 153.794 115.294C154.04 118.2 154.532 120.794 154.988 122.766C155.304 124.15 155.656 125.187 155.972 125.845C158.501 131.275 173.15 132.936 172.482 128.716C171.183 120.448 169.707 114.325 169.953 107.961C170.023 105.989 170.269 103.948 170.726 101.838C170.937 100.939 171.183 100.039 171.464 99.0706C173.15 93.5705 172.588 88.8314 170.691 85.1993C169.953 83.7465 168.97 82.4666 167.845 81.3596C166.862 80.3911 165.738 79.5609 164.508 78.869C159.766 76.2055 153.689 75.9979 148.77 78.9728C148.63 79.042 148.525 79.1458 148.419 79.2496C146.663 80.9445 146.487 85.8911 151.3 83.2968Z" fill="#6E4632"/>
<path d="M111.042 79.9067H93.8993L94.1803 80.6332H111.358L111.042 79.9067Z" fill="#E6E6E6"/>
<path d="M112.447 83.608H98.2202L98.5363 84.3345H112.763L112.447 83.608Z" fill="#E6E6E6"/>
<path d="M113.888 87.3093H98.5363L98.8525 88.0357H114.169L113.888 87.3093Z" fill="#E6E6E6"/>
<path d="M104.333 91.7372H115.609L115.293 91.0107H104.052L104.333 91.7372Z" fill="#E6E6E6"/>
<path d="M116.698 94.712H99.6956L100.012 95.4384H117.014L116.698 94.712Z" fill="#E6E6E6"/>
<path d="M118.103 98.4133H108.97L109.286 99.1398H118.419L118.103 98.4133Z" fill="#E6E6E6"/>
<path d="M210.738 213.396H206.628H204.801V229.931V229.965C207.365 230 209.965 230 212.564 229.965V229.931V213.396H210.738Z" fill="#606060"/>
<path d="M25.3286 145.458C25.3286 145.423 25.3286 145.389 25.2927 145.354C25.3286 145.389 25.3286 145.423 25.3286 145.458Z" fill="#4A6144"/>
<path d="M24.7307 134.562C24.1335 136.049 23.993 137.917 24.4145 139.889C24.2389 137.882 24.3091 136.014 24.7307 134.562Z" fill="#4A6144"/>
<path d="M51.0422 160.056C51.2881 160.575 51.534 161.128 51.7447 161.647C51.4988 161.128 51.2881 160.609 51.0422 160.056Z" fill="#4A6144"/>
<path d="M49.9883 157.738C50.2694 158.361 50.5855 159.018 50.8666 159.641C50.5504 159.018 50.2694 158.395 49.9883 157.738Z" fill="#4A6144"/>
<path d="M26.1007 148.433C26.0304 148.122 25.9251 147.845 25.8548 147.533C25.9251 147.845 26.0304 148.122 26.1007 148.433Z" fill="#4A6144"/>
<path d="M51.9204 162.062C52.1663 162.615 52.4122 163.169 52.6581 163.722C52.4122 163.169 52.1663 162.615 51.9204 162.062Z" fill="#4A6144"/>
<path d="M25.8197 147.464C25.7143 147.084 25.6089 146.738 25.5386 146.357C25.644 146.738 25.7494 147.084 25.8197 147.464Z" fill="#4A6144"/>
<path d="M52.7986 164.068C53.0797 164.726 53.3607 165.417 53.6417 166.075C50.2342 166.109 46.7916 165.66 43.4895 164.795C50.9719 183.613 57.8923 202.811 63.3021 222.148C66.1124 223.047 69.0281 223.843 72.1195 224.465C66.6394 204.886 61.2998 184.616 53.6417 166.075C53.3607 165.383 53.0797 164.726 52.7986 164.068Z" fill="#4A6144"/>
<path d="M38.1499 136.533C37.0258 134.942 35.7612 133.42 34.1804 132.348C35.6558 133.593 36.9555 135.011 38.1499 136.533Z" fill="#4A6144"/>
<path d="M28.3841 131.102C28.63 131.068 28.8759 131.068 29.1569 131.068C29.1569 131.033 29.1569 131.033 29.1218 130.999C29.2272 130.999 29.2974 130.999 29.4028 130.964C29.4028 130.999 29.438 131.033 29.438 131.033C30.7026 131.102 32.2483 131.483 34.1452 132.313C32.0024 130.999 30 130.653 28.3841 131.102Z" fill="#4A6144"/>
<path d="M49.9532 157.703C49.8127 157.392 49.637 157.081 49.4965 156.769C49.356 156.458 49.2155 156.181 49.075 155.87C49.3911 156.493 49.6721 157.081 49.9532 157.703Z" fill="#4A6144"/>
<path d="M46.2295 150.232C46.4051 150.577 46.6159 150.923 46.7916 151.304C46.6159 150.923 46.4403 150.577 46.2295 150.232Z" fill="#4A6144"/>
<path d="M43.1382 164.691C38.2553 163.342 33.6183 161.093 29.6136 158.049C30.0351 159.018 30.4567 160.021 30.9134 160.99C34.3911 168.012 37.7986 175.795 41.1007 183.889C42.6112 187.591 44.1218 191.361 45.5621 195.132C48.5831 202.949 51.4637 210.871 54.0984 218.412C56.9438 219.83 59.8595 221.041 62.9157 222.044C57.541 202.673 50.6206 183.509 43.1382 164.691Z" fill="#4A6144"/>
<path d="M45.8782 149.54C45.1757 148.225 44.4731 146.945 43.7354 145.631C43.3841 144.974 42.9977 144.351 42.6113 143.728C43.7003 145.666 44.7541 147.672 45.8782 149.54Z" fill="#4A6144"/>
<path d="M47.2834 152.203C47.4239 152.515 47.5995 152.826 47.7401 153.137C47.5995 152.826 47.4239 152.515 47.2834 152.203Z" fill="#4A6144"/>
<path d="M48.1967 154.037C48.3724 154.383 48.548 154.729 48.7236 155.074C48.548 154.729 48.3724 154.383 48.1967 154.037Z" fill="#4A6144"/>
<path d="M85.6792 185.861C85.7846 186.242 85.9251 186.657 86.0305 187.037C85.9251 186.657 85.8197 186.242 85.6792 185.861Z" fill="#4A6144"/>
<path d="M68.8525 174.031C68.8876 172.232 69.1335 170.71 69.8009 169.81C68.9227 170.848 68.6066 172.439 68.8525 174.031Z" fill="#4A6144"/>
<path d="M73.4544 169.015C73.4192 169.015 73.4192 169.015 73.4544 169.015C72.26 168.634 71.3115 168.773 70.5738 169.188C71.5574 168.946 72.541 168.911 73.4544 169.015Z" fill="#4A6144"/>
<path d="M85.082 183.82C85.2225 184.27 85.363 184.719 85.5035 185.169C85.363 184.719 85.2225 184.27 85.082 183.82Z" fill="#4A6144"/>
<path d="M88.7003 197.276C86.1359 198.003 83.4661 198.037 80.9017 197.484C82.8689 207.1 84.5199 216.855 86.3115 226.402C88.9813 226.61 91.7565 226.783 94.7073 226.921C94.7073 226.921 94.7073 226.921 94.7073 226.887C93.548 220.66 92.2131 213.673 91.5457 210.421C90.6675 206.028 89.719 201.635 88.7003 197.276Z" fill="#4A6144"/>
<path d="M79.075 172.024C80.6558 173.616 81.9555 175.656 82.904 177.697C81.9555 175.622 80.6909 173.616 79.075 172.024Z" fill="#4A6144"/>
<path d="M71.7682 192.883C71.6277 191.326 70.9954 188.525 70.363 185.377C70.7846 187.902 71.2413 190.392 71.7682 192.883Z" fill="#4A6144"/>
<path d="M86.2412 187.833C86.3466 188.213 86.452 188.559 86.5574 188.94C86.452 188.559 86.3466 188.213 86.2412 187.833Z" fill="#4A6144"/>
<path d="M88.2787 195.581C88.3489 195.893 88.4543 196.239 88.5246 196.55C88.4543 196.239 88.3841 195.893 88.2787 195.581Z" fill="#4A6144"/>
<path d="M87.3302 191.742C87.4005 192.087 87.5058 192.399 87.5761 192.745C87.5058 192.399 87.4005 192.053 87.3302 191.742Z" fill="#4A6144"/>
<path d="M86.8033 189.77C86.9087 190.116 86.9789 190.462 87.0843 190.808C86.9789 190.496 86.9087 190.15 86.8033 189.77Z" fill="#4A6144"/>
<path d="M87.822 193.644C87.8923 193.955 87.9977 194.301 88.0679 194.613C87.9625 194.301 87.8923 193.99 87.822 193.644Z" fill="#4A6144"/>
<path d="M80.5855 197.449C77.3185 196.723 74.2623 195.062 71.7682 192.918C73.7705 202.223 76.4052 214.676 78.6886 225.572C81.0422 225.884 83.5012 226.16 86.0656 226.402C84.3092 216.959 82.5879 207.135 80.5855 197.449Z" fill="#4A6144"/>
<path d="M84.3091 181.364C84.5199 181.987 84.7307 182.609 84.9063 183.267C84.6956 182.644 84.5199 182.021 84.3091 181.364Z" fill="#4A6144"/>
<path d="M80.9017 197.518C83.4661 198.037 86.1359 198.037 88.7003 197.311C88.63 197.069 88.5949 196.827 88.5246 196.584C88.4544 196.273 88.3841 195.927 88.2787 195.616C88.2085 195.305 88.1382 194.993 88.0328 194.647C87.9626 194.336 87.8572 193.99 87.7869 193.679C87.7167 193.367 87.6113 193.056 87.541 192.745C87.4708 192.399 87.3654 192.088 87.2951 191.742C87.2249 191.43 87.1546 191.154 87.0492 190.842C86.9438 190.496 86.8736 190.15 86.7682 189.804C86.6979 189.528 86.6277 189.251 86.5223 188.974C86.4169 188.594 86.3115 188.248 86.2061 187.867C86.1359 187.591 86.0656 187.348 85.9953 187.072C85.89 186.691 85.7494 186.276 85.6441 185.896C85.5738 185.653 85.5035 185.411 85.4333 185.204C85.2928 184.754 85.1523 184.304 85.0117 183.855C84.9415 183.682 84.9064 183.474 84.8361 183.301C84.6253 182.679 84.4497 182.056 84.2389 181.399C83.8876 180.223 83.4309 178.977 82.8338 177.732C81.8853 175.691 80.5855 173.65 79.0047 172.059C77.4239 170.502 75.5972 169.361 73.4895 169.049C73.5598 169.049 73.63 169.084 73.7003 169.084C76.6862 178.251 78.9345 187.833 80.9017 197.518Z" fill="#789173"/>
<path d="M28.3841 131.102C26.4169 131.345 25.2576 132.659 24.6955 134.562C24.274 136.049 24.2037 137.882 24.3794 139.889C24.5199 141.618 24.8712 143.486 25.2927 145.354C25.2927 145.389 25.2927 145.423 25.3279 145.458C25.3981 145.769 25.4684 146.081 25.5386 146.357C25.644 146.738 25.7143 147.084 25.8197 147.464C25.8197 147.499 25.8197 147.499 25.8548 147.533C25.9251 147.845 26.0304 148.122 26.1007 148.433C27.2248 152.376 28.6651 156.008 29.6136 158.015C33.6183 161.059 38.2201 163.342 43.1382 164.656C38.6065 153.31 33.8993 142.068 29.1569 131.033C28.8759 131.033 28.63 131.068 28.3841 131.102Z" fill="#789173"/>
<path d="M49.075 155.87C48.9345 155.593 48.8291 155.351 48.6886 155.074C48.5129 154.729 48.3373 154.383 48.1616 154.037C48.0211 153.725 47.8455 153.414 47.705 153.137C47.5644 152.826 47.3888 152.515 47.2483 152.203C47.0726 151.892 46.9321 151.581 46.7565 151.269C46.5808 150.923 46.4052 150.578 46.1944 150.197C46.089 149.955 45.9485 149.747 45.8431 149.505C45.8431 149.505 45.8431 149.505 45.8431 149.471C44.719 147.603 43.6651 145.631 42.5762 143.659C41.2061 141.169 39.801 138.713 38.1148 136.499C36.9556 134.977 35.6558 133.524 34.1452 132.313C32.2834 131.483 30.7378 131.068 29.438 131.033C34.1804 142.103 38.9228 153.379 43.4544 164.76C46.7565 165.625 50.1991 166.075 53.6066 166.04C53.3256 165.383 53.0445 164.691 52.7635 164.034C52.7284 163.93 52.6581 163.826 52.623 163.722C52.3771 163.169 52.1312 162.615 51.8853 162.062C51.815 161.924 51.7799 161.785 51.7096 161.647C51.4637 161.128 51.253 160.575 51.0071 160.056C50.9368 159.917 50.8666 159.779 50.8314 159.641C50.5504 159.018 50.2342 158.361 49.9532 157.738C49.9532 157.738 49.9532 157.703 49.9181 157.703C49.6722 157.081 49.3911 156.493 49.075 155.87Z" fill="#789173"/>
<path d="M73.4544 169.015C72.541 168.911 71.5925 168.946 70.5738 169.188C70.5387 169.188 70.4684 169.222 70.4333 169.222C70.1874 169.361 70.0117 169.568 69.8361 169.81C69.1687 170.71 68.9228 172.197 68.8876 174.031C68.8525 177.282 69.6253 181.606 70.3982 185.377C71.0305 188.525 71.6628 191.326 71.8033 192.883C74.2975 195.062 77.3888 196.688 80.6206 197.415C78.5832 187.591 76.2998 177.905 73.4544 169.015Z" fill="#789173"/>
<path d="M80.9016 197.518C78.9344 187.833 76.6862 178.285 73.7353 169.084C73.6651 169.084 73.5948 169.049 73.5246 169.049C73.4894 169.049 73.4543 169.015 73.4192 169.015C76.2646 177.905 78.548 187.591 80.5855 197.415C82.5527 207.1 84.3091 216.959 86.0656 226.368C86.171 226.368 86.2412 226.368 86.3466 226.402C84.555 216.855 82.8688 207.135 80.9016 197.518Z" fill="#374234"/>
<path d="M40.2576 196.273C31.2647 176.971 18.9344 160.229 1.1944 152.065C4.14522 167.804 12.4356 182.471 24.0281 194.025C32.5644 203.157 39.9766 209.868 47.7049 214.78C46.6862 211.839 45.5621 208.899 44.438 205.993C43.1382 202.707 41.733 199.456 40.2576 196.273Z" fill="#4A6144"/>
<path d="M43.4544 164.76C38.9228 153.379 34.1804 142.137 29.438 131.033C29.438 130.999 29.4029 130.964 29.4029 130.964C29.2975 130.964 29.1921 130.964 29.1218 130.999C29.1218 131.033 29.1218 131.033 29.157 131.068C33.8993 142.103 38.6066 153.345 43.1382 164.691C50.6207 183.509 57.541 202.707 62.9509 222.044C63.0563 222.078 63.1616 222.113 63.267 222.148C57.8572 202.776 50.9368 183.578 43.4544 164.76Z" fill="#374234"/>
<path d="M219.941 21.689C220.539 23.5915 221.276 25.3903 222.26 27.0853C224.192 25.079 226.124 23.0726 228.056 21.1355C225.492 22.3116 222.26 22.6575 219.941 21.689Z" fill="#2B1919"/>
<path d="M218.852 12.5222C218.642 12.4184 218.431 12.3147 218.185 12.2109C218.185 12.2109 218.185 12.2109 218.185 12.2455C218.22 12.5568 218.22 12.8681 218.255 13.1449C218.466 12.9027 218.642 12.6952 218.852 12.5222Z" fill="#2B1919"/>
<path d="M238.63 30.7174C231.323 33.969 226.897 26.2897 229.461 20.3399C229.251 20.4783 229.005 20.6166 228.794 20.755C226.721 22.8997 224.578 25.1481 222.471 27.4312C224.297 30.4407 226.792 32.9659 230.269 34.6263C238.033 37.7741 244.567 36.6326 249.098 32.7583L249.134 32.7237C246.464 30.3715 243.724 28.123 240.878 25.9783C240.913 27.9155 240.246 29.6797 238.63 30.7174Z" fill="#2B1919"/>
<path d="M199.602 5.32715C199.567 5.32715 199.497 5.29256 199.461 5.29256C199.356 5.25797 199.215 5.22337 199.11 5.18878C198.794 5.32715 198.478 5.50011 198.162 5.63847C198.653 5.46551 199.11 5.36174 199.602 5.32715Z" fill="#374234"/>
<path d="M179.262 14.5977C179.649 14.5977 180 14.6323 180.351 14.7361C185.34 12.28 190.539 9.72026 195.527 7.29884C196.054 6.81456 196.616 6.39946 197.178 6.08813C191.276 8.78629 185.164 11.692 179.262 14.5977Z" fill="#374234"/>
<path d="M165.386 21.689C165.457 21.7928 165.527 21.9312 165.562 22.0349C167.986 20.8242 170.691 19.5097 173.571 18.0915C173.853 17.711 174.169 17.3305 174.52 16.95C171.323 18.5758 168.232 20.1324 165.386 21.689Z" fill="#374234"/>
<path d="M209.86 40.4722C207.646 42.9974 205.504 45.4534 203.501 47.8403C203.501 47.8403 203.501 47.8403 203.501 47.8057C203.607 47.8749 203.677 47.9786 203.782 48.0478C203.782 48.0478 203.782 48.0824 203.747 48.0824C203.782 48.117 203.782 48.1516 203.817 48.1516C206.066 45.5572 208.525 42.7899 211.089 39.8842C211.124 39.815 211.159 39.7458 211.194 39.6766C210.773 39.988 210.351 40.2301 209.86 40.4722Z" fill="#374234"/>
<path d="M228.056 21.1355C226.124 23.0727 224.192 25.079 222.26 27.0853C219.45 30.0256 216.639 33.0005 213.899 36.0099C213.864 36.2175 213.829 36.3904 213.794 36.598C213.97 36.4942 214.18 36.3904 214.356 36.3213C216.991 33.381 219.731 30.4061 222.471 27.4658C224.578 25.1828 226.721 22.9343 228.794 20.7896C228.548 20.8934 228.302 20.9972 228.056 21.1355Z" fill="#374234"/>
<path d="M164.543 20.6167C158.817 15.4279 148.208 19.3022 151.44 27.6042C154.778 33.5539 168.372 27.8809 165.562 22.0349C165.492 21.9311 165.457 21.7928 165.386 21.689C165.176 21.3431 164.895 20.9626 164.543 20.6167ZM165 22.4154C165.211 22.3462 165.316 22.6922 165.105 22.7613C162.049 23.5915 158.923 24.2834 155.796 24.8022C155.585 24.8368 155.48 24.4909 155.691 24.4563C158.817 23.9374 161.909 23.2456 165 22.4154Z" fill="#4A6144"/>
<path d="M197.951 55.1737C197.81 55.3467 197.564 55.1045 197.705 54.9316C199.813 52.7177 201.85 50.4001 203.501 47.8403C202.272 46.8025 200.269 46.8717 198.829 47.183C194.227 47.6673 189.906 52.1988 191.838 56.8687C195.843 66.5198 207.927 55.5196 204.133 48.6013C204.063 48.4629 203.958 48.3246 203.852 48.1862C203.817 48.1516 203.817 48.117 203.782 48.117C202.096 50.6422 200.059 52.9598 197.951 55.1737Z" fill="#4A6144"/>
<path d="M179.227 14.5977C180.07 13.7329 180.492 12.4876 180.176 10.7926C178.244 3.35538 167.248 0.864779 165.316 9.54729C165 13.9058 170.937 16.5694 175.433 16.1543C176.066 15.67 176.768 15.2203 177.576 14.909C178.138 14.7014 178.7 14.5977 179.227 14.5977ZM177.33 14.148C175.539 11.6574 173.326 9.54729 170.726 7.88689C170.761 6.43404 177.295 13.0756 177.646 13.975C177.752 14.148 177.436 14.3209 177.33 14.148Z" fill="#4A6144"/>
<path d="M179.262 14.5977C179.227 14.5977 179.227 14.5977 179.192 14.5977C178.665 14.5977 178.138 14.7014 177.541 14.909C176.733 15.2203 176.03 15.67 175.398 16.1543C175.082 16.3964 174.766 16.6732 174.485 16.9499C174.133 17.2958 173.817 17.6763 173.536 18.0914C170.445 22.4846 171.534 29.0916 178.419 29.5759C184.883 29.1262 185.761 16.2235 180.351 14.736C180.035 14.6322 179.649 14.5977 179.262 14.5977ZM178.208 15.9813C178.489 19.3367 178.138 22.7267 177.225 25.9783C177.155 26.1859 176.838 26.1167 176.874 25.8745C177.787 22.6575 178.103 19.3021 177.857 15.9813C177.822 15.7738 178.173 15.7738 178.208 15.9813Z" fill="#4A6144"/>
<path d="M212.459 37.6012C212.635 37.3936 212.845 37.2207 213.021 37.0823C212.389 36.8401 211.475 36.8056 210.913 36.7364C208.173 36.3213 205.398 36.0099 202.588 35.8024C201.78 34.9376 207.892 36.0791 208.63 36.0791C210.211 36.3213 211.827 36.4942 213.372 36.8401C213.513 36.7364 213.618 36.6672 213.759 36.598C213.829 36.3905 213.864 36.2175 213.864 36.0099C213.97 35.0068 213.653 33.8999 212.74 32.7929C207.471 27.1545 196.581 30.1294 199.075 38.6735C200.691 42.2364 206.03 42.2364 209.824 40.4723C210.281 40.2647 210.738 40.0226 211.159 39.7458C211.511 38.9848 211.932 38.2584 212.459 37.6012Z" fill="#4A6144"/>
<path d="M213.408 36.8056C213.513 36.8401 213.653 36.8747 213.759 36.8747C213.934 37.0477 214.005 37.532 214.11 37.7395C215.129 40.4377 216.815 45.0384 217.834 47.8057C217.904 48.0133 217.588 48.117 217.482 47.9095C216.499 45.3151 215.55 42.6861 214.567 40.0918C214.251 39.2962 214.075 38.293 213.618 37.532C213.478 37.3244 213.267 37.1861 213.021 37.0823C212.845 37.2552 212.635 37.4282 212.459 37.6012C211.932 38.2584 211.475 38.9848 211.159 39.7113C211.124 39.7804 211.089 39.8496 211.054 39.9188C208.7 45.7994 213.091 53.2712 220.293 50.0542C225.948 46.5258 219.906 34.142 214.321 36.2521C214.145 36.3213 213.934 36.425 213.759 36.5288C213.653 36.6326 213.513 36.7018 213.408 36.8056Z" fill="#4A6144"/>
<path d="M198.162 5.63847C197.845 5.74225 197.529 5.91521 197.213 6.08817C196.651 6.39949 196.089 6.81459 195.562 7.29887C192.401 10.2046 190.574 15.6701 194.649 18.7141C200.761 23.9375 205.96 15.4279 204.169 9.78947C203.642 7.88693 202.834 6.67622 201.885 5.98439C201.429 5.84602 200.937 5.70766 200.48 5.56929C197.108 19.1638 196.37 19.2676 200.129 5.46552C199.953 5.43092 199.813 5.36174 199.637 5.32715C199.11 5.36174 198.653 5.46551 198.162 5.63847Z" fill="#4A6144"/>
<path d="M155.691 24.4909C155.48 24.5255 155.55 24.8714 155.796 24.8368C158.923 24.3179 162.049 23.6261 165.105 22.7959C165.316 22.7267 165.246 22.4154 165 22.45C161.909 23.2456 158.817 23.9374 155.691 24.4909Z" fill="#374234"/>
<path d="M177.857 15.9813C178.138 19.3367 177.822 22.6575 176.874 25.8746C176.803 26.0821 177.155 26.1859 177.225 25.9783C178.138 22.7267 178.489 19.3713 178.208 15.9813C178.173 15.7738 177.822 15.7738 177.857 15.9813Z" fill="#374234"/>
<path d="M177.611 13.975C177.295 13.0756 170.761 6.43402 170.691 7.88688C173.29 9.54728 175.504 11.6574 177.295 14.148C177.436 14.3209 177.752 14.148 177.611 13.975Z" fill="#374234"/>
<path d="M197.705 54.9316C197.564 55.1045 197.81 55.3467 197.951 55.1737C200.059 52.9598 202.096 50.6422 203.747 48.117C203.747 48.117 203.747 48.0824 203.782 48.0824C203.712 48.0132 203.607 47.9095 203.501 47.8403C203.501 47.8403 203.501 47.8403 203.501 47.8749C201.85 50.4001 199.813 52.6831 197.705 54.9316Z" fill="#374234"/>
<path d="M208.665 36.0445C207.927 36.0791 201.815 34.903 202.623 35.7678C205.398 35.9753 208.173 36.2867 210.948 36.7018C211.511 36.7709 212.424 36.8055 213.056 37.0477C213.337 37.1514 213.548 37.2898 213.653 37.4974C214.075 38.2238 214.286 39.227 214.602 40.0572C215.585 42.6515 216.534 45.2805 217.518 47.8749C217.588 48.0824 217.939 47.9786 217.869 47.7711C216.85 45.0038 215.129 40.4031 214.145 37.7049C214.075 37.4974 214.005 36.9785 213.794 36.8401C213.689 36.8055 213.548 36.7709 213.443 36.7709C211.862 36.4596 210.246 36.2867 208.665 36.0445Z" fill="#374234"/>
<path d="M218.29 13.1448C217.096 14.6322 216.639 16.7077 217.377 19.3021C217.904 20.4436 218.817 21.2393 219.941 21.6889C222.26 22.6575 225.492 22.3116 228.056 21.1355C228.302 21.0317 228.548 20.8933 228.794 20.755C229.04 20.6166 229.251 20.4782 229.461 20.3399C229.707 19.7864 229.988 19.2675 230.34 18.7487C229.426 18.1952 228.513 17.6417 227.564 17.0883C225.351 16.7769 223.103 16.5348 220.89 16.3964C220.117 15.5662 225.667 16.604 226.827 16.6732C224.227 15.1857 221.557 13.802 218.852 12.5222C218.642 12.6951 218.466 12.9027 218.29 13.1448Z" fill="#4A6144"/>
<path d="M229.461 20.3399C226.897 26.2551 231.323 33.969 238.63 30.7174C240.281 29.6797 240.913 27.9155 240.878 25.9783C238.384 24.0758 235.82 22.277 233.185 20.582C234.133 23.1764 235.328 26.3589 236.101 28.4689C236.171 28.6765 235.855 28.7803 235.749 28.5727C234.766 25.9783 233.817 23.3494 232.834 20.755C232.763 20.6166 232.728 20.4437 232.693 20.3053C231.92 19.7864 231.112 19.3022 230.34 18.8179C229.988 19.2676 229.672 19.821 229.461 20.3399Z" fill="#4A6144"/>
<path d="M220.89 16.431C223.138 16.604 225.351 16.8115 227.564 17.1229C227.318 16.9845 227.073 16.8461 226.792 16.6732C225.667 16.604 220.117 15.6008 220.89 16.431Z" fill="#374234"/>
<path d="M232.869 20.7204C233.853 23.3148 234.801 25.9438 235.785 28.5381C235.855 28.7457 236.206 28.6419 236.136 28.4344C235.363 26.3243 234.169 23.1418 233.22 20.5475C233.08 20.4437 232.904 20.3399 232.763 20.2361C232.763 20.4091 232.799 20.5821 232.869 20.7204Z" fill="#374234"/>
<path d="M200.445 5.56929C200.34 5.5347 200.199 5.50011 200.094 5.46552C196.3 19.2676 197.037 19.1638 200.445 5.56929Z" fill="#374234"/>
</g>
<defs>
<clipPath id="clip0">
<rect width="300" height="230" fill="white"/>
</clipPath>
</defs>
</svg>
