<svg width="997" height="950" viewBox="0 0 997 950" fill="none" xmlns="http://www.w3.org/2000/svg">
<path fill-rule="evenodd" clip-rule="evenodd" d="M367.178 179.957C379.683 174.969 384.683 169.018 399.727 168.636C405.172 162.801 422.886 160.675 425.362 154.427C427.188 149.819 426.153 149.346 431.006 146.639C436.774 143.421 446.24 142.317 453.561 142.645C465.433 143.178 474.413 139.649 476.818 145.12C473.1 146.737 470.619 146.074 467.669 148.703C464.364 151.649 466.598 150.004 462.541 151.619C459.183 152.955 461.768 152.33 459.307 153.71C458.176 150.649 454.733 147.267 450.373 147.264C449.664 147.264 437.018 149.516 436.592 149.651C438.868 161.622 448.718 145.134 455.117 163.301C455.263 163.129 455.389 162.585 455.443 162.71C455.496 162.835 455.691 162.259 455.763 162.13C457.51 159.043 456.076 160.316 457.581 159.39C459.52 162.042 461.029 167.632 463.293 159.195C467.413 163.158 475.411 159.144 483.834 156.699C489.014 155.193 499.897 150.659 505.538 151.707C504.796 156.073 498.835 157.002 498.05 161.305C501.907 160.879 507.197 156.68 512.006 155.172C524.828 151.151 539.046 152.253 551.594 152.455C558.784 152.57 565.763 151.859 572.955 152.572C576.283 152.867 579.411 153.527 582.563 153.946C588.85 154.784 604.848 154.713 608.478 161.039C608.597 161.246 608.895 161.946 608.983 162.14L609.447 163.283C614.755 161.877 615.049 162.454 620.349 163.618C643.307 168.657 623.935 170.205 636.123 174.935C653.623 181.73 668.225 192.7 671.331 194.072C676.959 196.556 676.236 188.504 690.314 198.205L715.548 213.682C728.02 220.637 737.073 238.387 742.869 240.331C739.464 235.292 725.701 222.65 726.042 215.362C737.025 211.886 746.116 229.235 754.033 239.738L775.501 273.123C778.614 276.772 776.626 272.593 778.093 276.784C779.813 281.7 782.626 284.9 786.748 288.863C788.732 290.769 792.25 292.251 793.425 295.677C798.049 309.157 803.169 304.125 807.67 322.023C809.691 330.062 813.441 335.376 814.768 343.304C828.044 386.737 842.803 442.347 845.116 496.292C845.371 496.051 845.73 495.734 846.437 495.27C846.892 500.039 846.242 502.926 847.305 507.812C848.419 512.933 848.395 514.662 847.601 520.059C845.818 532.196 850.36 523.299 843.848 543.56L843.457 544.011C841.237 561.927 837.029 579.149 830.238 595.095C818.902 629.589 815.646 644.654 796.146 674.409C790.174 683.524 795.158 678.738 785.261 691.339L772.364 707.05C766.242 715.386 769.873 713.285 759.729 723.031C755.346 727.242 749.778 732.184 746.548 738.697L733.464 751.667C730.739 753.902 729.963 753.488 729.882 757.513C725.629 756.08 728.72 756.086 724.922 759.799C719.904 764.703 710.522 768.465 706.446 774.806C702.302 774.23 702.506 773.172 698.479 777.182C698.317 777.344 697.887 777.841 697.72 778.003L696.878 778.778C696.646 778.976 695.457 779.826 695.015 780.184C693.551 781.371 692.807 782.283 691.668 783.473C696.351 783.139 696.238 781.313 700.209 783.714L703.418 785.297C700.046 788.137 700.537 790.128 695.198 790.207C697.187 787.209 697.146 789.093 698.766 785.784C694.673 786.309 692.417 788.341 688.957 789.988C687.093 790.877 689.587 790.169 687.456 790.406C685.098 790.669 688.842 790.155 685.698 790.331C682.662 790.502 682.667 791.16 680.699 793.678L678.427 796.181C673.85 799.879 669.025 802.475 664.243 805.154C659.308 807.918 656.83 808.496 652.175 812.149C652.108 815.55 653.422 815.344 651.672 817.284L655.559 818.016C649.088 822.174 651.922 815.491 643.938 822.276C641.814 824.081 641.904 823.8 641.403 827.135L654.191 822.749C652.55 823.527 651.099 824.741 649.091 825.718C644.576 827.912 645.802 825.886 643.963 830.134C640.407 826.552 638.311 830.695 636.227 834.156C639.112 833.566 639.244 832.436 641.652 833.354C640.038 834.096 636.601 834.901 635.211 836.594C632.949 839.351 635.066 840.999 631.212 842.584L633.271 837.592C626.677 837.314 631.506 839.681 626.975 841.921C622.707 844.033 623.651 841.35 619.541 845.652C616.895 848.422 617.622 845.297 617.393 849.235C617.167 853.123 618.325 852.01 620.567 854.107L622.16 855.502C623.582 856.672 622.691 855.813 623.911 857.531C628.532 857.806 629.328 857.292 630.882 855.243C633.193 852.199 629.208 855.209 632.535 852.978C637.034 852.372 637.783 853.889 640.958 854.738C643.828 850.314 640.913 853.299 645.524 851.37C647.455 850.561 648.759 849.533 651.53 848.967C651.372 849.124 651.167 849.172 651.098 849.474C650.695 851.18 647.846 852.317 646.613 853.327C646.483 853.433 646.308 853.591 646.183 853.703C641.691 857.751 644.964 856.338 637.84 856.74C637.74 856.746 637.488 856.746 637.321 856.796L637.333 857.705C637.591 859.842 638.764 858.349 637.034 861.157C633.762 866.462 634.685 861.24 632.884 864.928C633.787 868.584 635.469 868.174 639.177 868.313L640.535 871.233C640.793 871.142 641.872 869.685 642.027 869.61C644.295 868.505 644.875 870.285 649.833 866.78C653.622 864.103 654.277 862.318 659.582 860.553C664.139 859.039 671.514 858.816 673.169 854.134C674.486 850.412 672.412 853.127 673.044 849.337C673.172 848.569 673.54 847.308 673.677 846.077L680.476 844.755C679.879 844.471 678.801 843.7 678.005 842.854C678.458 842.409 678.839 842.116 679.173 841.789L680.637 840.295C676.149 840.857 678.12 840.868 675.432 843.552L673.179 839.676L671.492 843.18C670.623 844.722 671.236 844.27 669.126 844.906C669.178 844.756 669.338 844.391 669.362 844.493L670.275 841.614C664.43 841.466 668.09 843.619 665.14 846.251C660.51 850.379 661.176 844.101 660.738 853.082C654.936 853.076 659.254 855.06 655.246 856.714C653.122 852.721 656.871 857.27 654.89 854.167C653.677 852.266 656.1 854.488 653.747 853.194C653.59 853.109 653.312 853.026 653.154 852.955C652.957 852.867 652.051 852.655 651.812 852.539C651.953 852.365 652.163 851.888 652.23 852.018L654.062 849.42C654.561 848.518 655.31 847.254 654.7 845.638C649.385 844.134 643.843 850.902 638.914 851.103C641.612 849.685 651.872 842.898 655.572 842.588C661.28 842.109 655.204 846.097 668.886 839.682C675.646 836.513 674.899 836.954 671.921 831.027C674.655 829.011 678.105 828.368 681.554 826.67C683.835 825.549 684.261 824.529 687.467 823.917C685.018 835.312 680.037 825.28 674.809 834.968C678.133 837.045 674.118 835.38 678.662 835.683C680.576 835.811 680.421 835.939 682.409 836.384C682.164 833.805 682.216 834.435 681.012 832.79L684.143 831.821C685.268 834.433 681.938 833.438 685.695 834.727C686.081 834.073 689.319 827.003 689.629 826.095C689.783 826.257 689.945 826.331 690.013 826.642C690.08 826.951 690.3 827.06 690.397 827.182C692.314 829.632 692.994 829.925 696.445 829.44C696.688 829.406 697.346 829.289 697.558 829.258C697.696 829.238 697.953 829.2 698.072 829.181C698.19 829.166 698.484 829.13 698.576 829.117C698.669 829.106 698.914 829.103 699.078 829.066C699.372 827.578 698.994 824.596 697.907 822.882C694.974 818.254 696.765 824.778 695.167 820.376C696.052 819.58 699.812 817.445 701.856 817.182L703.462 820.705L709.754 817.252C708.705 821.905 707.012 819.647 703.674 823.14C704.49 825.559 702.509 823.764 706.475 825.173C703.148 827.359 705.732 826.97 703.461 830.567L701.854 827.303L699.149 831.459C697.654 834.207 696.476 835.145 692.211 835.751C690.946 833.569 691.271 832.538 688.863 831.732C686.927 837.534 691.068 839.927 681.015 838.533L682.791 847.352C688.758 846.268 688.2 842.493 694.492 842.736C695.061 834.48 694.938 837.527 701.854 837.059C704.704 833.781 703.362 831.999 710.486 832.282C709.703 835.666 709.592 834.98 707.154 836.242L709.029 837.375C710.645 838.531 709.86 837.217 710.878 838.97L705.042 840.648L705.965 842.629C706.027 847.534 704.113 839.568 705.872 843.738C711.146 842.263 711.099 841.464 716.14 843.511L717.655 839.123C723.822 839.558 724.555 837.363 726.997 840.211C721.706 841.776 713.592 845.122 707.43 847.456C701.472 849.714 693.533 853.453 687.225 854.812C687.686 859.144 688.937 855.542 687.215 858.342C681.15 858.827 687.219 858.088 684.342 856.871C682.48 856.083 682.264 856.744 681.028 857.799C676.987 861.247 680.005 859.71 673.834 860.974C668.857 861.995 664.615 865.327 659.348 867.224C648.723 871.05 661.628 869.293 645.614 872.695C633.607 875.245 638.519 876.63 632.368 879.766C632.225 879.84 631.935 879.926 631.741 880.048C635.266 879.646 635.913 878.161 637.518 879.122C634.049 883.584 622.727 883.841 620.355 884.246C616.472 884.912 605.212 886.994 603.819 890.159C606.838 891.527 609.777 889.302 614.084 889.393C611.929 892.421 611.255 890.572 607.056 894.085L604.415 896.634C617.753 894.626 616.863 891.398 619.506 888.969C621.468 887.167 622.468 887.508 624.496 886.217L625.65 886.905C629.021 889.133 629.792 889.797 637.947 887.553C646.86 885.101 643.227 885.698 646.067 883.5C647.28 882.56 647.523 882.483 649.461 882.471L646.761 885.052L652.624 885.263L651.423 888.725C651.046 891.036 652.989 891.046 649.368 892.244C644.466 893.863 642.158 891.885 638.092 891.166C633.2 890.303 632.09 891.993 628.592 893.21C624.673 894.574 609.696 895.833 599.372 901.56C597.379 902.666 593.736 904.739 591.623 905.804C585.92 908.68 583.167 908.349 582.495 911.44L582.942 916.094C584.797 919.379 583.064 916.471 584.538 917.909C586.323 916.278 586.621 917.341 585.714 915.271C584.129 911.66 586.233 917.964 583.718 913.737C586.791 912.654 587.614 911.448 590.163 909.799C590.89 910.986 591.274 909.385 590.529 912.576C589.051 910.5 590.173 911.288 587.37 911.731L587.239 917.606C591.528 916.588 593.678 914.199 596.264 911.919C601.03 907.715 600.011 909.124 605.903 908.855C605.985 906.626 605.561 906.366 604.528 904.992L610.882 905.37C610.408 908.863 608.627 908.345 608.85 912.752C615.65 912.277 626.283 909.345 632.69 907.507C637.079 906.249 640.342 905.187 644.222 903.764C649.448 901.847 652.288 902.21 650.607 896.392L647.213 899.783C644.504 899.555 644.624 899.722 642.811 898.044C643.912 896.253 650.255 894.473 652.805 893.296C659.133 890.372 659.498 891.464 662.481 895.693C665.389 895.256 666.037 894.615 668.664 893.871C673.127 892.607 673.373 893.987 675.784 893.522C686.476 891.466 683.167 887.865 689.832 887.265C698.829 886.456 694.519 884.003 700.191 883.043C702.595 882.637 703.012 882.32 704.956 881.34C707.943 879.835 710.412 878.625 713.365 877.03C720.886 872.969 720.171 875.09 720.736 871.768C730.747 869.873 729.825 872.332 741.249 864.996L791.849 831.939C792.77 833.027 793.337 833.967 795.1 834.049C796.965 834.137 796.824 833.449 798.806 832.67C797.505 836.756 796.487 834.605 795.471 837.706C797.429 837.335 817.048 819.155 818.837 817.291C824.563 811.33 830.89 809.014 843.065 796.125C847.94 790.967 851.552 792.732 856.937 787.662C860.536 784.273 864.557 780.396 867.808 776.262C872.768 769.956 870.952 768.175 879.312 765.343C883.195 764.026 887.124 756.198 889.21 752.446C889.289 752.26 889.31 751.732 889.327 751.849C889.343 751.963 889.411 751.383 889.436 751.273C890.179 747.718 889.46 750.089 894.333 745.51C897.222 742.796 898.726 741.843 900.903 737.767C905.112 729.876 907.862 725.957 917.07 726.882C923.15 710.565 929.681 706.512 934.991 692.473C938.256 683.844 938.688 688.766 941.913 681.938C945.689 682.662 943.122 682.046 945.947 684.542L953.508 660.789C954.399 658.663 956.413 656.116 957.662 653.871C959.73 650.157 958.266 641.007 958.575 635.473C958.795 631.494 960.143 631.404 961.497 628.505C963.028 625.23 962.749 622.585 963.736 619.632C964.632 616.957 966.039 616.074 967.401 613.007C968.325 610.929 969.06 607.754 970.432 605.721C974.885 599.127 979.589 599.017 977.79 592.497C975.723 585.016 972.366 592.877 976.719 577.957C982.412 558.445 981.68 570.92 985.698 565.135C986.329 558.562 987.124 552.422 988.153 545.873L990.21 514.041C990.058 508.516 991.651 508.728 992.297 504.401C993.549 496.029 990.431 499.85 994.276 495.126C996.645 492.217 996.879 489.794 995.369 485.585C994.45 483.026 992.135 480.511 991.419 478.276L989.399 458.137C990.206 453.916 992.598 454.315 993.25 450.059C993.768 446.679 993.258 442.967 994.598 440.172C997.193 434.761 996.874 438.079 996.353 431.165C996.067 427.39 997.026 423.67 996.835 421.045C996.376 414.754 994.756 422.355 996.07 411.588C994.717 409.986 992.264 408.889 991.635 406.471C990.776 403.16 992.371 402.216 990.874 397.683L986.524 373.565C986.22 368.264 986.773 369.781 984.596 365.965C981.843 361.142 982.174 355.003 980.215 351.288C978.304 346.513 978.303 348.521 977.922 342.355C977.7 338.771 976.757 335.821 975.652 332.908C971.852 322.883 973.159 322.091 968.283 316.187C969.419 312.765 970.565 313.781 969.402 310.738C968.819 309.216 967.212 307.27 966.517 304.857C965.011 299.631 967.369 301.833 963.357 290.644C962.435 288.075 961.513 286.804 960.692 284.6C959.809 282.233 959.786 279.812 958.765 277.735C957.739 275.649 956.325 274.771 955.037 272.729C953.756 270.697 953.085 269.097 952.221 266.802L948.552 266.837C949.726 263.087 951.963 262.382 950.421 258.451C949.155 255.225 946.922 254.667 945.42 252.262C940.067 243.687 945.238 242.678 934.32 230.013C928.722 223.517 935.613 227.329 920.981 209.196C906.455 191.196 915.978 196.944 909.266 187.579C907.536 185.166 906.677 182.974 904.889 180.826C902.601 178.073 901.364 178.63 898.8 175.74C893.294 169.537 896.233 173.305 892.907 170.501C890.14 168.168 891.051 166.321 888.708 163.598C886.861 161.453 884.477 161.166 881.333 159.289C879.772 153.284 884.896 150.848 877.812 147.453C872.561 144.937 872.351 143.697 869.199 139.369C865.087 133.725 860.178 124.103 852.114 123.216L851.548 121.976C850.315 119.331 851.448 120.032 849.371 118.598C847.796 117.51 845.73 117.724 843.347 117.576C841.099 110.282 838.384 109.792 833.847 105.468C829.129 100.971 814.839 90.803 808.868 87.4208C804.976 85.2157 805.489 84.1437 802.672 82.3722C799.924 80.6434 798.137 80.1842 795.464 78.4781C790.427 75.2664 786.926 73.2973 782.151 70.2534C779.5 68.5644 777.722 67.3104 774.829 66.3123C771.963 65.3228 768.129 65.5602 765.874 64.2096C761.003 61.2865 768.458 60.4122 738.674 47.5256C733.897 45.4584 697.03 29.7639 694.224 26.4129C691.562 23.2339 693.522 22.9126 687.927 21.5989C684.582 20.8141 681.954 20.463 678.702 19.5829C673.393 18.1484 667.068 16.4963 661.323 15.4286C652.121 13.7183 650.828 15.7954 643.259 10.9928C638.357 7.88209 631.919 8.00862 625.5 7.20392C612.567 5.58173 608.608 7.34467 604.476 6.75607C600.142 4.63059 588.834 4.13583 583.2 5.10118C573.171 6.81863 564.519 1.85253 550.997 4.08464C545.011 5.07133 546.034 4.22113 541.483 2.93873C536.717 1.59662 475.294 0.611359 470.487 0.976744C458.131 1.91651 449.614 -1.84966 437.862 1.24545C433.324 2.44113 434.325 4.61637 431.065 7.16269C423.862 6.85702 431.546 4.95759 423.851 5.04005C419.231 5.08981 420.633 6.80584 416.588 7.19112C389.388 9.78009 402.501 10.6601 394.88 12.0677C389.422 13.0757 384.557 12.2155 375.762 18.7327C374.39 19.0299 362.926 21.9785 362.266 22.3155C359.823 23.5638 360.341 24.8021 356.314 25.1774C352.776 25.5073 345.132 23.106 334.805 27.7365C329.94 29.9189 329.401 33.8272 324.126 34.4229C318.465 35.0613 315.422 36.6977 310.229 37.5479L295.316 40.3416C293.812 41.061 292.552 42.7571 290.822 43.7893C285.668 46.8616 281.657 44.567 275.978 55.0608C270.174 55.1973 267.264 53.7286 262.007 56.4768C256.568 59.3203 257.268 61.0718 256.329 67.5208C248.374 70.0415 239.805 72.2466 235.988 77.6819C232.187 77.8781 226.736 81.1936 223.852 84.4692C215.313 94.1612 218.566 90.6495 211.87 92.2703C205.122 93.9024 205.261 99.868 202.004 101.577C196.466 104.484 196.756 100.044 191.223 107.712C189.075 110.69 189.624 108.019 187.088 111.506C180.082 121.14 179.977 114.236 166.762 125.451L148.437 140.532C146.383 142.373 146.918 141.6 145.724 143.895C144.058 144.331 145.297 143.644 143.422 145.107L137.629 151.266C131.943 157.39 134.227 152.957 129.707 160.031C126.075 165.717 119.644 167.669 112.351 176.128C107.192 182.115 102.191 187.033 97.4936 193.883C95.5418 196.729 96.2011 195.876 93.664 197.901C91.5673 199.574 83.992 208.315 85.1932 213.356C77.5339 213.54 80.5304 217.582 73.8912 225.903C67.4157 234.02 59.3333 247.021 53.2752 254.558C49.147 259.693 46.4607 262.467 43.4642 269.681C38.4377 274.394 30.2611 287.421 28.2137 294.567C26.6705 299.949 25.423 305.049 24.0682 310.15C23.3654 312.799 22.3454 315.061 21.2181 317.74C19.3228 322.241 20.1516 321.554 19.4851 326.345C18.8316 331.043 17.6536 328.498 16.9291 333.524C16.3002 337.89 16.6089 337.604 14.8904 341.467C10.9086 350.414 14.8063 353.85 13.3936 357.392C12.9502 358.503 10.6 360.973 9.51903 363.033C7.48322 366.911 8.53807 367.263 7.67882 371.298C6.9384 374.768 0.390485 382.942 5.53145 385.168C2.08868 387.463 2.4147 387.406 1.85395 392.281C1.19177 398.039 0.193426 415.017 4.69974 419.112L6.75873 420.482C-1.22658 431.359 0.699111 432.556 1.32362 444.7C1.57284 449.527 0.0267857 450.303 0.000704106 454.921C-0.0398672 461.715 1.68733 468.223 1.44535 475.448C1.19757 482.871 -0.177509 488.978 0.754182 496.239C1.96408 505.671 8.88148 518.629 12.104 528.62C16.1684 541.218 18.9287 549.128 20.9326 563.122C21.7165 568.592 25.0187 576.601 24.4406 580.892C23.2249 589.911 17.2913 587.557 23.9508 596.605C29.8337 604.598 26.7662 622.162 33.2445 635.637C35.4673 640.26 32.1042 636.363 35.5818 642.727L40.8937 654.075C43.2961 658.184 41.9152 659.337 43.5004 662.499C45.5304 666.547 52.4754 673.544 56.334 682.251C58.422 686.96 58.5756 684.861 62.3139 687.536C61.5836 688.045 62.8399 687.425 60.6998 688.434C59.8289 688.844 60.2158 688.538 59.0783 689.114C59.2261 697.181 61.3025 695.25 62.5124 698.096C63.4832 700.382 60.962 699.165 63.5441 702.027C65.0278 703.671 65.0438 702.09 67.0753 704.882C65.7886 705.95 64.4888 705.61 62.7573 705.396C63.063 710.49 75.5952 726.943 79.8059 729.374C84.4369 732.05 80.9187 731.498 84.7556 734.838C87.3623 737.106 88.11 737.265 90.5921 740.134C93.1916 743.138 98.1949 749.065 99.8207 752.395L103.282 748.953C104.163 754.159 104.34 754.162 107.451 756.717C111.079 759.696 110.437 761.787 112.592 763.483C116.122 766.258 117.808 763.213 120.338 767.758C121.664 770.137 122.236 773.953 123.759 776.242C125.992 779.6 133.141 783.859 136.301 787.542C139.828 791.652 144.078 798.087 147.385 801.105C149.925 803.425 149.37 801.787 151.32 803.472L152.413 804.77C153.22 805.639 153.152 805.534 154.089 806.318C156.335 808.201 159.889 813.77 165.537 818.773L177.739 830.391C180.107 832.623 180.8 835.167 182.993 837.122L199.286 851.087C202 853.534 200.194 851.926 203.338 853.452C207.516 855.479 205.771 857.286 208.6 860.088C210.095 861.57 213.559 863.237 215.514 865.133C219.783 869.267 222.119 874.392 227.077 877.455C232.473 880.787 239.427 888.465 247.105 894.069C256.033 900.586 258.57 910.009 275.203 913.79L304.306 920.799C310.297 922.45 310.819 921.086 316.158 921.619C318.684 923.379 318.209 924.255 320.592 925.995C322.099 927.096 324.751 927.956 326.472 928.964C331.652 931.995 336.453 930.433 340.442 932.568C342.492 933.666 343.159 935.492 344.889 936.879C347.475 938.95 348.123 938.207 351.073 939.51C355.598 941.511 352.358 943.922 362.229 946.672C374.573 950.109 381.207 949.236 394.326 948.708C405.242 948.268 410.871 950.034 413.776 945.051C414.782 943.323 411.346 945.364 414.612 944.03C418.408 942.48 416.683 947.365 416.441 949.212C421.582 950.139 436.684 949.976 441.63 948.69C453.027 945.728 465.493 946.673 476.356 941.778C484.999 937.884 484.096 942.344 496.879 934.257C501.709 931.202 503.179 931.999 509.249 931.91C510.331 927.8 514.98 923.84 520.257 924.022C521.529 926.066 520.758 927.473 521.864 929.332C527.158 922.614 523.869 924.601 524.418 917.882C529.564 915.384 534.437 912.3 539.225 909.581C542.941 907.47 544.051 909.114 546.363 905.548C547.84 903.272 549.417 900.059 550.654 897.929C554.792 890.802 558.775 890.847 562.022 886.195C563.984 883.385 563.888 881.558 566.456 878.724C572.122 872.47 566.433 867.542 574.317 851.727C582.679 834.956 568.079 838.552 565.549 829.921C563.92 824.362 570.807 818.574 563.532 812.944C559.443 809.78 559.468 812.756 554.005 812.27C549.874 810.168 547.809 804.909 545.415 801.836C541.616 801.268 539.666 801.894 536.501 801.561L531.818 798.338C531.743 798.223 531.633 797.964 531.505 797.798C516.155 799.22 520.848 792.576 516.469 790.662C509.958 790.216 505.148 790.038 499.358 788.497C491.834 786.494 491.022 783.993 484.9 788.555C478.49 785.419 474.084 787.857 467.361 786.797C459.411 785.54 457.897 786.327 450.599 788.734C448.938 800.252 443.26 797.482 442.111 792.502C442.05 792.238 441.899 791.4 441.847 791.173L441.511 789.926C433.339 790.005 424.991 791.714 423.113 783.727C424.933 781.376 425.785 781.212 428.84 779.968L434.186 778.241C435.866 777.649 435.263 778.005 436.051 777.419C432.931 775.102 433.163 776.35 429.426 776.742C426.057 777.096 424.143 776.429 420.688 776.798C418.891 779.25 417.642 782.664 415.797 785.243C407.897 786.244 407.642 781.657 405.037 777.005C403.31 773.919 397.1 771.32 392.604 770.346C391.576 776.527 393.161 777.449 387.083 779.119C375.959 782.177 373.916 777.071 367.238 770.663C363.482 767.059 360.439 768.684 356.105 766.645L346.801 761.541C343.886 759.95 340.691 757.394 337.834 755.367C326.417 747.261 315.583 737.778 306.09 728.172C302.067 724.101 296.15 714.959 292.332 712.483C285.178 707.841 287.286 705.728 282.784 700.572C280.646 698.122 279.789 698.593 278.149 697.215C275.794 695.239 277.24 695.432 275.768 692.526C274.37 689.768 273.78 690.386 271.652 688.62C269.067 686.477 267.703 683.036 264.733 680.262C257.888 680.47 258.281 680.539 253.258 675.147C250.172 671.833 247.771 668.79 245.033 665.082L236.746 655.096C233.803 650.766 235.187 645.482 229.34 643.202C228.991 648.049 229.594 650.626 229.474 654.618C224.062 658.39 222.372 654.08 216.949 648.485C212.935 644.345 210.066 640.946 205.663 636.715C191.597 623.204 192.416 621.774 191.402 604.91C189.709 606.565 190.866 605.765 190.056 607.144C188.075 610.518 190.995 608.466 187.594 609.736C185.007 608.033 186.711 609.477 185.478 606.039C184.067 602.107 180.878 599.248 180.685 594.815C160.075 558.15 139.084 492.454 149.163 421.659C150.003 412.238 149.589 416.108 155.399 413.959C158.22 405.438 159.298 374.418 160.295 369.926C162.58 359.641 173.405 337.068 173.536 334.128C179.236 328.779 175.988 324.486 190.708 312.936C195.42 309.238 196.803 308.67 200.397 303.527C203.312 299.354 205.615 296.478 208.381 292.451C211.285 288.222 214.504 286.137 217.792 282.755C227.136 273.143 222.753 275.038 232.358 268.64C234.632 267.126 237.097 266.281 238.559 265.319L247.626 254.892L265.63 239.799L314.552 206.6C318.161 204.5 322.347 202.912 325.4 200.767L325.78 199.392C325.836 199.211 326.07 198.344 326.158 198.121C327.152 195.602 327.83 195.442 333.013 193.099C336.78 191.398 339.988 189.983 344.054 188.248C350.456 185.517 362.953 183.329 367.177 179.957H367.178ZM548.725 148.164C552.663 147.487 551.319 146.659 555.348 145.618C557.467 145.07 560.496 144.813 563.222 144.49L563.762 141.953C553.194 131.945 550.764 140.316 544.352 137.298C536.085 133.407 529.478 136.527 522.204 134.375C519.306 133.518 514.239 128.5 502.527 132.448C495.595 134.786 487.142 132.12 478.512 132.208L480.753 139.927C483.67 139.605 494.482 137.564 496.888 138.795C494.998 142.065 490.609 140.81 484.812 140.947C479.567 141.074 481.358 141.174 480.884 141.731C476.988 148.734 493.165 146.551 497.667 145.835C514.17 143.215 512.256 140.795 515.517 147.287C519.834 147.675 521.442 147.297 525.266 146.818C530.03 146.221 536.233 149.664 544.584 148.77C549.565 148.237 545.726 146.528 548.725 148.163V148.164ZM240.939 710.673C239.032 709.648 239.995 707.844 237.828 705.266C230.673 696.757 235.123 705.806 231.301 692.018C230.282 688.345 228.853 687.833 228.509 684.384L233.419 681.262C232.641 677.137 232.542 681.648 230.241 672.639C229.385 669.285 227.183 667.977 223.172 668.105C218.973 673.898 220.396 677.471 215.56 678.95C214.895 677.537 213.977 675.386 213.365 673.146C212.093 668.489 213.309 672.069 214.955 668.052C202.133 666.413 205.683 672.308 210.125 678.049C213.458 682.356 216.205 686.919 219.335 690.298C222.73 693.965 236.939 710.588 240.941 710.673H240.939ZM707.966 859.414C708.067 855.539 708.117 857.673 709.163 856.433L711.342 854.683C708.267 852.938 701.535 860.974 699.481 862.605C696.409 865.04 688.921 869.661 683.581 867.298C685.124 865.775 690.943 864.362 693.215 863.54C691.987 862.67 693.307 863.124 691.272 862.768C690.075 862.559 689.619 862.61 688.386 862.723C668.102 864.582 676.838 871.968 660.889 879.111C665.223 881.743 675.289 875.326 678.23 873.303C683.782 869.487 691.831 870.019 699.075 871.822C695.792 874.864 695.719 872.801 692.688 874.394C698.414 879.156 703.087 876.398 706.737 872.029C704.874 870.839 703.507 872.735 699.695 869.46C701.062 866.715 730.176 853.059 733.801 850.224C721.379 849.404 725.439 853.156 720.003 854.393C712.658 856.062 712.698 861.988 707.964 859.416L707.966 859.414ZM677.914 802.783L677.114 806.934C679.833 807.544 679.088 807.048 679.927 807.079C682.678 807.181 681.164 806.616 682.406 807.378C680.519 810.939 681.379 804.974 677.233 809.964C673.392 814.586 675.361 811.229 671.585 813.967C670.585 814.692 670.01 815.416 669.787 816.946L669.997 819.671C670.69 822.634 671.147 823.435 675.341 825.442C677.195 823.329 677.627 822.924 675.915 820.782C676.115 820.675 676.454 820.359 676.548 820.531C676.549 820.534 678.436 820.314 679.311 818.417L675.417 817.888C683.113 815.717 683.583 817.335 691.552 813.047C696.302 810.491 700.482 807.299 704.94 804.847C701.322 803.053 702.683 806.212 700.84 802.649C701.76 800.86 701.457 801.796 702.522 800.812C703.11 800.27 702.732 801.23 704.165 799.456L695.483 803.34C694.235 800.994 691.918 798.146 696.796 798.048C701.293 797.959 702.515 799.651 703.648 794.338L688.787 799.147C685.491 800.56 688.46 798.421 685.789 801.028C679.911 806.768 681.855 804.836 677.916 802.783H677.914Z" fill="url(#paint0_linear)" fill-opacity="0.05"/>
<defs>
<linearGradient id="paint0_linear" x1="212.7" y1="799.21" x2="735.417" y2="249.1" gradientUnits="userSpaceOnUse">
<stop stop-color="#9D141C"/>
<stop offset="0.6" stop-color="#C04215"/>
<stop offset="1" stop-color="#E4700D"/>
</linearGradient>
</defs>
</svg>
