<svg width="915" height="1192" viewBox="0 0 915 1192" fill="none" xmlns="http://www.w3.org/2000/svg">
  <path
    d="M169.142 532.542C223.614 529.615 269.686 545.268 320.849 526.815C413.883 493.218 472.428 383.775 568.517 360.741C623.752 347.506 689.169 367.741 741.732 346.488C799.767 322.945 840.621 281.459 873.457 228.137C884.02 210.957 900.183 193.777 919.019 178.124C916.474 196.068 914.565 213.757 914.565 231.955C914.692 308.438 916.856 384.921 919.656 461.276C921.438 509.38 923.474 557.612 925.51 605.716C919.91 606.352 914.438 606.352 909.22 605.589C853.094 597.698 815.421 576.828 759.041 582.682C663.588 592.608 585.189 649.748 489.609 658.529C453.464 661.837 403.829 652.675 367.939 647.075C332.048 641.476 311.94 630.659 277.704 642.748C252.759 651.529 217.505 646.566 207.069 670.236C195.106 666.037 181.742 661.583 162.397 658.91C130.452 654.456 89.3438 663.364 65.9261 686.017L39.3266 643.385C71.6532 601.262 116.325 535.341 169.142 532.542Z"
    fill="url(#paint0_linear)"/>
  <path
    d="M265.231 618.824C299.467 606.734 337.012 609.915 372.902 615.515C408.792 621.114 444.937 628.877 481.082 625.568C576.662 616.787 652.261 532.923 747.713 522.87C804.094 517.016 859.33 537.759 915.456 545.649C918.001 546.031 920.674 546.286 923.219 546.667C928.31 670.745 933.783 794.823 933.783 919.029C933.783 933.409 939.51 946.008 948.673 955.297C946.892 966.496 945.746 977.822 944.728 989.021C942.055 1019.05 942.437 1049.34 939.128 1079.38C938.492 1083.58 937.855 1087.77 937.092 1091.97L877.402 1101.14C894.456 1012.56 826.239 1007.09 806.258 982.022C772.404 939.772 748.604 957.715 691.715 906.175C630.497 850.69 654.424 826.765 607.207 815.948C566.48 806.531 546.754 800.168 516.972 782.988C491.009 767.972 473.573 780.952 445.446 748.628C416.811 715.795 410.192 672.909 373.029 676.854C319.067 682.453 315.376 677.49 263.322 680.163C238.505 681.435 224.25 676.09 207.451 670.236C217.76 646.566 240.414 627.732 265.231 618.824Z"
    fill="url(#paint1_linear)"/>
  <path
    d="M162.779 658.783C182.124 661.455 195.487 665.91 207.451 670.109C218.014 673.8 227.432 677.236 239.014 679.017C241.941 679.399 250.595 680.672 263.322 680.035C301.631 678.126 336.885 660.819 370.484 660.819C404.465 660.819 430.301 678.381 461.355 699.252C503.863 728.139 501.7 744.81 530.59 754.1C571.571 767.335 588.371 737.684 626.043 746.465C673.133 757.282 668.042 809.458 729.132 864.943C782.84 913.684 812.876 906.939 855.384 941.935C888.602 969.296 923.729 1020.2 932.128 1124.43C932.128 1124.55 932.128 1124.55 932.128 1124.68C930.347 1138.68 928.947 1152.8 928.056 1166.93C927.547 1175.2 927.165 1183.47 926.91 1191.75C891.529 1189.07 856.021 1186.4 820.639 1183.73C743.005 1162.6 702.787 1127.1 680.26 1097.32C634.697 1037.13 651.497 988.639 602.243 949.571C552.226 909.993 504.882 940.79 472.937 901.085C439.465 859.471 480.7 812.512 447.483 767.208C415.538 723.685 344.139 721.904 306.594 721.013C243.214 719.486 223.232 739.593 165.324 731.703C125.107 726.231 93.9256 710.832 74.9623 699.633L66.3079 685.762C89.7256 663.364 130.834 654.456 162.779 658.783Z"
    fill="url(#paint2_linear)"/>
  <path
    d="M62.108 532.033C86.6711 511.035 117.471 499.072 146.361 484.438C175.251 469.803 203.887 450.714 217.887 421.571C234.305 387.466 229.341 342.543 256.704 316.455C274.65 299.402 301.122 295.966 325.558 291.767C349.994 287.44 376.593 279.55 389.066 258.17C406.883 227.374 383.72 203.703 401.029 172.143C419.738 137.91 459.446 151.018 494.064 117.294C531.227 81.0252 515.7 36.3571 532.754 5.6876C536.317 -0.675373 541.281 -6.65657 548.408 -12.0015C616.88 -13.6558 685.351 -17.0918 753.822 -20.7824C761.713 -21.1641 768.968 -23.073 775.458 -26C816.185 -20.0188 863.275 -11.1106 918.001 1.36078C925.256 47.8105 933.019 144.528 883.766 244.808C865.566 281.841 834.512 353.615 761.713 383.139C709.023 404.519 648.443 388.229 593.207 401.464C496.991 424.371 440.228 528.851 347.321 562.448C296.031 580.9 239.777 575.683 185.306 578.61C132.488 581.409 71.6532 601.135 39.8356 643.257L25.3268 619.969C16.6724 588.79 37.5448 553.158 62.108 532.033Z"
    fill="url(#paint3_linear)"/>
  <path d="M612.171 53.0281C610.898 62.6998 619.043 70.7172 628.588 69.5719C635.206 68.8083 640.425 63.4634 641.315 56.9732C642.588 47.3014 634.443 39.2841 624.898 40.4294C618.28 41.193 612.934 46.5379 612.171 53.0281Z" fill="url(#paint4_linear)"/>
  <path
    d="M655.443 66.2631C656.079 66.2631 656.715 65.8813 656.97 65.245C657.733 62.8271 658.37 60.2819 658.497 57.7367C659.388 46.5379 654.552 35.9753 645.515 29.3579C644.752 28.8488 643.861 28.9761 643.352 29.7396C642.843 30.5032 642.97 31.394 643.734 31.903C651.879 37.8842 656.206 47.4287 655.443 57.4822C655.315 59.7729 654.806 62.0635 654.043 64.2269C653.788 64.9905 654.17 66.0086 655.061 66.2631C655.061 66.1358 655.188 66.2631 655.443 66.2631Z"
    fill="url(#paint5_linear)"/>
  <path
    d="M626.679 86.8791C627.57 86.8791 628.334 86.8791 629.225 86.7518C635.079 86.3701 640.679 84.2067 645.388 80.7707C646.152 80.2616 646.279 79.2435 645.77 78.6072C645.261 77.8437 644.243 77.7164 643.606 78.2255C639.279 81.407 634.316 83.1886 629.098 83.5704C619.807 84.3339 611.152 80.6434 605.043 73.6441C604.534 73.0078 603.516 72.8806 602.88 73.5169C602.244 74.0259 602.116 75.044 602.753 75.6803C608.734 82.9341 617.389 86.8791 626.679 86.8791Z"
    fill="url(#paint6_linear)"/>
  <path
    d="M595.371 60.2819L596.898 60.1546C598.425 59.9001 598.298 58.373 598.171 57.7367C598.171 57.6094 598.171 57.4822 598.044 57.3549C597.789 52.9008 598.044 32.7939 619.425 27.3217C622.607 26.5581 625.788 26.1764 628.97 26.4309C629.861 26.5581 630.625 25.7946 630.625 25.031C630.752 24.1402 629.988 23.3767 629.225 23.3767C625.661 23.1221 622.098 23.3767 618.661 24.2675C594.607 30.5032 594.098 54.4279 594.989 58.882L595.371 60.2819Z"
    fill="url(#paint7_linear)"/>
  <path
    d="M643.225 102.023C643.352 102.023 643.606 102.023 643.734 101.896C647.552 100.496 651.115 98.7142 654.424 96.4235C669.061 86.6246 677.206 70.2081 676.569 52.6463C676.569 51.7555 675.806 51.1192 674.915 51.1192C674.024 51.1192 673.388 51.8828 673.388 52.7736C674.151 69.19 666.388 84.4612 652.643 93.7511C649.461 95.9145 646.152 97.5689 642.588 98.8415C641.825 99.096 641.316 99.9868 641.697 100.878C641.952 101.641 642.588 102.023 643.225 102.023Z"
    fill="url(#paint8_linear)"/>
  <path
    d="M613.698 103.168C614.334 103.168 614.971 102.659 615.225 102.023C615.48 101.132 614.971 100.369 614.08 100.114C605.68 97.8234 598.171 93.3693 592.444 87.0064C582.135 75.9348 577.808 61.1727 580.608 46.2833C580.735 45.3925 580.226 44.629 579.335 44.5017C578.444 44.3745 577.68 44.8835 577.553 45.7743C574.626 61.5545 579.208 77.4619 590.28 89.1698C596.516 95.9145 604.534 100.623 613.443 103.168C613.443 103.168 613.571 103.168 613.698 103.168Z"
    fill="url(#paint9_linear)"/>
  <path
    d="M666.77 29.3579C667.024 29.3579 667.406 29.2306 667.66 29.1033C668.424 28.5943 668.551 27.5762 668.042 26.9399C664.861 22.3586 661.042 18.2863 656.461 14.8503C639.025 1.86982 622.607 3.52419 611.789 7.08746C599.825 11.1598 591.935 18.5408 590.916 19.8134C590.153 20.7042 590.407 21.595 591.044 22.1041C592.189 23.1221 593.334 22.1041 594.098 21.3405C594.225 21.2133 594.353 21.086 594.353 20.9587C599.698 16.1229 625.534 -4.23863 654.552 17.5227C658.752 20.7042 662.442 24.522 665.37 28.8488C665.751 29.1033 666.261 29.3579 666.77 29.3579Z"
    fill="url(#paint10_linear)"/>
  <path
    d="M384.738 321.546C384.738 332.999 388.429 343.561 394.793 352.088C404.211 364.686 419.229 372.958 436.156 372.958C464.537 372.958 487.573 349.924 487.573 321.546C487.573 302.838 477.646 286.549 462.755 277.514C462.119 277.132 461.61 276.877 460.973 276.496C458.937 275.35 456.901 274.46 454.737 273.569C449.01 271.278 442.774 270.133 436.156 270.133C407.774 270.133 384.738 293.167 384.738 321.546Z"
    fill="url(#paint11_linear)"/>
  <g opacity="0.2">
    <path
      opacity="0.2"
      d="M405.993 279.932C399.884 288.458 396.193 298.766 396.193 310.092C396.193 321.546 399.884 332.108 406.247 340.634C415.665 353.233 430.683 361.505 447.61 361.505C458.937 361.505 469.246 357.814 477.773 351.706C468.482 364.559 453.337 372.958 436.283 372.958C419.356 372.958 404.338 364.814 394.92 352.088C388.556 343.561 384.866 332.999 384.866 321.546C384.738 304.365 393.138 289.349 405.993 279.932Z"
      fill="black"/>
  </g>
  <path d="M461.864 321.546C465.027 321.546 467.591 318.982 467.591 315.819C467.591 312.656 465.027 310.092 461.864 310.092C458.701 310.092 456.137 312.656 456.137 315.819C456.137 318.982 458.701 321.546 461.864 321.546Z" fill="url(#paint12_linear)"/>
  <path
    d="M305.576 321.546C305.576 249.517 364.121 190.977 436.156 190.977C508.191 190.977 566.735 249.517 566.735 321.546C566.735 393.574 508.191 452.114 436.156 452.114C364.121 452.114 305.576 393.447 305.576 321.546ZM310.158 321.546C310.158 391.029 366.666 447.532 436.156 447.532C505.645 447.532 562.153 391.029 562.153 321.546C562.153 252.062 505.645 195.559 436.156 195.559C366.666 195.559 310.158 252.062 310.158 321.546Z"
    fill="url(#paint13_linear)"/>
  <path
    d="M326.576 227.883C326.576 236.409 333.321 243.408 341.721 243.917C341.976 243.917 342.23 243.917 342.612 243.917C351.521 243.917 358.648 236.791 358.648 227.883C358.648 222.538 356.103 217.829 352.157 215.029C349.484 213.12 346.175 211.975 342.612 211.975C333.703 211.848 326.576 218.974 326.576 227.883Z"
    fill="url(#paint14_linear)"/>
  <path
    opacity="0.2"
    d="M333.83 214.52C331.794 217.193 330.648 220.502 330.648 224.065C330.648 232.591 337.394 239.59 345.794 240.099C346.048 240.099 346.303 240.099 346.685 240.099C349.994 240.099 352.921 239.081 355.466 237.427C352.539 241.372 347.83 243.917 342.612 243.917C342.357 243.917 342.103 243.917 341.721 243.917C333.321 243.535 326.576 236.536 326.576 227.883C326.576 222.283 329.376 217.32 333.83 214.52Z"
    fill="black"/>
  <path
    d="M851.693 156.236C873.329 165.271 883.638 190.214 874.602 211.848C865.566 233.482 840.621 243.79 818.985 234.755C813.003 232.209 807.785 228.519 803.712 223.938C793.149 212.102 789.585 194.795 796.076 179.142C805.112 157.508 830.057 147.327 851.693 156.236Z"
    fill="url(#paint15_linear)"/>
  <path
    opacity="0.2"
    d="M808.676 161.962C800.404 173.925 798.622 189.832 805.112 203.958C812.24 219.229 827.385 228.392 843.294 228.519C849.403 228.519 855.639 227.246 861.621 224.574C864.675 223.174 867.475 221.392 870.02 219.356C865.82 225.465 860.093 230.555 852.966 233.864C846.984 236.663 840.748 237.936 834.639 237.809C818.73 237.682 803.585 228.646 796.458 213.248C788.058 195.05 793.658 173.925 808.676 161.962Z"
    fill="black"/>
  <path
    d="M754.841 165.016C753.568 168.198 755.222 172.016 759.168 176.47C765.531 183.596 778.004 191.995 793.022 200.14C803.458 205.867 815.294 211.466 827.385 216.429C838.966 221.265 850.803 225.592 861.875 228.901C888.856 237.173 911.383 239.972 914.947 231.573C919.147 221.647 894.074 205.994 877.911 197.086C877.911 198.613 877.784 200.14 877.529 201.794C904.383 216.684 912.274 226.737 911.001 229.919C909.474 233.609 893.693 233.737 865.693 225.592C855.13 222.538 842.912 218.211 829.167 212.484C814.785 206.503 802.694 200.649 792.895 195.177C768.204 181.433 757.513 170.361 759.041 166.798C760.313 163.744 772.659 162.217 801.422 170.361C802.313 169.089 803.331 167.816 804.476 166.671C787.04 161.58 758.913 155.217 754.841 165.016Z"
    fill="url(#paint16_linear)"/>
  <path d="M763.368 550.612L789.204 583.064C796.458 592.226 790.349 599.735 779.786 594.517L742.877 576.319L763.368 550.612Z" fill="url(#paint17_linear)"/>
  <g opacity="0.7">
    <path opacity="0.7" d="M747.714 540.686L774.44 571.992C781.949 580.773 776.731 587.136 766.55 581.664L730.405 562.32L747.714 540.686Z" fill="url(#paint18_linear)"/>
  </g>
  <path d="M735.496 519.816C735.496 519.816 763.75 522.488 789.586 542.85C791.113 543.995 790.349 546.413 788.44 546.54C782.84 547.049 773.168 548.067 763.495 550.74L735.496 519.816Z" fill="url(#paint19_linear)"/>
  <path d="M706.478 555.703C706.478 555.703 715.005 582.809 740.332 603.807C741.732 605.08 744.023 603.807 743.768 601.898C743.005 596.299 742.368 586.372 742.877 576.319L706.478 555.703Z" fill="url(#paint20_linear)"/>
  <path d="M733.077 571.356C736.896 573.392 740.332 575.046 743.005 576.319L753.186 563.593L763.495 550.74C761.713 548.449 759.295 545.395 756.495 542.086L733.077 571.356Z" fill="#2D1552"/>
  <path d="M650.224 479.474C653.788 479.347 661.424 479.093 671.351 480.874L654.679 501.872C650.734 492.582 649.333 485.074 648.824 481.511C648.57 480.365 649.333 479.474 650.224 479.474Z" fill="url(#paint21_linear)"/>
  <path
    d="M671.351 480.747C683.951 483.165 699.605 488.383 713.987 499.836C724.678 508.362 744.914 528.597 756.495 541.959L733.077 571.229C717.423 562.829 693.369 547.431 682.678 538.905C668.297 527.451 659.77 513.325 654.679 501.618L671.351 480.747Z"
    fill="#ECF0F1"/>
  <path
    d="M671.351 480.747C683.951 483.165 699.605 488.383 713.987 499.836C724.678 508.362 744.914 528.597 756.495 541.959L733.077 571.229C717.423 562.829 693.369 547.431 682.678 538.905C668.297 527.451 659.77 513.325 654.679 501.618L671.351 480.747Z"
    fill="#FAFAFA"/>
  <g opacity="0.2">
    <path
      opacity="0.2"
      d="M682.678 539.032C668.297 527.579 659.77 513.453 654.679 501.745L654.806 501.618C650.988 492.455 649.333 484.947 648.824 481.383C648.697 480.747 648.952 480.238 649.333 479.856C650.606 478.202 667.024 480.111 667.024 480.111C666.897 480.493 657.351 481.765 654.806 484.947C652.77 487.365 659.769 501.999 661.933 505.944C667.278 516.125 669.951 521.852 685.096 535.214C698.205 546.667 728.75 564.356 741.095 570.083C744.15 571.483 748.986 568.811 749.113 568.938L743.132 576.319C740.459 575.174 737.023 573.392 733.204 571.356C717.423 562.957 693.369 547.558 682.678 539.032Z"
      fill="black"/>
  </g>
  <path d="M689.296 528.215C697.801 528.215 704.696 521.321 704.696 512.816C704.696 504.312 697.801 497.418 689.296 497.418C680.791 497.418 673.897 504.312 673.897 512.816C673.897 521.321 680.791 528.215 689.296 528.215Z" fill="url(#paint22_linear)"/>
  <path
    d="M767.186 574.41C767.822 573.646 767.695 572.374 766.931 571.738C766.931 571.738 753.059 555.957 747.714 551.631C742.368 547.304 724.169 537.632 724.169 537.632C723.405 536.996 722.132 537.123 721.496 537.887C720.86 538.65 720.987 539.923 721.75 540.559C721.75 540.559 735.241 556.339 740.714 560.539C746.059 564.866 764.641 574.665 764.641 574.665C765.404 575.301 766.55 575.174 767.186 574.41Z"
    fill="url(#paint23_linear)"/>
  <g opacity="0.2">
    <path
      opacity="0.2"
      d="M764.513 574.664C764.513 574.664 745.932 564.866 740.586 560.539C735.241 556.212 721.623 540.559 721.623 540.559C720.859 539.923 720.732 538.777 721.369 537.887C721.369 537.887 734.987 556.212 767.059 574.41C766.55 575.174 765.404 575.301 764.513 574.664Z"
      fill="black"/>
  </g>
  <path d="M681.406 522.488C686.751 526.815 694.642 525.924 698.969 520.579C703.296 515.234 702.405 507.344 697.06 503.017C691.715 498.691 683.824 499.581 679.497 504.926C675.297 510.399 676.06 518.161 681.406 522.488Z" fill="url(#paint24_linear)"/>
  <path opacity="0.4" d="M677.588 508.744L699.987 506.326C699.351 505.308 698.587 504.29 697.696 503.526L679.242 505.435C678.478 506.581 677.969 507.599 677.588 508.744Z" fill="white"/>
  <path opacity="0.4" d="M676.951 511.289L701.005 508.744C700.878 508.362 700.751 508.108 700.623 507.726L677.078 510.271C677.078 510.526 676.951 510.908 676.951 511.289Z" fill="white"/>
  <path
    d="M415.411 749.392C415.411 783.752 442.392 811.749 476.246 813.531C477.391 813.531 478.409 813.658 479.555 813.658C514.936 813.658 543.699 784.897 543.699 749.519C543.699 728.267 533.39 709.432 517.481 697.852C506.791 689.962 493.682 685.38 479.555 685.38C444.174 685.253 415.411 713.886 415.411 749.392Z"
    fill="url(#paint25_linear)"/>
  <path d="M498.9 762.627C498.9 766.699 502.209 770.008 506.282 770.008C510.354 770.008 513.663 766.699 513.663 762.627C513.663 758.554 510.354 755.246 506.282 755.246C502.209 755.246 498.9 758.554 498.9 762.627Z" fill="url(#paint26_linear)"/>
  <path d="M477.137 698.997C477.137 701.033 478.791 702.688 480.827 702.688C482.864 702.688 484.518 701.033 484.518 698.997C484.518 696.961 482.864 695.306 480.827 695.306C478.664 695.306 477.137 696.961 477.137 698.997Z" fill="url(#paint27_linear)"/>
  <g opacity="0.2">
    <path
      opacity="0.2"
      d="M444.301 695.816C436.41 706.505 431.701 719.613 431.701 733.993C431.701 768.353 458.682 796.35 492.536 798.132C493.682 798.132 494.7 798.259 495.845 798.259C508.827 798.259 521.045 794.314 531.099 787.697C519.39 803.477 500.682 813.785 479.555 813.785C478.409 813.785 477.264 813.785 476.246 813.658C442.392 811.876 415.411 783.879 415.411 749.519C415.411 726.994 426.992 707.269 444.301 695.816Z"
      fill="black"/>
  </g>
  <path
    d="M829.676 820.148C863.657 803.859 904.383 818.366 920.674 852.217C936.965 886.196 922.456 926.919 888.602 943.208C879.184 947.789 869.129 949.825 859.33 949.825C833.876 949.825 809.44 935.572 797.731 911.011C781.313 877.287 795.694 836.437 829.676 820.148Z"
    fill="url(#paint28_linear)"/>
  <g opacity="0.2">
    <path
      opacity="0.2"
      d="M816.185 828.802C803.203 848.145 800.403 873.724 811.221 896.249C822.93 920.683 847.366 935.063 872.82 935.063C882.62 935.063 892.674 932.9 902.092 928.446C907.056 926.155 911.511 923.228 915.583 919.919C908.965 929.718 899.929 937.99 888.475 943.462C879.057 948.044 869.002 950.08 859.202 950.08C833.748 950.08 809.312 935.827 797.604 911.266C783.604 882.123 792.258 848.145 816.185 828.802Z"
      fill="black"/>
  </g>
  <path
    d="M736.386 945.117C738.805 950.08 745.168 952.243 754.586 952.243C769.986 952.243 793.149 946.389 818.985 937.099C837.057 930.736 856.402 922.592 875.238 913.556C893.438 904.903 911.129 895.358 927.038 885.687C965.728 862.271 993.345 838.346 986.982 825.238C979.473 809.586 934.037 822.82 906.165 832.619C907.947 834.274 909.729 836.183 911.383 838.092C957.964 822.057 978.455 823.202 980.746 828.165C983.546 833.892 966.746 852.981 927.038 877.542C912.147 886.832 893.82 896.758 872.184 907.193C849.657 918.01 829.803 926.028 812.749 932.009C769.859 946.898 745.295 947.789 742.496 942.063C740.205 937.227 751.659 920.937 792.131 895.358C791.622 892.813 791.24 890.395 791.113 887.85C766.804 902.994 729.132 929.718 736.386 945.117Z"
    fill="url(#paint29_linear)"/>
  <path
    d="M351.903 532.669L396.829 553.794C397.211 553.921 397.593 554.176 397.975 554.43C402.047 557.103 403.065 562.702 400.393 566.647C397.72 570.72 392.12 571.738 388.175 569.065C387.793 568.811 387.538 568.556 387.284 568.302L350.503 534.832C348.594 533.305 349.612 531.524 351.903 532.669Z"
    fill="#FBAB3D"/>
  <path
    d="M646.025 701.924L690.951 723.049C691.333 723.176 691.715 723.431 692.096 723.685C696.169 726.358 697.187 731.957 694.515 735.902C691.842 739.975 686.242 740.993 682.297 738.32C681.915 738.066 681.66 737.811 681.406 737.557L644.625 704.087C642.716 702.56 643.861 700.779 646.025 701.924Z"
    fill="#FBAB3D"/>
  <path
    d="M761.077 11.6688L806.003 32.7939C806.385 32.9211 806.767 33.1756 807.149 33.4302C811.221 36.1026 812.24 41.702 809.567 45.6471C806.894 49.7194 801.294 50.7374 797.349 48.065C796.967 47.8105 796.713 47.556 796.458 47.3014L759.677 13.8322C757.768 12.3051 758.913 10.5235 761.077 11.6688Z"
    fill="#FBAB3D"/>
  <path opacity="0.5" d="M847.875 97.3144C847.875 99.2233 849.403 100.75 851.312 100.75C853.221 100.75 854.748 99.2233 854.748 97.3144C854.748 95.4055 853.221 93.8784 851.312 93.8784C849.275 93.8784 847.875 95.4055 847.875 97.3144Z" fill="white"/>
  <path opacity="0.5" d="M804.858 417.881C804.858 419.79 806.385 421.317 808.294 421.317C810.203 421.317 811.731 419.79 811.731 417.881C811.731 415.972 810.203 414.445 808.294 414.445C806.385 414.445 804.858 415.972 804.858 417.881Z" fill="white"/>
  <path
    d="M521.554 534.45L519.39 538.523C519.263 538.65 519.263 538.777 519.136 538.777L515.063 540.941C514.554 541.195 514.554 541.959 515.063 542.213L519.136 544.377C519.263 544.504 519.39 544.504 519.39 544.631L521.554 548.704C521.809 549.213 522.572 549.213 522.827 548.704L524.99 544.631C525.118 544.504 525.118 544.377 525.245 544.377L529.318 542.213C529.827 541.959 529.827 541.195 529.318 540.941L525.245 538.777C525.118 538.65 524.99 538.65 524.99 538.523L522.827 534.45C522.572 534.069 521.809 533.941 521.554 534.45Z"
    fill="white"/>
  <path
    d="M623.88 852.345L621.716 856.417C621.589 856.544 621.589 856.671 621.461 856.671L617.389 858.835C616.88 859.089 616.88 859.853 617.389 860.107L621.461 862.271C621.589 862.398 621.716 862.398 621.716 862.525L623.88 866.598C624.134 867.107 624.898 867.107 625.152 866.598L627.316 862.525C627.443 862.398 627.443 862.271 627.57 862.271L631.643 860.107C632.152 859.853 632.152 859.089 631.643 858.835L627.57 856.671C627.443 856.544 627.316 856.544 627.316 856.417L625.152 852.345C624.898 851.836 624.134 851.836 623.88 852.345Z"
    fill="white"/>
  <path
    d="M881.729 506.835L879.566 510.908C879.438 511.035 879.438 511.162 879.311 511.162L875.238 513.325C874.729 513.58 874.729 514.344 875.238 514.598L879.311 516.761C879.438 516.889 879.566 516.889 879.566 517.016L881.729 521.088C881.984 521.597 882.747 521.597 883.002 521.088L885.166 517.016C885.293 516.889 885.293 516.761 885.42 516.761L889.493 514.598C890.002 514.344 890.002 513.58 889.493 513.325L885.42 511.162C885.293 511.035 885.166 511.035 885.166 510.908L883.002 506.835C882.62 506.326 881.984 506.326 881.729 506.835Z"
    fill="white"/>
  <path
    d="M811.731 998.057L809.567 1002.13C809.44 1002.26 809.44 1002.38 809.312 1002.38L805.24 1004.55C804.731 1004.8 804.731 1005.57 805.24 1005.82L809.312 1007.98C809.44 1008.11 809.567 1008.11 809.567 1008.24L811.731 1012.31C811.985 1012.82 812.749 1012.82 813.003 1012.31L815.167 1008.24C815.294 1008.11 815.294 1007.98 815.421 1007.98L819.494 1005.82C820.003 1005.57 820.003 1004.8 819.494 1004.55L815.421 1002.38C815.294 1002.26 815.167 1002.26 815.167 1002.13L813.003 998.057C812.749 997.548 811.985 997.548 811.731 998.057Z"
    fill="white"/>
  <path
    d="M542.299 141.473L540.136 145.546C540.008 145.673 540.008 145.8 539.881 145.8L535.808 147.964C535.299 148.218 535.299 148.982 535.808 149.236L539.881 151.4C540.008 151.527 540.136 151.527 540.136 151.654L542.299 155.726C542.554 156.236 543.317 156.236 543.572 155.726L545.735 151.654C545.863 151.527 545.863 151.4 545.99 151.4L550.063 149.236C550.572 148.982 550.572 148.218 550.063 147.964L545.99 145.8C545.863 145.673 545.735 145.673 545.735 145.546L543.572 141.473C543.317 140.964 542.554 140.964 542.299 141.473Z"
    fill="white"/>
  <path
    d="M275.286 393.829L273.122 397.901C272.995 398.028 272.995 398.156 272.868 398.156L268.795 400.319C268.286 400.574 268.286 401.337 268.795 401.592L272.868 403.755C272.995 403.882 273.122 403.882 273.122 404.01L275.286 408.082C275.54 408.591 276.304 408.591 276.559 408.082L278.722 404.01C278.849 403.882 278.849 403.755 278.977 403.755L283.049 401.592C283.558 401.337 283.558 400.574 283.049 400.319L278.977 398.156C278.849 398.028 278.722 398.028 278.722 397.901L276.559 393.829C276.304 393.32 275.54 393.32 275.286 393.829Z"
    fill="white"/>
  <path
    d="M847.239 321.673L845.075 325.745C844.948 325.872 844.948 326 844.821 326L840.748 328.163C840.239 328.418 840.239 329.181 840.748 329.436L844.821 331.599C844.948 331.726 845.075 331.726 845.075 331.854L847.239 335.926C847.494 336.435 848.257 336.435 848.512 335.926L850.675 331.854C850.803 331.726 850.803 331.599 850.93 331.599L855.002 329.436C855.512 329.181 855.512 328.418 855.002 328.163L850.93 326C850.803 325.872 850.675 325.872 850.675 325.745L848.512 321.673C848.13 321.164 847.494 321.164 847.239 321.673Z"
    fill="white"/>
  <path opacity="0.5" d="M616.904 630.269C617.386 628.433 616.289 626.555 614.453 626.073C612.618 625.591 610.739 626.688 610.257 628.524C609.775 630.359 610.873 632.238 612.708 632.72C614.544 633.201 616.422 632.104 616.904 630.269Z" fill="white"/>
  <path opacity="0.5" d="M386.393 638.931C386.393 640.839 387.92 642.367 389.829 642.367C391.738 642.367 393.266 640.839 393.266 638.931C393.266 637.022 391.738 635.494 389.829 635.494C387.92 635.494 386.393 637.022 386.393 638.931Z" fill="white"/>
  <path opacity="0.5" d="M850.93 672.4C850.93 674.309 852.457 675.836 854.366 675.836C856.275 675.836 857.802 674.309 857.802 672.4C857.802 670.491 856.275 668.964 854.366 668.964C852.457 669.091 850.93 670.618 850.93 672.4Z" fill="white"/>
  <path opacity="0.5" d="M778.64 807.931C778.64 809.84 780.168 811.367 782.077 811.367C783.986 811.367 785.513 809.84 785.513 807.931C785.513 806.022 783.986 804.495 782.077 804.495C780.168 804.495 778.64 806.022 778.64 807.931Z" fill="white"/>
  <path opacity="0.5" d="M499.409 851.963C499.409 853.872 500.936 855.399 502.845 855.399C504.754 855.399 506.282 853.872 506.282 851.963C506.282 850.054 504.754 848.527 502.845 848.527C500.936 848.654 499.409 850.054 499.409 851.963Z" fill="white"/>
  <path opacity="0.5" d="M871.42 1131.81C871.42 1133.72 872.948 1135.24 874.857 1135.24C876.766 1135.24 878.293 1133.72 878.293 1131.81C878.293 1129.9 876.766 1128.37 874.857 1128.37C872.948 1128.5 871.42 1129.9 871.42 1131.81Z" fill="white"/>
  <path opacity="0.5" d="M733.332 1092.23C733.332 1094.14 734.859 1095.66 736.768 1095.66C738.677 1095.66 740.205 1094.14 740.205 1092.23C740.205 1090.32 738.677 1088.79 736.768 1088.79C734.859 1088.92 733.332 1090.45 733.332 1092.23Z" fill="white"/>
  <path opacity="0.5" d="M736.611 66.1028C737.093 64.2674 735.995 62.3889 734.16 61.907C732.324 61.4252 730.446 62.5225 729.964 64.358C729.482 66.1934 730.579 68.0719 732.415 68.5537C734.25 69.0355 736.129 67.9382 736.611 66.1028Z" fill="white"/>
  <path opacity="0.5" d="M693.624 175.197C693.624 177.106 695.151 178.633 697.06 178.633C698.969 178.633 700.496 177.106 700.496 175.197C700.496 173.288 698.969 171.761 697.06 171.761C695.024 171.761 693.624 173.288 693.624 175.197Z" fill="white"/>
  <path opacity="0.5" d="M651.624 366.723C651.624 368.632 653.152 370.159 655.061 370.159C656.97 370.159 658.497 368.632 658.497 366.723C658.497 364.814 656.97 363.287 655.061 363.287C653.152 363.414 651.624 364.814 651.624 366.723Z" fill="white"/>
  <path opacity="0.5" d="M91.5074 563.466C91.5074 565.375 93.0347 566.902 94.9437 566.902C96.8528 566.902 98.38 565.375 98.38 563.466C98.38 561.557 96.8528 560.03 94.9437 560.03C93.0347 560.03 91.5074 561.557 91.5074 563.466Z" fill="white"/>
  <path opacity="0.5" d="M334.38 474.284C334.623 472.402 333.294 470.68 331.411 470.438C329.529 470.195 327.807 471.524 327.564 473.406C327.322 475.288 328.651 477.011 330.533 477.253C332.415 477.496 334.138 476.167 334.38 474.284Z" fill="white"/>
  <path opacity="0.2" d="M169.906 961.279C263.742 961.279 339.812 949.941 339.812 935.954C339.812 921.968 263.742 910.629 169.906 910.629C76.0695 910.629 0 921.968 0 935.954C0 949.941 76.0695 961.279 169.906 961.279Z" fill="#717171"/>
  <path d="M324.767 752H124.233C121.852 752 120 753.785 120 756.079V927.921C120 930.215 121.852 932 124.233 932H324.767C327.148 932 329 930.215 329 927.921V756.079C329 753.785 327.148 752 324.767 752Z" fill="url(#paint30_linear)"/>
  <path
    d="M166.342 894.722L177.797 911.139C179.197 913.175 179.069 915.847 177.288 916.992L122.434 955.425L121.034 953.389C119.889 951.734 120.016 949.571 121.161 948.044C126.507 941.554 139.997 923.992 143.052 910.375C148.397 887.85 166.342 894.722 166.342 894.722Z"
    fill="#19151E"/>
  <path
    d="M157.815 459.367C157.815 459.367 147.125 499.454 181.233 518.289C183.906 519.688 198.669 508.744 198.669 508.744C198.669 508.744 205.287 516.761 207.705 523.379C208.596 525.797 198.924 533.432 199.942 535.723C211.014 560.284 262.686 522.615 245.25 514.344C230.359 507.344 223.741 490.673 223.741 490.673C223.741 490.673 185.178 437.352 157.815 459.367Z"
    fill="#D19574"/>
  <path
    d="M76.9986 900.194L79.7985 920.047C80.1804 922.592 78.7804 924.755 76.744 925.01L10.4362 934.172L10.0544 931.627C9.79982 929.591 10.818 927.682 12.727 926.919C20.3633 923.61 40.472 914.193 49.5082 903.376C64.1443 885.687 76.9986 900.194 76.9986 900.194Z"
    fill="#19151E"/>
  <path
    d="M198.796 466.239C198.796 466.239 175.506 451.986 162.779 458.095C156.288 461.276 156.543 468.53 156.543 468.53C136.052 466.876 126.252 448.678 130.325 439.515C133.252 433.025 137.707 428.571 150.179 431.37C150.179 431.37 154.634 417.881 168.379 417.372C182.124 416.863 187.342 423.48 187.342 423.48C187.342 423.48 201.087 412.663 212.414 418.517C220.432 422.589 223.869 439.388 223.869 439.388C223.869 439.388 236.214 442.187 237.996 451.477C240.414 464.076 236.468 468.912 236.468 468.912C236.468 468.912 257.595 496.145 225.396 503.145C219.287 504.417 193.96 490.673 203.887 471.075L198.796 466.239Z"
    fill="#19151E"/>
  <path d="M108.562 758.554C108.18 758.3 82.0894 882.76 76.9986 900.194L51.4172 901.085C51.4172 901.085 57.3989 788.715 75.9804 732.975C76.235 732.466 101.435 734.884 108.562 758.554Z" fill="url(#paint31_linear)"/>
  <path
    d="M291.322 667.818C291.322 667.818 304.813 733.484 288.267 748.119C274.904 760.082 194.087 759.318 126.634 751.81C126.634 751.81 163.033 877.033 166.342 894.722L144.07 907.193C144.07 907.193 54.0899 753.591 69.7442 705.996C74.7077 690.98 187.215 682.708 187.215 682.708L226.541 631.677L291.322 667.818Z"
    fill="url(#paint32_linear)"/>
  <path d="M191.415 466.876C191.033 466.239 191.033 465.476 191.415 464.84C192.687 462.676 196.124 458.095 200.96 461.404C206.305 465.094 204.014 473.493 200.069 477.184C199.051 478.075 197.524 477.82 196.887 476.675L191.415 466.876Z" fill="#D19574"/>
  <path
    d="M243.086 513.198C243.086 513.198 278.722 532.033 285.34 595.79C292.213 662.346 294.631 679.526 293.74 680.926C290.94 685.126 189.124 683.853 187.342 682.962C180.088 679.272 181.869 551.249 199.942 534.069C201.469 532.414 222.596 531.142 243.086 513.198Z"
    fill="url(#paint33_linear)"/>
  <path
    d="M170.924 683.344C170.542 681.053 168.506 679.526 166.215 679.908L76.1077 693.779L26.9813 616.915C25.7086 615.006 23.2905 614.497 21.3814 615.642C19.4724 616.915 18.9633 619.333 20.1087 621.241L70.6351 700.27C70.7623 700.397 70.7623 700.524 70.8896 700.651C70.8896 700.651 70.8896 700.651 70.8896 700.779C71.0169 700.906 71.1441 701.16 71.3987 701.288C71.3987 701.288 71.526 701.288 71.526 701.415C71.6532 701.542 71.7805 701.669 71.9078 701.669C71.9078 701.669 72.035 701.67 72.035 701.797C72.1623 701.924 72.4169 702.051 72.6714 702.051H72.7987C72.9259 702.051 73.1805 702.179 73.3077 702.179C73.435 702.179 73.435 702.179 73.5623 702.179C73.8168 702.179 73.9441 702.179 74.1986 702.179C74.4532 702.179 74.5804 702.179 74.835 702.179L167.488 687.925C169.779 687.671 171.306 685.508 170.924 683.344Z"
    fill="url(#paint34_linear)"/>
  <path
    d="M221.578 598.08L255.559 590.19C255.559 590.19 249.832 661.074 242.705 669.473C229.723 684.744 150.688 681.308 150.688 681.308L150.815 666.419C152.215 670.109 216.232 653.947 219.16 650.893C222.85 646.948 221.578 598.08 221.578 598.08Z"
    fill="#D19574"/>
  <path d="M257.85 597.698C257.85 597.698 253.014 539.414 232.141 543.995C211.396 548.449 219.414 601.516 219.414 601.516C219.414 601.516 245.377 603.552 257.85 597.698Z" fill="url(#paint35_linear)"/>
  <path
    d="M150.688 681.181C168.633 684.362 163.67 668.964 150.815 666.291C144.579 665.019 122.943 651.784 103.598 669.855C102.325 671 104.998 678.381 106.016 681.435C106.271 682.326 107.289 682.708 108.053 682.326C108.053 682.326 116.452 675.327 120.652 676.472C121.161 676.599 121.161 682.708 127.398 682.326C142.67 681.308 150.688 681.181 150.688 681.181Z"
    fill="#D19574"/>
  <defs>
    <linearGradient id="paint0_linear" x1="493.539" y1="434.504" x2="588.025" y2="594.858" gradientUnits="userSpaceOnUse">
      <stop stop-color="#B19E8B"/>
      <stop offset="1" stop-color="#2D1452"/>
    </linearGradient>
    <linearGradient id="paint1_linear" x1="722.598" y1="555.479" x2="619.524" y2="778.825" gradientUnits="userSpaceOnUse">
      <stop stop-color="#312E3A"/>
      <stop offset="1" stop-color="#291A41"/>
    </linearGradient>
    <linearGradient id="paint2_linear" x1="652.619" y1="777.205" x2="575.309" y2="857.385" gradientUnits="userSpaceOnUse">
      <stop stop-color="#3C3551"/>
      <stop offset="1" stop-color="#18141D"/>
    </linearGradient>
    <linearGradient id="paint3_linear" x1="427.117" y1="245.363" x2="538.784" y2="411.446" gradientUnits="userSpaceOnUse">
      <stop stop-color="#99979D"/>
      <stop offset="1" stop-color="#2F2342"/>
    </linearGradient>
    <linearGradient id="paint4_linear" x1="641.388" y1="54.9898" x2="611.982" y2="54.9898" gradientUnits="userSpaceOnUse">
      <stop stop-color="#F8A448"/>
      <stop offset="1" stop-color="#E5856A"/>
    </linearGradient>
    <linearGradient id="paint5_linear" x1="658.534" y1="47.5976" x2="642.966" y2="47.5976" gradientUnits="userSpaceOnUse">
      <stop stop-color="#F9A547"/>
      <stop offset="1" stop-color="#E48171"/>
    </linearGradient>
    <linearGradient id="paint6_linear" x1="645.999" y1="79.9991" x2="602.179" y2="79.9991" gradientUnits="userSpaceOnUse">
      <stop stop-color="#F8A447"/>
      <stop offset="1" stop-color="#E5846C"/>
    </linearGradient>
    <linearGradient id="paint7_linear" x1="630.655" y1="41.7071" x2="594.772" y2="41.7071" gradientUnits="userSpaceOnUse">
      <stop stop-color="#FAA743"/>
      <stop offset="1" stop-color="#E5856B"/>
    </linearGradient>
    <linearGradient id="paint8_linear" x1="676.635" y1="76.6682" x2="641.666" y2="76.6682" gradientUnits="userSpaceOnUse">
      <stop stop-color="#F8A349"/>
      <stop offset="1" stop-color="#E4826F"/>
    </linearGradient>
    <linearGradient id="paint9_linear" x1="615.318" y1="73.8488" x2="576.607" y2="73.8488" gradientUnits="userSpaceOnUse">
      <stop stop-color="#F8A448"/>
      <stop offset="1" stop-color="#E48270"/>
    </linearGradient>
    <linearGradient id="paint10_linear" x1="668.301" y1="16.9624" x2="590.491" y2="16.9624" gradientUnits="userSpaceOnUse">
      <stop stop-color="#F7A14D"/>
      <stop offset="1" stop-color="#E5856B"/>
    </linearGradient>
    <linearGradient id="paint11_linear" x1="487.536" y1="321.522" x2="384.767" y2="321.522" gradientUnits="userSpaceOnUse">
      <stop stop-color="#FBAB3D"/>
      <stop offset="1" stop-color="#EC8479"/>
    </linearGradient>
    <linearGradient id="paint12_linear" x1="441.526" y1="336.202" x2="473.292" y2="304.433" gradientUnits="userSpaceOnUse">
      <stop offset="0.4794" stop-color="#FBAB3D"/>
      <stop offset="0.8092" stop-color="#DD5DB6"/>
    </linearGradient>
    <linearGradient id="paint13_linear" x1="566.69" y1="321.522" x2="305.613" y2="321.522" gradientUnits="userSpaceOnUse">
      <stop stop-color="#BABABA"/>
      <stop offset="1" stop-color="#545454"/>
    </linearGradient>
    <linearGradient id="paint14_linear" x1="358.603" y1="227.877" x2="326.565" y2="227.877" gradientUnits="userSpaceOnUse">
      <stop stop-color="#9C9C9E"/>
      <stop offset="1" stop-color="#464448"/>
    </linearGradient>
    <linearGradient id="paint15_linear" x1="877.859" y1="195.533" x2="792.814" y2="195.533" gradientUnits="userSpaceOnUse">
      <stop stop-color="#F8A24B"/>
      <stop offset="1" stop-color="#2F2342"/>
    </linearGradient>
    <linearGradient id="paint16_linear" x1="903.417" y1="201.534" x2="856.738" y2="199.238" gradientUnits="userSpaceOnUse">
      <stop stop-color="#FAA940"/>
      <stop offset="1" stop-color="#E4846C"/>
    </linearGradient>
    <linearGradient id="paint17_linear" x1="750.413" y1="561.239" x2="782.196" y2="586.924" gradientUnits="userSpaceOnUse">
      <stop stop-color="#FEB73D"/>
      <stop offset="1" stop-color="#FD9326"/>
    </linearGradient>
    <linearGradient id="paint18_linear" x1="741.351" y1="553.254" x2="765.465" y2="571.254" gradientUnits="userSpaceOnUse">
      <stop stop-color="#7F70FE"/>
      <stop offset="1" stop-color="#501EA4"/>
    </linearGradient>
    <linearGradient id="paint19_linear" x1="768.431" y1="525.709" x2="754.292" y2="543.21" gradientUnits="userSpaceOnUse">
      <stop stop-color="#FBAB3D"/>
      <stop offset="1" stop-color="#DD5DB6"/>
    </linearGradient>
    <linearGradient id="paint20_linear" x1="733.642" y1="568.76" x2="719.205" y2="586.628" gradientUnits="userSpaceOnUse">
      <stop stop-color="#FBAB3D"/>
      <stop offset="1" stop-color="#DD5DB6"/>
    </linearGradient>
    <linearGradient id="paint21_linear" x1="664.477" y1="475.248" x2="647.642" y2="496.085" gradientUnits="userSpaceOnUse">
      <stop stop-color="#FBAB3D"/>
      <stop offset="1" stop-color="#DD5DB6"/>
    </linearGradient>
    <linearGradient id="paint22_linear" x1="698.964" y1="500.871" x2="679.615" y2="524.819" gradientUnits="userSpaceOnUse">
      <stop stop-color="#FBAB3D"/>
      <stop offset="1" stop-color="#DD5DB6"/>
    </linearGradient>
    <linearGradient id="paint23_linear" x1="747.845" y1="551.757" x2="740.728" y2="560.566" gradientUnits="userSpaceOnUse">
      <stop stop-color="#FBAB3D"/>
      <stop offset="1" stop-color="#DD5DB6"/>
    </linearGradient>
    <linearGradient id="paint24_linear" x1="697.111" y1="503.165" x2="681.468" y2="522.526" gradientUnits="userSpaceOnUse">
      <stop stop-color="#262626"/>
      <stop offset="1" stop-color="#1F172E"/>
    </linearGradient>
    <linearGradient id="paint25_linear" x1="543.781" y1="749.371" x2="415.45" y2="749.371" gradientUnits="userSpaceOnUse">
      <stop stop-color="#F7A04E"/>
      <stop offset="1" stop-color="#E87B88"/>
    </linearGradient>
    <linearGradient id="paint26_linear" x1="449.369" y1="762.632" x2="527.052" y2="762.632" gradientUnits="userSpaceOnUse">
      <stop stop-color="#F7A04E"/>
      <stop offset="1" stop-color="#D65EA8"/>
    </linearGradient>
    <linearGradient id="paint27_linear" x1="449.369" y1="699.053" x2="527.052" y2="699.053" gradientUnits="userSpaceOnUse">
      <stop stop-color="#F9A645"/>
      <stop offset="1" stop-color="#E36D9D"/>
    </linearGradient>
    <linearGradient id="paint28_linear" x1="927.271" y1="881.73" x2="790.861" y2="881.73" gradientUnits="userSpaceOnUse">
      <stop stop-color="#FBAB3D"/>
      <stop offset="1" stop-color="#DD5DB6"/>
    </linearGradient>
    <linearGradient id="paint29_linear" x1="716.837" y1="880.059" x2="969.921" y2="888.727" gradientUnits="userSpaceOnUse">
      <stop stop-color="#FBAB3D"/>
      <stop offset="1" stop-color="#DD5DB6"/>
    </linearGradient>
    <linearGradient id="paint30_linear" x1="128.147" y1="839.209" x2="395.992" y2="847.444" gradientUnits="userSpaceOnUse">
      <stop stop-color="#E57719"/>
      <stop offset="1" stop-color="#F29439"/>
    </linearGradient>
    <linearGradient id="paint31_linear" x1="71.2742" y1="879.769" x2="87.4031" y2="762.249" gradientUnits="userSpaceOnUse">
      <stop stop-color="#544A66"/>
      <stop offset="1" stop-color="#6C5B85"/>
    </linearGradient>
    <linearGradient id="paint32_linear" x1="100.574" y1="757.803" x2="250.366" y2="778.545" gradientUnits="userSpaceOnUse">
      <stop stop-color="#453B55"/>
      <stop offset="1" stop-color="#3C2D55"/>
    </linearGradient>
    <linearGradient id="paint33_linear" x1="293.772" y1="598.451" x2="183.202" y2="598.451" gradientUnits="userSpaceOnUse">
      <stop stop-color="#F8A349"/>
      <stop offset="1" stop-color="#E16C0E"/>
    </linearGradient>
    <linearGradient id="paint34_linear" x1="19.5489" y1="658.684" x2="170.995" y2="658.684" gradientUnits="userSpaceOnUse">
      <stop stop-color="#D2D2D2"/>
      <stop offset="1" stop-color="#727070"/>
    </linearGradient>
    <linearGradient id="paint35_linear" x1="195.056" y1="572.816" x2="229.624" y2="572.816" gradientUnits="userSpaceOnUse">
      <stop stop-color="#FEB73D"/>
      <stop offset="1" stop-color="#FD9326"/>
    </linearGradient>
  </defs>
</svg>
