<svg width="80" height="80" viewBox="0 0 80 80" fill="none" xmlns="http://www.w3.org/2000/svg">
    <g clip-path="url(#clip0)">
        <g clip-path="url(#clip1)">
            <path d="M75.6409 41.2244L76.391 40L75.6409 38.775C75.5151 38.5706 72.4976 33.7 66.6351 28.819C58.8379 22.3279 49.6521 18.8965 40.0702 18.8965C30.4907 18.8965 21.2823 22.326 13.4406 28.8141C7.54456 33.6926 4.4928 38.5596 4.36584 38.7646L3.59985 40L4.36584 41.2354C4.4928 41.4404 7.54456 46.3074 13.4406 51.1859C21.2823 57.674 30.4907 61.1035 40.0702 61.1035C49.6521 61.1035 58.8379 57.6721 66.6351 51.181C72.4976 46.3 75.5151 41.4294 75.6409 41.2244V41.2244ZM63.5114 47.6813C56.4972 53.4772 48.6102 56.4154 40.0702 56.4154C31.5271 56.4154 23.6145 53.4753 16.5527 47.6758C12.9004 44.6765 10.4242 41.6394 9.21143 40C10.4248 38.3594 12.901 35.3229 16.5527 32.3236C23.6145 26.5247 31.5265 23.584 40.0702 23.584C48.6102 23.584 56.4966 26.5228 63.5114 32.3181C67.1472 35.3223 69.6021 38.3636 70.7983 40C69.6008 41.637 67.1466 44.6783 63.5114 47.6813Z" fill="#FF7D00"/>
            <path d="M40 25.9167C32.2345 25.9167 25.9167 32.2345 25.9167 40C25.9167 47.7655 32.2345 54.0833 40 54.0833C47.7655 54.0833 54.0833 47.7655 54.0833 40C54.0833 32.2345 47.7655 25.9167 40 25.9167ZM40 49.3958C34.8193 49.3958 30.6042 45.1807 30.6042 40C30.6042 34.8193 34.8193 30.6042 40 30.6042C45.1807 30.6042 49.3958 34.8193 49.3958 40C49.3958 45.1807 45.1807 49.3958 40 49.3958Z" fill="#FF7D00"/>
            <path d="M4.6875 4.6875L14.4727 4.6875L14.4727 -4.875e-08L0 0L4.81579e-08 14.2969L4.6875 14.2969L4.6875 4.6875Z" fill="black"/>
            <path d="M65.5273 0L65.5273 4.6875L75.3125 4.6875L75.3125 14.2969L80 14.2969L80 -4.875e-08L65.5273 0Z" fill="black"/>
            <path d="M4.6875 65.7031L0 65.7031L4.81579e-08 80L14.4727 80L14.4727 75.3125L4.6875 75.3125L4.6875 65.7031Z" fill="black"/>
            <path d="M75.3125 75.3125L65.5273 75.3125L65.5273 80L80 80L80 65.7031L75.3125 65.7031L75.3125 75.3125Z" fill="black"/>
        </g>
    </g>
    <defs>
        <clipPath id="clip0">
            <rect width="80" height="80" fill="white"/>
        </clipPath>
        <clipPath id="clip1">
            <rect width="80" height="80" fill="white"/>
        </clipPath>
    </defs>
</svg>
