<svg width="80" height="80" viewBox="0 0 80 80" fill="none" xmlns="http://www.w3.org/2000/svg">
    <path d="M40 80C29.3156 80 19.2708 75.8392 11.7156 68.2844C4.16078 60.7292 0 50.6844 0 40C0 29.3156 4.16078 19.2708 11.7156 11.7156C19.2708 4.16078 29.3156 0 40 0C50.6844 0 60.7292 4.16078 68.2844 11.7156C75.8392 19.2708 80 29.3156 80 40C80 50.6844 75.8392 60.7292 68.2844 68.2844C60.7292 75.8392 50.6844 80 40 80V80ZM40 4.6875C30.5677 4.6875 21.7 8.36062 15.0303 15.0303C8.36062 21.7 4.6875 30.5677 4.6875 40C4.6875 49.4323 8.36062 58.3 15.0303 64.9697C21.7 71.6394 30.5677 75.3125 40 75.3125C49.4323 75.3125 58.3 71.6394 64.9697 64.9697C71.6394 58.3 75.3125 49.4323 75.3125 40C75.3125 30.5677 71.6394 21.7 64.9697 15.0303C58.3 8.36062 49.4323 4.6875 40 4.6875V4.6875Z" fill="black"/>
    <path d="M37.6562 9.38062H42.3438V15.6356H37.6562V9.38062Z" fill="#FF8510"/>
    <path d="M55.5629 21.1185L59.9852 16.6963L63.2993 20.0103L58.877 24.4326L55.5629 21.1185Z" fill="#FF8510"/>
    <path d="M64.3644 37.6562H70.6194V42.3438H64.3644V37.6562Z" fill="#FF8510"/>
    <path d="M55.5588 58.8856L58.8728 55.5716L63.2951 59.9938L59.9811 63.3079L55.5588 58.8856Z" fill="#FF8510"/>
    <path d="M37.6562 64.3643H42.3438V70.6193H37.6562V64.3643Z" fill="#FF8510"/>
    <path d="M16.6835 59.9895L21.1058 55.5672L24.4199 58.8813L19.9976 63.3036L16.6835 59.9895Z" fill="#FF8510"/>
    <path d="M9.38062 37.6562H15.6356V42.3438H9.38062V37.6562Z" fill="#FF8510"/>
    <path d="M16.6877 20.0062L20.0018 16.6922L24.4241 21.1144L21.11 24.4285L16.6877 20.0062Z" fill="#FF8510"/>
    <path d="M56.5456 42.3438H37.6562V23.4545H42.3437V37.6563H56.5456V42.3438Z" fill="#FF8510"/>
</svg>