<svg width="80" height="80" viewBox="0 0 80 80" fill="none" xmlns="http://www.w3.org/2000/svg">
<g clip-path="url(#clip0)">
<path d="M4.6875 40C4.6875 20.5286 20.5286 4.6875 40 4.6875C47.323 4.6875 54.3067 6.90797 60.1869 11.0292L55.6441 11.0292C54.3497 11.0292 53.3003 12.0786 53.3003 13.373C53.3003 14.6673 54.3497 15.7167 55.6441 15.7167L66.6272 15.7167C67.9216 15.7167 68.9709 14.6673 68.9709 13.373L68.9709 2.38984C68.9709 1.09547 67.9216 0.0460935 66.6272 0.0460935C65.3328 0.0460935 64.2834 1.09547 64.2834 2.38984L64.2834 8.22406C57.3417 2.89047 48.8922 -1.64689e-07 40 -1.34737e-07C29.3156 -9.87474e-08 19.2708 4.16078 11.7156 11.7156C4.16078 19.2708 9.87474e-08 29.3156 1.34737e-07 40C1.58379e-07 47.0189 1.85484 53.9347 5.36406 59.9997C5.79844 60.7506 6.58563 61.17 7.39484 61.17C7.79328 61.17 8.19703 61.0683 8.56656 60.8545C9.68688 60.2062 10.0695 58.7725 9.42141 57.652C6.32453 52.2997 4.6875 46.1956 4.6875 40V40Z" fill="black"/>
<path d="M74.636 20.0003C73.9875 18.8799 72.5535 18.4974 71.4335 19.1456C70.3131 19.7939 69.9305 21.2277 70.5786 22.3481C73.6755 27.7002 75.3125 33.8041 75.3125 40C75.3125 59.4714 59.4714 75.3125 40 75.3125C32.6777 75.3125 25.6952 73.0914 19.8156 68.9708L24.356 68.9708C25.6503 68.9708 26.6997 67.9214 26.6997 66.627C26.6997 65.3327 25.6503 64.2833 24.356 64.2833L13.373 64.2833C12.0786 64.2833 11.0292 65.3327 11.0292 66.627L11.0292 77.6102C11.0292 78.9045 12.0786 79.9539 13.373 79.9539C14.6674 79.9539 15.7167 78.9045 15.7167 77.6102L15.7167 71.7702C22.6583 77.1055 31.1067 80 40 80C50.6844 80 60.7292 75.8392 68.2844 68.2844C75.8392 60.7292 80 50.6844 80 40C80 32.9808 78.1452 26.065 74.636 20.0003V20.0003Z" fill="black"/>
<path d="M60.8458 35.2911C61.0065 34.6906 60.9223 34.0509 60.6115 33.5127L55.924 25.3936C55.6133 24.8553 55.1012 24.4625 54.5009 24.3016C53.9004 24.1408 53.2608 24.2248 52.7225 24.5358L50.0544 26.0762C49.1054 25.3878 48.0953 24.8025 47.0312 24.3248L47.0312 21.25C47.0312 19.9556 45.9819 18.9062 44.6875 18.9062L35.3125 18.9062C34.0181 18.9062 32.9687 19.9556 32.9687 21.25L32.9687 24.3247C31.9047 24.8025 30.8947 25.3877 29.9456 26.0761L27.2775 24.5356C26.7392 24.2247 26.0989 24.1405 25.499 24.3014C24.8986 24.4622 24.3867 24.855 24.0759 25.3934L19.3884 33.5125C19.0776 34.0508 18.9934 34.6906 19.1542 35.2909C19.3151 35.8914 19.708 36.4033 20.2462 36.7141L22.9014 38.2469C22.8422 38.8289 22.8125 39.4145 22.8125 40C22.8125 40.5855 22.8422 41.1711 22.9014 41.7528L20.2462 43.2856C19.708 43.5964 19.3151 44.1084 19.1542 44.7087C18.9934 45.3092 19.0776 45.9489 19.3884 46.4872L24.0759 54.6063C24.3867 55.1445 24.8987 55.5373 25.499 55.6983C26.0997 55.8594 26.7394 55.775 27.2775 55.4641L29.9456 53.9236C30.8945 54.6122 31.9047 55.1973 32.9687 55.675L32.9687 58.75C32.9687 60.0444 34.0181 61.0937 35.3125 61.0937L44.6875 61.0937C45.9819 61.0937 47.0312 60.0444 47.0312 58.75L47.0312 55.6753C48.0953 55.1977 49.1053 54.6123 50.0544 53.9239L52.7225 55.4644C53.2606 55.7752 53.9008 55.8594 54.5009 55.6986C55.1014 55.5378 55.6133 55.145 55.924 54.6066L60.6115 46.4875C60.9223 45.9492 61.0065 45.3094 60.8458 44.7091C60.6848 44.1086 60.292 43.5967 59.7537 43.2859L57.0986 41.7531C57.1578 41.1711 57.1875 40.5855 57.1875 40C57.1875 39.4145 57.1578 38.8289 57.0986 38.2472L59.7537 36.7144C60.292 36.4034 60.6848 35.8916 60.8458 35.2911V35.2911ZM52.247 37.485C52.4148 38.3073 52.5 39.1536 52.5 40C52.5 40.8464 52.4148 41.6927 52.247 42.515C52.0451 43.5031 52.4981 44.5095 53.3714 45.0138L55.3801 46.1734L53.0364 50.2328L51.0109 49.0634C50.1372 48.5589 49.0381 48.6703 48.2831 49.3403C47.005 50.4748 45.5461 51.32 43.947 51.8525C42.9895 52.1712 42.3436 53.067 42.3436 54.0763L42.3436 56.4062L37.6561 56.4062L37.6561 54.0763C37.6561 53.0672 37.0101 52.1712 36.0526 51.8525C34.4536 51.32 32.9947 50.4748 31.7165 49.3403C30.9617 48.6702 29.8626 48.5589 28.9887 49.0634L26.9633 50.2328L24.6195 46.1734L26.6283 45.0138C27.5015 44.5095 27.9545 43.5031 27.7526 42.515C27.5851 41.6927 27.5 40.8464 27.5 40C27.5 39.1536 27.5851 38.3073 27.753 37.485C27.9548 36.4969 27.5019 35.4905 26.6286 34.9863L24.6198 33.8266L26.9636 29.7672L28.989 30.9366C29.863 31.4413 30.9619 31.3298 31.7169 30.6597C32.995 29.5252 34.4539 28.68 36.0531 28.1475C37.0105 27.8286 37.6564 26.9328 37.6564 25.9238L37.6564 23.5937L42.3439 23.5937L42.3439 25.9238C42.3439 26.9328 42.9898 27.8286 43.9472 28.1475C45.5464 28.68 47.0053 29.5252 48.2834 30.6597C49.0383 31.3298 50.1373 31.4411 51.0112 30.9366L53.0367 29.7672L55.3804 33.8266L53.3717 34.9863C52.4981 35.4905 52.0451 36.4969 52.247 37.485V37.485Z" fill="#FF7D00"/>
<path d="M40 31.4062C35.2614 31.4062 31.4063 35.2614 31.4063 40C31.4063 44.7386 35.2614 48.5937 40 48.5937C44.7386 48.5937 48.5938 44.7386 48.5938 40C48.5938 35.2614 44.7386 31.4062 40 31.4062ZM40 43.9062C37.8461 43.9062 36.0938 42.1539 36.0938 40C36.0938 37.8461 37.8461 36.0937 40 36.0937C42.1539 36.0937 43.9063 37.8461 43.9063 40C43.9063 42.1539 42.1539 43.9062 40 43.9062Z" fill="#FF7D00"/>
</g>
<defs>
<clipPath id="clip0">
<rect width="80" height="80" fill="white"/>
</clipPath>
</defs>
</svg>
