<svg width="1920" height="1100" viewBox="0 0 1920 1100" fill="none" xmlns="http://www.w3.org/2000/svg">
    <g clip-path="url(#clip0)">
        <g clip-path="url(#clip1)">
            <path d="M1941.33 465.591C1791.68 484.825 1676.07 557.904 1526.03 526.759C1253.17 469.994 1028.12 157.56 753.345 135.488C595.401 122.818 430.039 220.341 274.506 181.153C102.733 137.641 -33.2381 28.9385 -154.594 -121.034C-193.65 -169.362 -247.908 -214.771 -308.5 -254C-290.749 -199.097 -274.879 -144.66 -263.884 -87.6319C-218.019 152.111 -177.683 392.917 -139.151 633.655C-114.925 785.33 -91.3122 937.536 -67.7765 1089.34C-52.19 1088.42 -37.3335 1085.56 -23.6293 1080.45C123.97 1026.45 213.628 941.405 370.222 930.347C635.346 911.675 882.697 1049.85 1147.47 1027.52C1247.6 1019.04 1376.81 964.444 1470.85 928.18C1564.9 891.916 1612.96 847.532 1713.2 867.563C1786.22 882.072 1878.93 848.134 1921.56 916.868C1951.5 897.468 1985.09 876.542 2035.99 858.079C2120.02 827.462 2237 833.939 2314.26 892.713L2360.71 745.244C2247.5 630.101 2086.4 446.82 1941.33 465.591Z" fill="url(#paint0_linear)"/>
        </g>
    </g>
    <defs>
        <linearGradient id="paint0_linear" x1="1043.57" y1="343.28" x2="817.794" y2="866.513" gradientUnits="userSpaceOnUse">
            <stop stop-color="#322544"/>
            <stop offset="1" stop-color="#18141D"/>
        </linearGradient>
        <clipPath id="clip0">
            <rect width="1920" height="1100" fill="white"/>
        </clipPath>
        <clipPath id="clip1">
            <rect width="2027.62" height="1590.77" fill="white" transform="matrix(0.982044 -0.188652 0.189314 0.981917 -243.171 -189.77)"/>
        </clipPath>
    </defs>
</svg>