<svg width="296" height="63" viewBox="0 0 296 63" fill="none" xmlns="http://www.w3.org/2000/svg">
    <g clip-path="url(#clip0)">
        <path d="M7.15715 49.697C7.15715 52.1975 4.38723 52.1975 4.38723 52.1975L2.92642 52.1975C1.72135 52.1975 0.152161 51.6931 0.152161 49.9797C0.152161 49.3056 0.433921 49.049 0.967098 49.049L1.53062 49.049L1.53062 49.6666C1.52325 49.8482 1.5551 50.0293 1.62399 50.1974C1.69288 50.3655 1.79718 50.5167 1.92974 50.6406C2.06231 50.7645 2.22001 50.8582 2.39204 50.9152C2.56406 50.9723 2.74635 50.9914 2.92642 50.9712L4.38723 50.9712C4.5662 50.985 4.74609 50.9615 4.91556 50.9021C5.08502 50.8428 5.24041 50.7489 5.37193 50.6263C5.50345 50.5038 5.60826 50.3552 5.67976 50.1901C5.75126 50.0249 5.78789 49.8466 5.78737 49.6666L5.78737 47.6183L2.22418 47.6183L2.22418 46.3572L5.78303 46.3572L5.78303 44.3046C5.77652 44.1293 5.73485 43.9572 5.66053 43.7985C5.5862 43.6398 5.48074 43.4977 5.35045 43.3808C5.22015 43.2639 5.0677 43.1745 4.9022 43.118C4.73671 43.0616 4.56156 43.0392 4.38723 43.0521L2.92642 43.0521C2.05946 43.0521 1.58264 43.5566 1.58264 44.2307L1.58264 45.1004L0.993107 45.1004C0.88426 45.1002 0.776721 45.0766 0.677711 45.0312C0.578701 44.9859 0.490513 44.9198 0.41907 44.8374C0.347626 44.755 0.294582 44.6582 0.263499 44.5536C0.232415 44.4489 0.224013 44.3388 0.238856 44.2307C0.238856 42.2911 1.83405 41.8128 3.00878 41.8128L4.38723 41.8128C4.38723 41.8128 7.15715 41.8128 7.15715 44.3698L7.15715 49.697ZM17.2442 42.452L17.2442 51.5017C17.2432 51.5908 17.2241 51.6788 17.188 51.7602C17.1518 51.8416 17.0994 51.9147 17.034 51.975C16.9686 52.0353 16.8916 52.0816 16.8077 52.1108C16.7238 52.1401 16.6349 52.1519 16.5463 52.1453L15.844 52.1453L15.844 43.0521L14.8037 43.0521C14.2185 43.0521 14.0494 43.3653 13.8804 43.8697L12.2592 49.2404C12.1758 49.5514 12.1278 49.8709 12.1161 50.1928L12.1161 52.1323L11.3575 52.1323C10.9934 52.1323 10.7117 51.9322 10.7117 51.4321L10.7117 49.6622L12.7273 43.3435C13.0091 42.4129 13.4859 41.8258 14.86 41.8258L16.5419 41.8258C16.6287 41.8181 16.716 41.8281 16.7987 41.8554C16.8815 41.8826 16.9578 41.9264 17.0231 41.9842C17.0884 42.042 17.1413 42.1125 17.1785 42.1914C17.2158 42.2703 17.2366 42.356 17.2398 42.4433L17.2442 42.452ZM23.0441 50.9103L27.86 50.9103L27.86 51.4974C27.8607 51.5849 27.8436 51.6716 27.8098 51.7523C27.7759 51.8329 27.726 51.9058 27.6631 51.9664C27.6002 52.0271 27.5257 52.0742 27.444 52.105C27.3623 52.1358 27.2753 52.1495 27.1881 52.1453L22.3419 52.1453C22.2554 52.1477 22.1693 52.1326 22.0887 52.1012C22.0081 52.0697 21.9346 52.0224 21.8724 51.9621C21.8102 51.9017 21.7607 51.8295 21.7267 51.7497C21.6927 51.67 21.6749 51.5842 21.6743 51.4974L21.6743 42.8695C21.6743 42.0824 22.0688 41.8345 22.8534 41.8345L27.1881 41.8345C27.2734 41.8273 27.3593 41.8379 27.4403 41.8656C27.5214 41.8934 27.5958 41.9376 27.6589 41.9956C27.722 42.0537 27.7725 42.1242 27.8071 42.2027C27.8417 42.2813 27.8597 42.3661 27.86 42.452L27.86 43.0521L23.0441 43.0521L23.0441 46.2572L27.1881 46.2572L27.1881 47.4922L23.0441 47.4922L23.0441 50.9103ZM33.0444 52.1453L32.3725 52.1453C32.3725 52.1453 31.6703 52.1453 31.6703 51.4974L31.6703 42.7042C31.6545 42.5912 31.6641 42.476 31.6984 42.3672C31.7327 42.2583 31.7908 42.1585 31.8685 42.0752C31.9463 41.9918 32.0416 41.9269 32.1475 41.8852C32.2535 41.8436 32.3674 41.8263 32.4809 41.8345L33.0444 41.8345L33.0444 46.3267L34.3882 46.3267C34.9474 45.5701 36.2088 43.3783 36.2088 43.3783L36.2088 42.6738C36.2088 41.9171 36.6423 41.8345 37.0194 41.8345L37.6089 41.8345L37.6089 43.0956C37.644 43.4656 37.5455 43.836 37.3315 44.1393L35.6496 46.7225L36.3779 47.1573C36.8251 47.382 37.2012 47.7272 37.4638 48.1543C37.7264 48.5814 37.8652 49.0734 37.8647 49.5752L37.8647 52.1323L37.1928 52.1323C37.1928 52.1323 36.4949 52.1323 36.4949 51.4843L36.4949 49.9144C36.5305 49.5256 36.4444 49.1353 36.2486 48.7979C36.0528 48.4604 35.7571 48.1925 35.4025 48.0314L34.5616 47.5574L33.0444 47.5574L33.0444 52.1453ZM48.0644 43.0521L44.9044 43.0521L44.9044 52.154L43.5259 52.154L43.5259 43.0521L40.2185 43.0521L40.2185 42.452C40.2188 42.3661 40.2368 42.2813 40.2714 42.2027C40.306 42.1242 40.3565 42.0537 40.4196 41.9956C40.4827 41.9376 40.5571 41.8934 40.6382 41.8656C40.7192 41.8379 40.8051 41.8273 40.8904 41.8345L47.3925 41.8345C47.478 41.8273 47.5641 41.8379 47.6454 41.8656C47.7266 41.8933 47.8013 41.9375 47.8647 41.9954C47.9282 42.0534 47.9791 42.1239 48.0142 42.2024C48.0493 42.281 48.0679 42.3659 48.0687 42.452L48.0644 43.0521ZM53.834 46.966C55.0391 46.966 55.5159 46.3485 55.5159 45.4526L55.5159 44.5307C55.5159 43.4087 54.9003 43.0695 54.0854 43.0695L52.2085 43.0695L52.2085 46.9834L53.834 46.966ZM52.2128 52.141L51.5106 52.141C51.425 52.1482 51.339 52.1376 51.2577 52.1099C51.1765 52.0822 51.1018 52.038 51.0383 51.98C50.9749 51.9221 50.924 51.8516 50.8889 51.7731C50.8538 51.6945 50.8352 51.6096 50.8343 51.5235L50.8343 42.9565C50.8343 41.9737 51.5322 41.8345 52.0437 41.8345L54.2111 41.8345C56.4522 41.8345 56.8987 42.9826 56.8987 44.1915L56.8987 45.5962C56.8987 47.5922 55.3295 48.2358 53.9597 48.2358L52.2258 48.2358L52.2128 52.141ZM65.4555 44.3089C65.4561 44.1285 65.4193 43.9498 65.3476 43.7843C65.2758 43.6188 65.1706 43.4701 65.0386 43.3475C64.9066 43.2249 64.7507 43.131 64.5807 43.072C64.4107 43.0129 64.2304 42.9899 64.051 43.0043L62.9023 43.0043C61.3592 43.0043 61.3592 44.3089 61.3592 44.3089L61.3592 49.3622C61.3592 49.8405 61.5586 50.9929 62.7853 50.9929L64.1551 50.9929C65.4555 50.9929 65.4555 49.6187 65.4555 49.6187L65.4555 44.3089ZM66.8253 44.3916L66.8253 49.61C66.8253 52.2193 64.1638 52.2193 64.1638 52.2193L62.5946 52.2193C61.7276 52.2193 59.9937 51.7148 59.9937 49.3535L59.9937 44.3872C59.9937 41.7475 62.794 41.7475 62.794 41.7475L64.1551 41.7475C64.1551 41.7475 66.8166 41.7475 66.8166 44.3872L66.8253 44.3916ZM77.4542 41.8345C77.4542 41.8345 78.1304 41.8345 78.1304 42.452L78.1304 51.5278C78.1304 52.1453 77.4542 52.1453 77.4542 52.1453L76.7563 52.1453L76.7563 47.5096L72.6122 47.5096L72.6122 52.1453L71.91 52.1453C71.91 52.1453 71.2424 52.1453 71.2424 51.5278L71.2424 42.452C71.2424 41.8345 71.91 41.8345 71.91 41.8345L72.6122 41.8345L72.6122 46.2702L76.7563 46.2702L76.7563 41.8345L77.4542 41.8345ZM88.7766 41.8345C88.7766 41.8345 89.4485 41.8345 89.4485 42.452L89.4485 51.5278C89.4485 52.1453 88.7766 52.1453 88.7766 52.1453L88.0744 52.1453L88.0744 47.5096L83.9303 47.5096L83.9303 52.1453L83.2281 52.1453C83.2281 52.1453 82.5562 52.1453 82.5562 51.5278L82.5562 42.452C82.5562 41.8345 83.2281 41.8345 83.2281 41.8345L83.9347 41.8345L83.9347 46.2702L88.0787 46.2702L88.0787 41.8345L88.7766 41.8345ZM101.161 52.1453L101.161 41.8041L101.694 41.8041C102.31 41.8041 102.535 42.1128 102.535 42.6216L102.535 51.3626C102.535 51.7974 102.305 52.1497 101.694 52.1497L101.161 52.1453ZM98.6685 48.9447C98.6685 47.6401 97.2684 47.6401 97.2684 47.6401L95.3091 47.6401L95.3091 50.9016L97.2684 50.9016C97.4474 50.9154 97.6273 50.8919 97.7967 50.8325C97.9662 50.7732 98.1216 50.6793 98.2531 50.5567C98.3846 50.4342 98.4894 50.2856 98.5609 50.1205C98.6324 49.9553 98.6691 49.7771 98.6685 49.597L98.6685 48.9447ZM100.069 49.6405C100.069 52.1453 97.2641 52.1453 97.2641 52.1453L94.5722 52.1453C94.4832 52.1519 94.3939 52.14 94.3097 52.1105C94.2255 52.0809 94.1483 52.0343 94.0829 51.9735C94.0174 51.9128 93.9651 51.8391 93.9292 51.7572C93.8933 51.6753 93.8746 51.5869 93.8743 51.4974L93.8743 42.6477C93.8743 41.9519 94.3771 41.8041 94.7976 41.8041L95.3048 41.8041L95.3048 46.3833L97.2077 46.3833C100.069 46.3833 100.069 48.8316 100.069 48.8316L100.069 49.6405ZM113.264 41.778C112.83 41.778 112.705 41.8606 112.509 42.1694L108.175 49.7274C108.227 49.223 108.339 47.988 108.339 46.779L108.339 41.8041L107.78 41.8041C106.996 41.8041 106.965 42.339 106.965 42.7347L106.965 51.6452C106.967 51.7231 106.985 51.7998 107.018 51.8706C107.05 51.9414 107.096 52.0049 107.154 52.0573C107.211 52.1097 107.279 52.1499 107.352 52.1755C107.426 52.2011 107.503 52.2115 107.581 52.2062C107.708 52.2155 107.836 52.1891 107.949 52.13C108.062 52.0709 108.157 51.9813 108.222 51.8714L112.653 44.3089C112.544 45.2982 112.488 46.2926 112.483 47.2878L112.483 52.1497L113.069 52.1497C113.658 52.1497 113.853 51.7148 113.853 51.1147L113.853 42.3085C113.853 42.0563 113.71 41.7736 113.233 41.7736L113.264 41.778ZM111.838 41.1865C111.931 41.1971 112.026 41.1858 112.114 41.1536C112.202 41.1215 112.282 41.0693 112.347 41.0011C112.412 40.9329 112.461 40.8506 112.489 40.7606C112.517 40.6706 112.524 40.5752 112.509 40.482L112.509 39.8906L110.884 39.9776L109.709 39.9776C109.176 39.9776 109.033 40.2864 109.033 40.6256L109.033 41.2431L110.767 41.1909L111.838 41.1865ZM128.34 50.9929L128.34 42.9826L127.33 42.9826C126.602 42.9826 126.463 43.774 126.463 43.774L125.202 48.8577C125.154 49.107 125.136 49.3608 125.145 49.6144L125.145 50.9886L128.34 50.9929ZM130.187 50.9929C130.3 50.9777 130.416 50.9864 130.525 51.0187C130.635 51.0509 130.737 51.1058 130.825 51.18C130.912 51.2542 130.983 51.3459 131.033 51.4492C131.083 51.5526 131.11 51.6653 131.114 51.78L131.114 52.9585C131.114 53.5761 130.807 53.663 130.442 53.663L129.771 53.663L129.771 52.141L123.576 52.141L123.576 53.663L122.904 53.663C122.536 53.663 122.232 53.5761 122.232 52.9585L122.232 51.9192C122.232 51.2712 122.54 50.9886 123.212 50.9886L123.715 50.9886L123.715 49.223L125.202 43.5696C125.505 42.4781 126.043 41.8302 127.642 41.8302L129.012 41.8302C129.184 41.8278 129.35 41.889 129.48 42.0021C129.609 42.1152 129.693 42.2723 129.714 42.4433L129.714 50.9886L130.187 50.9929ZM141.284 51.106C141.284 51.7235 141.063 52.141 140.473 52.141L139.884 52.141L139.884 47.2835C139.889 46.2882 139.945 45.294 140.053 44.3046L135.622 51.867C135.557 51.9773 135.463 52.0671 135.349 52.1263C135.236 52.1855 135.108 52.2117 134.981 52.2019C134.903 52.2072 134.826 52.1967 134.752 52.1711C134.679 52.1455 134.612 52.1053 134.554 52.0529C134.497 52.0005 134.45 51.937 134.418 51.8662C134.385 51.7954 134.368 51.7188 134.365 51.6409L134.365 42.7303C134.365 42.339 134.391 41.7997 135.18 41.7997L135.74 41.7997L135.74 46.779C135.749 47.7645 135.693 48.7495 135.57 49.7274L139.905 42.1694C140.105 41.8606 140.213 41.778 140.69 41.778C140.766 41.7675 140.844 41.7734 140.918 41.7954C140.992 41.8174 141.06 41.855 141.118 41.9056C141.177 41.9563 141.223 42.0188 141.256 42.089C141.288 42.1592 141.305 42.2355 141.305 42.3129L141.284 51.106ZM150.053 41.778C150.95 41.778 152.294 42.2128 152.294 43.7132L152.294 44.1089C152.294 44.7221 152.012 44.8395 151.535 44.8395L150.92 44.8395L150.92 44.222C150.92 43.3783 150.751 43.013 149.619 43.013L148.471 43.013C148.292 42.9992 148.112 43.0227 147.942 43.0821C147.773 43.1414 147.618 43.2353 147.486 43.3579C147.355 43.4804 147.25 43.629 147.178 43.7941C147.107 43.9593 147.07 44.1376 147.071 44.3176L147.071 49.3448C147.071 49.9101 147.071 50.919 148.471 50.919L149.732 50.919C150.573 50.919 150.998 50.4841 150.998 49.9101L150.998 48.8968L151.639 48.8968C151.736 48.8875 151.833 48.9 151.924 48.9336C152.014 48.9672 152.096 49.0209 152.163 49.0907C152.231 49.1606 152.281 49.2447 152.311 49.3369C152.341 49.4291 152.35 49.5269 152.337 49.6231L152.337 50.1623C152.337 51.206 151.414 52.154 149.901 52.154L148.193 52.154C147.686 52.154 145.701 52.1279 145.701 49.5448L145.701 44.3872C145.701 41.7997 148.302 41.778 148.302 41.778L150.053 41.778ZM157.647 52.1453L156.976 52.1453C156.976 52.1453 156.273 52.1453 156.273 51.4974L156.273 42.7042C156.26 42.5912 156.271 42.4767 156.307 42.3685C156.342 42.2604 156.401 42.1614 156.478 42.0785C156.556 41.9956 156.651 41.9307 156.756 41.8886C156.862 41.8464 156.975 41.828 157.088 41.8345L157.647 41.8345L157.647 46.3267L158.991 46.3267C159.555 45.5701 160.812 43.3783 160.842 43.3783L160.842 42.6738C160.842 41.9171 161.232 41.8345 161.627 41.8345L162.216 41.8345L162.216 43.0956C162.253 43.4664 162.153 43.8378 161.935 44.1393L160.257 46.7225L160.981 47.1573C161.431 47.3777 161.81 47.722 162.072 48.1502C162.335 48.5784 162.471 49.0726 162.463 49.5752L162.463 52.1323L161.792 52.1323C161.792 52.1323 161.094 52.1323 161.094 51.4843L161.094 49.9144C161.13 49.5254 161.045 49.1346 160.849 48.7969C160.653 48.4591 160.357 48.1914 160.001 48.0314L159.156 47.5574L157.647 47.5574L157.647 52.1453ZM170.843 48.3532L169.386 43.8828L167.93 48.3532L170.843 48.3532ZM172.832 51.4974C172.832 51.5872 172.813 51.6761 172.777 51.7583C172.741 51.8405 172.688 51.9144 172.622 51.9752C172.556 52.0361 172.478 52.0826 172.394 52.1119C172.309 52.1411 172.219 52.1525 172.13 52.1453L171.458 52.1453L171.458 50.3493L171.224 49.5752L167.539 49.5752L167.318 50.3319L167.318 52.1279L166.642 52.1279C166.553 52.1351 166.463 52.1237 166.378 52.0945C166.294 52.0652 166.216 52.0187 166.15 51.9578C166.084 51.897 166.031 51.8231 165.995 51.7409C165.959 51.6587 165.94 51.5699 165.94 51.48L165.94 49.9362L168.684 42.2085C168.732 42.0554 168.83 41.9229 168.962 41.8316C169.094 41.7403 169.252 41.6955 169.412 41.704C169.564 41.7001 169.712 41.7479 169.834 41.8395C169.955 41.9311 170.041 42.0611 170.08 42.2085L172.828 49.9362L172.832 51.4974ZM179.191 51.4974C178.996 51.9322 178.801 52.1453 178.411 52.1453L177.57 52.1453C176.898 52.1149 176.642 51.9236 176.642 51.4974L176.642 50.8799L178.103 50.8799L178.537 49.7535L175.706 42.6434C175.679 42.5582 175.671 42.4684 175.681 42.3798C175.692 42.2912 175.72 42.2057 175.766 42.129C175.811 42.0522 175.872 41.986 175.945 41.9345C176.017 41.883 176.1 41.8474 176.187 41.8302L176.916 41.8302L179.352 48.3185L179.746 46.7747L181.731 41.8302L182.321 41.8302C182.409 41.8467 182.493 41.8815 182.567 41.9324C182.641 41.9832 182.704 42.049 182.751 42.1255C182.798 42.202 182.829 42.2876 182.842 42.3768C182.854 42.4659 182.848 42.5567 182.824 42.6434L179.191 51.4974ZM192.755 41.8345C192.755 41.8345 193.457 41.8345 193.457 42.452L193.457 51.5278C193.457 52.1453 192.755 52.1453 192.755 52.1453L192.057 52.1453L192.057 47.5096L187.939 47.5096L187.939 52.1453L187.237 52.1453C187.237 52.1453 186.539 52.1453 186.539 51.5278L186.539 42.452C186.539 41.8345 187.237 41.8345 187.237 41.8345L187.939 41.8345L187.939 46.2702L192.057 46.2702L192.057 41.8345L192.755 41.8345ZM204.047 43.0521L200.878 43.0521L200.878 52.154L199.508 52.154L199.508 43.0521L196.197 43.0521L196.197 42.452C196.198 42.3639 196.219 42.2772 196.256 42.1973C196.293 42.1174 196.346 42.0462 196.412 41.9881C196.478 41.93 196.556 41.8864 196.639 41.8599C196.723 41.8335 196.812 41.8248 196.899 41.8345L203.371 41.8345C203.456 41.8273 203.542 41.8379 203.623 41.8656C203.704 41.8934 203.778 41.9376 203.841 41.9956C203.905 42.0537 203.955 42.1242 203.99 42.2027C204.024 42.2813 204.042 42.3661 204.043 42.452L204.047 43.0521ZM208.503 50.9103L213.349 50.9103L213.349 51.4974C213.35 51.5845 213.333 51.6709 213.299 51.7512C213.266 51.8316 213.216 51.9042 213.154 51.9648C213.091 52.0254 213.017 52.0726 212.936 52.1037C212.855 52.1347 212.769 52.1489 212.682 52.1453L207.827 52.1453C207.827 52.1453 207.129 52.1453 207.129 51.4974L207.129 42.8695C207.129 42.0824 207.519 41.8345 208.334 41.8345L212.669 41.8345C212.754 41.8279 212.839 41.839 212.92 41.867C213 41.895 213.074 41.9394 213.137 41.9974C213.199 42.0553 213.249 42.1256 213.284 42.2038C213.318 42.282 213.336 42.3665 213.336 42.452L213.336 43.0521L208.503 43.0521L208.503 46.2572L212.682 46.2572L212.682 47.4922L208.503 47.4922L208.503 50.9103ZM220.463 46.966C221.672 46.966 222.145 46.3485 222.145 45.4526L222.145 44.5307C222.145 43.4087 221.529 43.0695 220.718 43.0695L218.841 43.0695L218.841 46.9834L220.463 46.966ZM218.841 52.141L218.139 52.141C218.054 52.1475 217.968 52.1365 217.888 52.1085C217.807 52.0805 217.733 52.0362 217.67 51.9783C217.607 51.9205 217.556 51.8502 217.522 51.772C217.487 51.6937 217.468 51.6092 217.467 51.5235L217.467 42.9565C217.467 41.9737 218.17 41.8345 218.672 41.8345L220.84 41.8345C223.081 41.8345 223.527 42.9826 223.527 44.1915L223.527 45.5962C223.527 47.5922 221.958 48.2358 220.584 48.2358L218.85 48.2358L218.841 52.141Z" fill="white"/>
        <path d="M80.0546 9.34976L60.4094 9.34976C59.7284 9.34976 59.0752 9.62086 58.5933 10.1035C58.1114 10.5862 57.84 11.241 57.8389 11.9242C57.8408 12.2557 57.9097 12.5834 58.0414 12.8875C58.173 13.1915 58.3648 13.4657 58.6051 13.6933C58.8453 13.9209 59.1291 14.0973 59.4392 14.2118C59.7493 14.3263 60.0794 14.3765 60.4094 14.3595L67.7785 14.3595L67.7785 29.0147C67.7785 29.7067 68.0525 30.3704 68.5403 30.8597C69.0281 31.349 69.6896 31.6239 70.3794 31.6239C71.0692 31.6239 71.7307 31.349 72.2185 30.8597C72.7062 30.3704 72.9802 29.7067 72.9802 29.0147L72.9802 14.3508L80.0546 14.3508C80.7166 14.3683 81.3584 14.1218 81.8395 13.6653C82.3205 13.2088 82.6015 12.5795 82.6208 11.9155C82.6096 11.237 82.3353 10.5896 81.8563 10.1106C81.3772 9.63164 80.7309 9.35872 80.0546 9.34976ZM52.8842 9.34976C52.2777 9.34371 51.6862 9.53945 51.2023 9.9064L35.051 23.6701L35.051 11.972C35.051 11.286 34.7818 10.6276 34.3015 10.1392C33.8212 9.65089 33.1686 9.37196 32.4848 9.36281C31.7988 9.37509 31.1444 9.65393 30.6593 10.1406C30.1741 10.6273 29.8962 11.2839 29.8839 11.972L29.8839 29.0147C29.8997 29.6985 30.1798 30.3495 30.6651 30.8299C31.1505 31.3103 31.803 31.5826 32.4848 31.5892C33.149 31.5754 33.786 31.3222 34.2794 30.876L50.3181 17.2297L50.3181 29.0147C50.3272 29.7007 50.6052 30.3554 51.092 30.8373C51.5788 31.3191 52.2351 31.5892 52.9189 31.5892C53.6027 31.5892 54.2591 31.3191 54.7459 30.8373C55.2326 30.3554 55.5107 29.7007 55.5198 29.0147L55.5198 11.972C55.5141 11.2746 55.2339 10.6076 54.7402 10.1165C54.2466 9.62532 53.5795 9.34974 52.8842 9.34976ZM21.1884 9.34976L5.58319 9.34976C4.1133 9.36318 2.70682 9.95227 1.66378 10.9914C0.62073 12.0305 0.0236845 13.4373 5.02292e-08 14.9118L8.77436e-08 26.0489C9.87298e-08 29.3104 2.28876 31.5892 5.56585 31.5892L21.171 31.5892C21.8907 31.6182 22.6085 31.4982 23.2798 31.2365C23.9511 30.9748 24.5615 30.5772 25.0728 30.0683C25.584 29.5595 25.9853 28.9503 26.2515 28.279C26.5177 27.6076 26.6431 26.8884 26.6198 26.1663L26.6198 24.6703C26.6198 23.9904 26.3506 23.3384 25.8714 22.8576C25.3922 22.3768 24.7422 22.1068 24.0645 22.1068C23.3868 22.1068 22.7368 22.3768 22.2576 22.8576C21.7784 23.3384 21.5091 23.9904 21.5091 24.6703L21.5091 26.0924C21.5091 26.3011 21.3618 26.5577 21.1884 26.5577L5.58319 26.5577C5.47045 26.5466 5.3665 26.4918 5.29359 26.4048C5.22068 26.3178 5.18459 26.2057 5.19306 26.0924L5.19306 14.8639C5.19306 14.603 5.41413 14.3551 5.58319 14.3551L21.1884 14.3551C21.3228 14.3551 21.5091 14.6117 21.5091 14.8639L21.5091 16.2425C21.5091 16.9224 21.7784 17.5745 22.2576 18.0552C22.7368 18.536 23.3868 18.8061 24.0645 18.8061C24.7422 18.8061 25.3922 18.536 25.8714 18.0552C26.3506 17.5745 26.6198 16.9224 26.6198 16.2425L26.6198 14.7857C26.6428 14.0645 26.5179 13.3462 26.2529 12.6754C25.9879 12.0046 25.5885 11.3955 25.0793 10.8859C24.5701 10.3763 23.962 9.97702 23.2927 9.71278C22.6234 9.44854 21.9072 9.32499 21.1884 9.34976ZM201.532 9.34976C200.846 9.36204 200.192 9.64089 199.707 10.1276C199.222 10.6143 198.944 11.2708 198.931 11.959L198.931 29.0147C198.947 29.6985 199.227 30.3495 199.713 30.8299C200.198 31.3103 200.851 31.5826 201.532 31.5892C202.21 31.5801 202.858 31.306 203.337 30.8252C203.816 30.3443 204.09 29.6947 204.098 29.0147L204.098 11.972C204.096 11.2855 203.827 10.6269 203.347 10.137C202.868 9.64701 202.217 9.36451 201.532 9.34976ZM163.1 9.34976C162.494 9.34662 161.904 9.54206 161.418 9.9064L145.25 23.6701L145.25 11.972C145.25 11.28 144.976 10.6164 144.488 10.127C144 9.63771 143.339 9.36281 142.649 9.36281C141.967 9.37749 141.317 9.65818 140.838 10.1453C140.359 10.6325 140.088 11.2877 140.083 11.972L140.083 29.0147C140.092 29.6947 140.365 30.3443 140.844 30.8252C141.323 31.306 141.971 31.5801 142.649 31.5892C143.325 31.5801 143.976 31.3269 144.482 30.876L160.486 17.2297L160.486 29.0147C160.495 29.7007 160.773 30.3554 161.26 30.8373C161.747 31.3191 162.403 31.5892 163.087 31.5892C163.767 31.5751 164.415 31.3004 164.899 30.8215C165.382 30.3427 165.665 29.6961 165.688 29.0147L165.688 11.972C165.671 11.2865 165.393 10.6334 164.912 10.1461C164.432 9.65873 163.783 9.37392 163.1 9.34976ZM192.343 9.34976C191.657 9.36204 191.002 9.64089 190.517 10.1276C190.032 10.6143 189.754 11.2708 189.742 11.959L189.742 18.0472L174.765 18.0472L174.765 11.959C174.745 11.2732 174.465 10.6209 173.982 10.1358C173.498 9.65069 172.848 9.36946 172.164 9.34976C171.478 9.36204 170.824 9.64089 170.339 10.1276C169.854 10.6143 169.576 11.2708 169.563 11.959L169.563 29.0147C169.578 29.6989 169.858 30.3504 170.343 30.8311C170.829 31.3117 171.482 31.5837 172.164 31.5892C172.844 31.5751 173.492 31.3004 173.976 30.8215C174.459 30.3427 174.742 29.6961 174.765 29.0147L174.765 23.0483L189.724 23.0483L189.724 29.0147C189.784 29.6628 190.082 30.2653 190.561 30.7041C191.04 31.1428 191.666 31.386 192.314 31.386C192.963 31.386 193.588 31.1428 194.068 30.7041C194.547 30.2653 194.845 29.6628 194.904 29.0147L194.904 11.972C194.902 11.2862 194.633 10.6283 194.155 10.1384C193.676 9.64862 193.026 9.36563 192.343 9.34976ZM222.543 26.9925L212.547 20.4912L222.517 13.9942C222.893 13.7635 223.201 13.4372 223.41 13.0485C223.619 12.6597 223.723 12.2223 223.709 11.7807C223.714 11.4624 223.655 11.1463 223.536 10.851C223.418 10.5557 223.242 10.287 223.019 10.0607C222.796 9.83441 222.53 9.65497 222.237 9.5329C221.944 9.41083 221.629 9.34857 221.312 9.34976C220.776 9.3618 220.252 9.51153 219.79 9.78463L206.613 18.3299C206.259 18.5681 205.971 18.8926 205.776 19.2729C205.581 19.6532 205.486 20.0769 205.499 20.5042C205.492 20.9201 205.589 21.3309 205.782 21.6993C205.974 22.0677 206.255 22.3819 206.6 22.6134L219.799 31.1717C220.236 31.4434 220.737 31.5935 221.251 31.6065C221.894 31.6123 222.513 31.3619 222.973 30.9102C223.432 30.4585 223.693 29.8425 223.7 29.1974C223.711 28.7613 223.61 28.3298 223.407 27.9439C223.205 27.558 222.907 27.2305 222.543 26.9925ZM127.754 10.7066C127.536 10.2842 127.203 9.93271 126.793 9.69325C126.383 9.45379 125.914 9.33617 125.44 9.35411C124.989 9.35757 124.547 9.47692 124.155 9.70076C123.764 9.9246 123.436 10.2454 123.203 10.6326L112.986 27.7492C112.699 28.1508 112.547 28.6337 112.552 29.1278C112.554 29.7705 112.807 30.3871 113.255 30.846C113.704 31.305 114.313 31.5701 114.954 31.5848C115.412 31.5853 115.864 31.471 116.267 31.2523C116.671 31.0336 117.013 30.7174 117.264 30.3324L125.431 16.7035L133.554 30.315C133.797 30.6982 134.131 31.0148 134.526 31.2365C134.921 31.4581 135.365 31.5778 135.817 31.5848C136.148 31.5849 136.477 31.5186 136.782 31.39C137.088 31.2613 137.365 31.0729 137.597 30.8356C137.829 30.5983 138.011 30.317 138.134 30.0081C138.256 29.6991 138.316 29.3688 138.31 29.0364C138.312 28.5655 138.191 28.1022 137.959 27.6927L127.754 10.7066ZM107.736 9.34976C107.137 9.34688 106.553 9.54254 106.076 9.9064L89.9075 23.6658L89.9075 11.972C89.9405 11.6108 89.8981 11.2467 89.7829 10.9029C89.6677 10.5591 89.4823 10.2431 89.2386 9.97523C88.9949 9.70732 88.6982 9.49332 88.3674 9.34691C88.0366 9.20049 87.6791 9.12487 87.3175 9.12487C86.956 9.12487 86.5984 9.20049 86.2676 9.34691C85.9368 9.49332 85.6401 9.70732 85.3964 9.97523C85.1527 10.2431 84.9673 10.5591 84.8522 10.9029C84.737 11.2467 84.6945 11.6108 84.7275 11.972L84.7275 29.0147C84.7364 29.6939 85.0091 30.3429 85.4875 30.8237C85.9659 31.3044 86.6123 31.579 87.2893 31.5892C87.9727 31.5875 88.6315 31.3336 89.1403 30.876L105.179 17.2297L105.179 29.0147C105.179 29.7067 105.453 30.3704 105.941 30.8597C106.428 31.349 107.09 31.6239 107.78 31.6239C108.47 31.6239 109.131 31.349 109.619 30.8597C110.107 30.3704 110.381 29.7067 110.381 29.0147L110.381 11.972C110.382 11.6246 110.315 11.2803 110.182 10.9594C110.05 10.6384 109.855 10.3473 109.608 10.103C109.362 9.85875 109.07 9.66631 108.748 9.53696C108.427 9.40761 108.083 9.34397 107.736 9.34976ZM287.556 -9.68609e-07L240.762 -8.10988e-07C234.546 -7.90049e-07 232.344 4.52268 232.344 8.39304L232.344 34.1897C232.344 38.0601 234.55 42.5827 240.771 42.5827L249.497 42.5827L245.782 37.573L240.801 37.573C238.733 37.573 237.546 36.3814 237.546 34.3071L237.546 8.26258C237.546 6.18824 238.733 4.99669 240.801 4.99669L287.534 4.99669C289.606 4.99669 290.79 6.18824 290.79 8.26258L290.79 14.5291C290.79 15.2211 291.064 15.8848 291.551 16.3741C292.039 16.8634 292.701 17.1383 293.391 17.1383C294.08 17.1383 294.742 16.8634 295.23 16.3741C295.717 15.8848 295.991 15.2211 295.991 14.5291L295.991 8.39304C296 4.52267 293.789 -9.89606e-07 287.556 -9.68609e-07ZM293.386 25.4531C293.043 25.4484 292.703 25.5127 292.385 25.6422C292.068 25.7716 291.779 25.9637 291.537 26.2069C291.294 26.4501 291.103 26.7396 290.974 27.0583C290.845 27.377 290.781 27.7184 290.785 28.0623L290.785 34.3028C290.785 36.3771 289.598 37.5686 287.53 37.5686L279.016 37.5686L278.895 42.5827L287.565 42.5827C293.798 42.5827 296.009 38.0601 296.009 34.1897L296.009 28.058C296.012 27.7129 295.946 27.3707 295.815 27.0516C295.684 26.7325 295.49 26.443 295.246 26.2002C295.001 25.9573 294.711 25.7661 294.391 25.6378C294.072 25.5095 293.73 25.4467 293.386 25.4531Z" fill="#D5652B"/>
        <path d="M281.461 29.706C280.77 29.013 279.914 28.5089 278.974 28.2418C278.034 27.9746 277.041 27.9532 276.09 28.1796C275.877 27.8675 275.634 27.5763 275.367 27.3098C274.274 26.2336 272.802 25.6335 271.27 25.6399C270.681 25.6404 270.096 25.7343 269.536 25.9182C269.45 25.8182 269.367 25.7269 269.276 25.6399C268.203 24.5486 266.742 23.9292 265.214 23.9178L264.82 23.9178L264.82 16.6467C264.82 15.1226 264.216 13.6609 263.142 12.5831C262.068 11.5054 260.611 10.8999 259.092 10.8999C257.572 10.8999 256.115 11.5054 255.041 12.5831C253.967 13.6609 253.363 15.1226 253.363 16.6467L253.363 32.9893C251.564 31.4542 249.262 30.8366 247.26 31.3802C246.081 31.7125 245.033 32.4007 244.257 33.3514C243.481 34.3022 243.016 35.4693 242.925 36.6944C242.837 38.1699 243.22 39.6352 244.017 40.8778L243.987 40.9083L244.707 41.8607L245.574 43.0087L257.919 59.1425C258.697 60.2711 259.677 61.2444 260.81 62.0127C262.258 62.8824 263.754 62.9781 265.145 62.9781L273.524 62.9781C274.716 63.016 275.897 62.7385 276.949 62.1736C278.28 61.3886 279.277 60.1393 279.749 58.6641C280.321 57.0942 280.876 55.5244 281.431 53.9588L281.652 53.3413C282.139 52.0081 282.507 50.6343 282.753 49.2361C283.028 47.642 283.163 46.0268 283.156 44.409L283.156 33.772C283.156 33.0154 283.007 32.2662 282.716 31.5682C282.425 30.8701 281.998 30.2371 281.461 29.706ZM278.587 44.4177C278.587 45.7756 278.475 47.1312 278.253 48.4707C278.055 49.6043 277.765 50.7198 277.387 51.8062L275.505 56.9681C275.275 57.6248 275.115 57.9596 274.699 58.2032C274.327 58.3692 273.921 58.4423 273.516 58.4163L265.158 58.4163C264.466 58.4674 263.772 58.3511 263.134 58.0771C262.557 57.639 262.055 57.1103 261.647 56.5115L248.187 38.8905C247.672 38.2208 247.464 37.8337 247.49 37.151C247.497 36.7694 247.652 36.4057 247.923 36.1377C248.156 35.912 248.466 35.7858 248.79 35.7855C249.443 35.8372 250.056 36.1173 250.524 36.577L254.685 40.4256C255.049 40.7809 255.534 40.9845 256.042 40.9953C256.546 40.9953 257.029 40.7946 257.385 40.4374C257.741 40.0802 257.941 39.5957 257.941 39.0905L257.941 16.6685C257.936 16.5145 257.964 16.3612 258.022 16.2185C258.08 16.0758 258.167 15.9468 258.277 15.8399C258.388 15.733 258.52 15.6506 258.664 15.5978C258.808 15.545 258.962 15.5231 259.115 15.5335C259.268 15.5215 259.422 15.5424 259.567 15.5948C259.711 15.6472 259.842 15.7299 259.952 15.8373C260.062 15.9447 260.148 16.0744 260.204 16.2177C260.26 16.3611 260.285 16.5147 260.277 16.6685L260.277 33.7416C260.277 34.2468 260.477 34.7312 260.833 35.0884C261.189 35.4457 261.672 35.6463 262.176 35.6463C262.679 35.6463 263.162 35.4457 263.518 35.0884C263.874 34.7312 264.074 34.2468 264.074 33.7416L264.074 29.6929C264.078 29.38 264.202 29.0805 264.421 28.858C264.586 28.7021 264.793 28.5976 265.016 28.5574C265.239 28.5171 265.469 28.5428 265.678 28.6312C265.887 28.7197 266.066 28.8671 266.193 29.0556C266.32 29.2441 266.39 29.4655 266.394 29.6929L266.394 33.7329C266.397 34.2325 266.592 34.7116 266.938 35.0705C267.284 35.4294 267.756 35.6403 268.253 35.6594C268.756 35.6594 269.238 35.4593 269.594 35.103C269.95 34.7468 270.151 34.2634 270.152 33.759L270.152 31.2019C270.172 30.948 270.288 30.7114 270.477 30.5409C270.704 30.3386 270.997 30.2268 271.3 30.2268C271.604 30.2268 271.897 30.3386 272.124 30.5409C272.232 30.651 272.316 30.7816 272.373 30.925C272.429 31.0684 272.457 31.2217 272.454 31.3759L272.454 34.8853C272.45 35.3882 272.646 35.8718 272.998 36.2298C273.35 36.5879 273.829 36.7909 274.33 36.7944C274.832 36.7979 275.314 36.6014 275.671 36.2483C276.028 35.8952 276.23 35.4143 276.233 34.9114L276.233 33.7938C276.232 33.6431 276.26 33.4935 276.317 33.3539C276.373 33.2143 276.457 33.0874 276.563 32.9806C276.725 32.8181 276.932 32.7072 277.156 32.6618C277.381 32.6164 277.614 32.6384 277.827 32.7252C278.039 32.812 278.221 32.9596 278.35 33.1497C278.479 33.3398 278.55 33.5638 278.553 33.7938L278.587 44.4177Z" fill="#D5652B"/>
    </g>
    <defs>
        <clipPath id="clip0">
            <rect width="296" height="63" fill="white"/>
        </clipPath>
    </defs>
</svg>